<svg width="25" height="32" viewBox="0 0 25 32" fill="none" xmlns="http://www.w3.org/2000/svg">
<g id="Group">
<path id="Vector" d="M1.19647 21.805H23.8037C24.2584 21.805 24.6734 21.9676 25.0001 22.2313V1.26997C25.0001 0.566898 24.4261 0 23.7198 0H1.28476C0.578453 0 0.0045166 0.566898 0.0045166 1.26997V22.2313C0.326775 21.9632 0.741761 21.805 1.19647 21.805Z" fill="#005B47"/>
<path id="Vector_2" d="M21.4904 2.66297C21.4904 2.45646 21.3182 2.29383 21.0975 2.29383C20.8767 2.29383 20.7045 2.45639 20.7045 2.66297C20.7045 2.87389 20.8723 3.03211 21.0975 3.03211C21.3226 3.03652 21.4904 2.87396 21.4904 2.66297ZM19.8172 5.74784H22.4527V4.87339C22.4527 4.63609 22.4086 4.47787 22.3026 4.35044C22.1878 4.21419 22.0069 4.14393 21.7596 4.14393H19.8172V5.74784ZM14.7404 7.54517C14.6124 7.54517 14.4888 7.52761 14.3608 7.49241L14.2857 7.47485L14.4403 6.90795L14.5109 6.92551C14.6124 6.95189 14.6478 6.9563 14.7184 6.9563C14.9788 6.9563 15.0627 6.86841 15.0627 6.35869V3.2123H15.6586V5.74784H19.2168V3.20789H19.8128V3.55506H21.7552C22.2099 3.55506 22.5056 3.67374 22.7529 3.95492C22.9383 4.16583 23.0443 4.49102 23.0443 4.87773V6.34105H15.5968V6.37184C15.6189 6.82006 15.5351 7.14084 15.3496 7.33419C15.151 7.54517 14.8728 7.54517 14.7404 7.54517ZM13.7692 7.12334C13.7692 6.91684 13.6014 6.75861 13.3851 6.75861C13.1732 6.75861 13.0055 6.92117 13.0055 7.12334C13.0055 7.32985 13.1688 7.48366 13.3851 7.48366C13.6059 7.48366 13.7692 7.32985 13.7692 7.12334ZM12.692 7.12334C12.692 6.91684 12.5243 6.75861 12.3124 6.75861C12.1005 6.75861 11.9328 6.92117 11.9328 7.12334C11.9328 7.32985 12.0961 7.48366 12.3124 7.48366C12.5287 7.48366 12.692 7.32985 12.692 7.12334ZM9.35456 7.11012C9.35456 6.90361 9.1824 6.74539 8.96165 6.74539C8.74091 6.74539 8.56874 6.90795 8.56874 7.11012C8.56874 7.32103 8.73648 7.47925 8.96165 7.47925C9.18682 7.47925 9.35456 7.32544 9.35456 7.11012ZM3.64649 2.16647C3.64649 1.9643 3.47876 1.80615 3.26687 1.80615C3.05498 1.80615 2.88725 1.96437 2.88725 2.16647C2.88725 2.37298 3.05055 2.5312 3.26687 2.5312C3.48319 2.5312 3.64649 2.37298 3.64649 2.16647ZM4.71921 2.16647C4.71921 1.9643 4.55147 1.80615 4.33516 1.80615C4.12327 1.80615 3.95554 1.96437 3.95554 2.16647C3.95554 2.37298 4.11884 2.5312 4.33516 2.5312C4.5559 2.5312 4.71921 2.37298 4.71921 2.16647ZM3.68621 3.79677C3.14321 3.79677 2.56049 4.17031 2.56049 4.77675C2.56049 5.4491 3.12556 5.74791 3.68621 5.74791H4.04819V3.79677H3.68621ZM3.76565 6.33671C2.43683 6.33671 1.96448 5.49739 1.96448 4.77668C1.96448 3.85387 2.74587 3.20789 3.86717 3.20789H4.04819V2.93547H4.64413V5.74791H8.66582V3.20789H9.25741V5.74784H13.0054V3.20789H13.5881V6.33671H3.76565Z" fill="white"/>
<path id="Vector_3" d="M23.0443 8.3186H22.4484V12.9152H23.0443V8.3186ZM4.03498 10.3796V12.3307H3.673C3.11235 12.3307 2.54727 12.0319 2.54727 11.3595C2.54727 10.7575 3.13 10.3795 3.673 10.3795L4.03498 10.3796ZM17.9013 10.3796V12.3307H17.0272L17.0183 12.3263C16.6298 12.0978 16.4047 11.7462 16.4047 11.3507C16.4047 10.7179 16.9609 10.3795 17.4862 10.3795L17.9013 10.3796ZM9.69454 11.7506C9.69454 12.3615 9.22219 12.8229 8.59532 12.8229C8.00374 12.8229 7.53581 12.3527 7.53581 11.7506C7.53581 11.1442 7.99938 10.6696 8.59532 10.6696C9.23097 10.6696 9.69454 11.1266 9.69454 11.7506ZM9.80927 12.9283L9.81813 12.9195H21.3358V8.3186H20.7399V12.3263H18.4929V9.79075H17.6718C16.5416 9.79075 15.8132 10.4016 15.8132 11.3508C15.8132 11.7068 15.928 12.0187 16.1531 12.278L16.1973 12.3264H13.3719V9.79082H12.776V12.3307H10.1846L10.1978 12.2912C10.2552 12.1242 10.2861 11.944 10.2861 11.7595C10.2861 10.8059 9.55773 10.0808 8.59532 10.0808C7.66826 10.0808 6.94423 10.8191 6.94423 11.7595C6.94423 11.9397 6.97517 12.1198 7.0281 12.2912L7.04132 12.3307H4.63092V9.51825H4.03498V9.79068H3.85395C2.73266 9.79068 1.95126 10.4366 1.95126 11.3595C1.95126 12.1153 2.45012 12.9195 3.85395 12.9195H7.4033L7.41215 12.9283C7.72563 13.2447 8.14497 13.4205 8.59089 13.4205C9.05438 13.4161 9.50023 13.2403 9.80927 12.9283ZM18.3427 8.96017C18.3427 8.758 18.175 8.59985 17.9587 8.59985C17.7468 8.59985 17.579 8.75807 17.579 8.96017C17.579 9.16667 17.7424 9.3249 17.9587 9.3249C18.175 9.32497 18.3427 9.16675 18.3427 8.96017ZM17.27 8.96017C17.27 8.758 17.1023 8.59985 16.8904 8.59985C16.6785 8.59985 16.5108 8.75807 16.5108 8.96017C16.5108 9.16667 16.6741 9.3249 16.8904 9.3249C17.1066 9.32497 17.27 9.16675 17.27 8.96017ZM13.9546 13.7061C13.9546 13.4996 13.7869 13.3414 13.5706 13.3414C13.3587 13.3414 13.1909 13.504 13.1909 13.7061C13.1909 13.9126 13.3543 14.0664 13.5706 14.0664C13.7912 14.0665 13.9546 13.9127 13.9546 13.7061ZM12.8775 13.7061C12.8775 13.4996 12.7097 13.3414 12.4979 13.3414C12.286 13.3414 12.1182 13.504 12.1182 13.7061C12.1182 13.9126 12.2815 14.0664 12.4979 14.0664C12.7141 14.0665 12.8775 13.9083 12.8775 13.7061ZM3.63321 8.74484C3.63321 8.54267 3.46547 8.38452 3.25358 8.38452C3.0417 8.38452 2.87396 8.54275 2.87396 8.74484C2.87396 8.95135 3.03727 9.10957 3.25358 9.10957C3.4699 9.10964 3.63321 8.95583 3.63321 8.74484ZM4.32195 9.10964C4.10563 9.10964 3.94232 8.95142 3.94232 8.74492C3.94232 8.54275 4.11006 8.3846 4.32195 8.3846C4.53826 8.3846 4.706 8.54282 4.706 8.74492C4.706 8.95583 4.54262 9.10964 4.32195 9.10964Z" fill="white"/>
<path id="Vector_4" d="M23.0443 14.9014H22.4484V19.4979H23.0443V14.9014ZM11.7959 17.3051H13.6721C13.9194 17.3051 14.1047 17.3754 14.2151 17.5116C14.3166 17.639 14.3652 17.7972 14.3652 18.0345V18.909H11.7915V17.305H11.7959V17.3051ZM18.7975 18.3334C18.7975 18.9443 18.3251 19.4056 17.6982 19.4056C17.1066 19.4056 16.6387 18.9354 16.6387 18.3334C16.6387 17.727 17.1023 17.2524 17.6982 17.2524C18.3383 17.2524 18.7975 17.705 18.7975 18.3334ZM18.9167 19.5067L18.9255 19.4979H21.3359V14.9013H20.74V18.909H19.292L19.3052 18.8695C19.3626 18.7025 19.3935 18.5223 19.3935 18.3378C19.3935 17.3842 18.6651 16.6591 17.7027 16.6591C16.7757 16.6591 16.0516 17.3974 16.0516 18.3378C16.0516 18.518 16.0781 18.6981 16.1355 18.8695L16.1487 18.909H14.9612V18.0345C14.9612 17.6478 14.8597 17.3226 14.6698 17.1117C14.4226 16.8305 14.1268 16.7119 13.6721 16.7119H11.7959V16.3647H11.2V18.9047H9.76964V14.897H9.1737V19.4935H16.5108L16.5196 19.5023C16.8331 19.8187 17.2525 19.9945 17.6984 19.9945C18.1618 19.9989 18.6032 19.8187 18.9167 19.5067ZM13.4072 15.8242C13.4072 15.6177 13.235 15.4551 13.0143 15.4551C12.7936 15.4551 12.6214 15.6176 12.6214 15.8242C12.6214 16.0351 12.7891 16.1933 13.0143 16.1933C13.2395 16.1977 13.4072 16.0395 13.4072 15.8242ZM7.58434 15.5342C7.58434 15.3277 7.41217 15.1651 7.19143 15.1651C6.97068 15.1651 6.79852 15.3276 6.79852 15.5342C6.79852 15.7451 6.96626 15.9033 7.19143 15.9033C7.4166 15.9077 7.58434 15.7451 7.58434 15.5342ZM4.04821 16.958V18.9091H3.68623C3.12558 18.9091 2.56051 18.6103 2.56051 17.938C2.56051 17.3359 3.14323 16.958 3.68623 16.958H4.04821ZM7.68142 16.958V18.9091H6.8073L6.79845 18.9047C6.40996 18.6762 6.18479 18.3247 6.18479 17.9292C6.18479 17.459 6.56441 16.958 7.26637 16.958H7.68142ZM8.27743 19.4979V16.3691H7.45632C6.32617 16.3691 5.59778 16.98 5.59778 17.9292C5.59778 18.2851 5.71258 18.5971 5.93769 18.8564L5.98183 18.9047H4.64865V16.0923H4.04828V16.3647H3.86726C2.74596 16.3647 1.96457 17.0107 1.96457 17.9335C1.96457 18.6893 2.46342 19.4935 3.86726 19.4935H8.27743V19.4979ZM3.64651 15.3276C3.64651 15.1255 3.47878 14.9673 3.26689 14.9673C3.055 14.9673 2.88727 15.1255 2.88727 15.3276C2.88727 15.5341 3.05057 15.6924 3.26689 15.6924C3.48321 15.6924 3.64651 15.5342 3.64651 15.3276ZM4.33518 15.6924C4.11886 15.6924 3.95556 15.5341 3.95556 15.3276C3.95556 15.1255 4.12329 14.9673 4.33518 14.9673C4.55149 14.9673 4.71923 15.1255 4.71923 15.3276C4.71923 15.5342 4.55592 15.6924 4.33518 15.6924Z" fill="white"/>
<path id="Vector_5" d="M23.7198 32H1.28025C0.573936 32 0 31.4286 0 30.7256V23.7429C0 23.0398 0.573936 22.4685 1.28025 22.4685H23.7198C24.4261 22.4685 25 23.0398 25 23.7429V30.7256C25 31.4286 24.4261 32 23.7198 32Z" fill="#D4A007"/>
<path id="Vector_6" d="M5.49182 29.0074L7.00603 23.9319H9.12504C8.42308 26.0368 6.91331 30.5454 6.89566 30.5454H4.08799C4.07034 30.5454 2.56057 26.0368 1.85861 23.9319H3.97762L5.49182 29.0074Z" fill="white"/>
<path id="Vector_7" d="M23.1414 23.9319H16.1133L16.6431 25.448H18.8857V30.5411H20.9032V25.448H23.1414V23.9319Z" fill="white"/>
<path id="Vector_8" d="M16.0119 26.3532L15.7955 25.8875C14.6919 26.6082 12.8642 28.7702 12.8642 28.7702L12.1932 28.0187L11.9504 28.8361L11.9194 28.9548C12.1755 29.3195 12.873 30.5411 12.873 30.5411C14.4932 27.6188 16.0119 26.3532 16.0119 26.3532Z" fill="#005B47"/>
<path id="Vector_9" d="M12.6214 25.4655L13.31 27.7858C13.7294 27.3243 14.2857 26.7399 14.8155 26.2609C14.3784 24.9602 14.0296 23.9319 14.0208 23.9319H11.2132C11.1955 23.9319 9.68575 28.4405 8.9838 30.5454H11.1028L12.6214 25.4655Z" fill="white"/>
<path id="Vector_10" d="M13.8398 29.548L14.1356 30.5412H16.2546C15.9941 29.7678 15.6277 28.6692 15.2657 27.5881C14.8685 28.0627 14.3696 28.713 13.8398 29.548Z" fill="white"/>
</g>
</svg>
