<svg width="49" height="32" viewBox="0 0 49 32" fill="none" xmlns="http://www.w3.org/2000/svg">
<g id="Group">
<path id="Vector" d="M29.4196 0.586182H28.8679V1.1246H29.4196V0.586182Z" fill="#A8A7A9"/>
<path id="Vector_2" d="M40.8773 7.25659H40.3256V7.79501H40.8773V7.25659Z" fill="#A8A7A9"/>
<g id="Group_2">
<path id="Vector_3" d="M47.0199 6.68247C47.1548 6.62264 47.2651 6.52692 47.3448 6.41326C47.4245 6.29361 47.4858 6.15003 47.5226 5.98252C47.5594 5.81501 47.5716 5.62358 47.5716 5.41419V1.65723H47.0199V5.41419C47.0199 5.56375 47.0138 5.69537 46.9954 5.79707C46.977 5.90475 46.9525 5.9885 46.9157 6.05431C46.8789 6.12012 46.8237 6.16798 46.7563 6.19789C46.6889 6.2278 46.603 6.23977 46.4988 6.23977C46.4498 6.23977 46.4069 6.23977 46.3701 6.23378C46.3333 6.2278 46.2843 6.21584 46.2168 6.19789L46.0697 6.71238C46.223 6.75425 46.3701 6.7722 46.5172 6.7722C46.7195 6.77818 46.885 6.74827 47.0199 6.68247Z" fill="#A8A7A9"/>
<path id="Vector_4" d="M45.1256 0.705926H44.3716V0.580295C44.3716 0.514488 44.3838 0.460646 44.4145 0.424752C44.439 0.39484 44.5003 0.376892 44.5861 0.376892H44.9662V0H44.5739C44.3654 0 44.1999 0.0538417 44.0896 0.161525C43.9792 0.269209 43.9179 0.442699 43.9179 0.676013V1.11273H45.1256V0.705926Z" fill="#A8A7A9"/>
<path id="Vector_5" d="M39.7738 7.25659H39.222V7.79501H39.7738V7.25659Z" fill="#A8A7A9"/>
<path id="Vector_6" d="M30.5231 0.586182H29.9714V1.1246H30.5231V0.586182Z" fill="#A8A7A9"/>
<path id="Vector_7" d="M42.6428 4.87577C42.8512 5.01935 43.0964 5.12703 43.3723 5.19882C43.6482 5.27061 43.9363 5.30053 44.2489 5.30053H44.3961L44.58 4.92363V5.45607C44.58 5.73724 44.5003 5.94064 44.3348 6.06029C44.1692 6.17994 43.9363 6.23977 43.6359 6.23977C43.4643 6.23977 43.311 6.22182 43.1761 6.19191C43.0413 6.16199 42.888 6.10815 42.7102 6.03038L42.5386 6.54487C42.747 6.62264 42.937 6.67648 43.1026 6.71836C43.2681 6.75425 43.4275 6.77818 43.593 6.77818C44.1325 6.77818 44.5187 6.65255 44.7639 6.40727C45.0091 6.15601 45.1317 5.82698 45.1317 5.40223V1.65723H44.2489C43.9118 1.65723 43.5991 1.70509 43.3171 1.80081C43.0351 1.89653 42.796 2.02216 42.5999 2.18368C42.3976 2.34521 42.2443 2.54263 42.134 2.76996C42.0236 2.99729 41.9684 3.24257 41.9684 3.5058C41.9684 3.82287 42.0297 4.09207 42.1524 4.31941C42.2688 4.54674 42.4344 4.73219 42.6428 4.87577ZM42.6428 2.97336C42.7286 2.81183 42.839 2.67424 42.98 2.56057C43.121 2.44691 43.2803 2.35717 43.4581 2.29735C43.6298 2.23752 43.8137 2.20761 43.9976 2.20163H44.8865L44.5738 2.35717V4.76809H44.0221C43.8137 4.76809 43.6236 4.73818 43.4397 4.68433C43.2558 4.63049 43.0964 4.54674 42.9616 4.43905C42.8267 4.33137 42.7164 4.19976 42.6367 4.04422C42.557 3.88867 42.5202 3.7092 42.5202 3.5058C42.5202 3.30838 42.5631 3.13489 42.6428 2.97336Z" fill="#A8A7A9"/>
<path id="Vector_8" d="M29.015 6.70041H30.1614V6.29959C30.1736 6.31754 30.1859 6.33548 30.1981 6.35343C30.284 6.47308 30.3882 6.56282 30.5231 6.62264C30.6579 6.68246 30.8234 6.71836 31.0196 6.71836H41.0673V1.65723H40.5155V6.18592H39.9454H31.0441C30.9399 6.18592 30.8541 6.17396 30.7867 6.14405C30.7192 6.11413 30.6702 6.06628 30.6273 6.00047C30.5905 5.93466 30.5598 5.85091 30.5476 5.74322C30.5292 5.63554 30.5231 5.50991 30.5231 5.36035V1.65723H29.0334C27.513 1.65723 26.4709 2.83577 26.4709 4.18181V4.19378C26.4709 5.53982 27.4947 6.70041 29.015 6.70041ZM27.0594 4.16386C27.0594 3.05712 27.8747 2.16573 29.0211 2.16573H30.3085L29.9713 2.32726V5.35437C29.9713 5.56375 29.9897 5.75519 30.0204 5.9227C30.0388 6.01842 30.0694 6.10815 30.1062 6.19191H29.0334C27.887 6.19191 27.0594 5.28856 27.0594 4.17583V4.16386Z" fill="#A8A7A9"/>
<path id="Vector_9" d="M23.7122 5.37219L23.9513 5.98838L20.457 1.65112H19.9053V6.69431H20.4754V2.89547L20.1505 2.15963L23.8164 6.69431H24.2824V1.65112H23.7122V5.37219Z" fill="#A8A7A9"/>
<path id="Vector_10" d="M31.5591 14.7407L34.7346 11.7854V9.75732H26.2502V12.0665H30.6028L32.215 11.0555L28.1874 15.0039L28.6165 16.7149H29.7629C31.3077 16.7149 32.2212 17.2713 32.2212 18.2703V18.3062C32.2212 19.2155 31.4855 19.7899 30.4434 19.7899C29.1683 19.7899 28.2732 19.2634 27.4088 18.3242L25.5084 20.089C26.5874 21.3273 28.1445 22.2068 30.4066 22.2068C33.2082 22.2068 34.9308 20.5137 34.9308 18.2045V18.1686C34.9369 15.8953 33.2633 15.0219 31.5591 14.7407Z" fill="#A8A7A9"/>
<path id="Vector_11" d="M16.319 1.56738C14.7435 1.56738 13.6707 2.78182 13.6707 4.17572V4.18769C13.6707 5.57561 14.7251 6.77808 16.3006 6.77808C17.8761 6.77808 18.949 5.56364 18.949 4.16974V4.15777C18.9551 2.76985 17.8945 1.56738 16.319 1.56738ZM18.3482 4.18769C18.3482 5.33033 17.5083 6.25162 16.3252 6.25162C15.142 6.25162 14.2838 5.31836 14.2838 4.16974V4.15777C14.2838 3.01513 15.1236 2.09384 16.3068 2.09384C17.4899 2.09384 18.3482 3.0271 18.3482 4.17572V4.18769Z" fill="#A8A7A9"/>
<path id="Vector_12" d="M42.3424 9.55396C38.468 9.55396 35.6481 12.4016 35.6481 15.8834V15.9193C35.6481 19.395 38.4313 22.2128 42.3056 22.2128C46.18 22.2128 49 19.3651 49 15.8834V15.8475C49 12.3657 46.2168 9.55396 42.3424 9.55396ZM46.1126 15.9133C46.1126 18.0131 44.5677 19.7241 42.3424 19.7241C40.1171 19.7241 38.5355 17.9772 38.5355 15.8774V15.8415C38.5355 13.7417 40.0803 12.0307 42.3056 12.0307C44.531 12.0307 46.1126 13.7775 46.1126 15.8774V15.9133Z" fill="#A8A7A9"/>
<path id="Vector_13" d="M12.6653 1.65112H12.0829V6.68832H12.6653V1.65112Z" fill="#A8A7A9"/>
<path id="Vector_14" d="M2.70347 20.5975L3.23681 20.1967L5.98321 18.1327C8.20854 16.4577 9.28748 15.4407 9.28748 13.3947V13.3648C9.28748 11.0735 7.56485 9.58984 4.95944 9.58984C2.71573 9.58984 1.51418 10.4812 0.275844 12.1264L2.21304 13.6459C3.14485 12.5272 3.81306 12.0008 4.78166 12.0008C5.76865 12.0008 6.46751 12.5571 6.46751 13.5921C6.46751 14.6031 5.85448 15.2672 4.29736 16.5295L0.116455 19.8677V21.9974H9.41009V19.6702H4.62227L2.70347 20.5975Z" fill="#A8A7A9"/>
<path id="Vector_15" d="M2.7464 6.7302L4.96559 1.65112H4.3403L2.58088 5.78498L2.63606 6.33536L2.49506 5.99436L0.968597 2.40491L0.649818 1.65112H0L2.22532 6.7302H2.7464Z" fill="#A8A7A9"/>
<path id="Vector_16" d="M6.3449 1.65112H5.76251V6.68832H6.3449V1.65112Z" fill="#A8A7A9"/>
<path id="Vector_17" d="M9.43466 3.90053C8.29441 3.66123 8.03081 3.398 8.03081 2.91941V2.90745C8.03081 2.45278 8.45993 2.09383 9.13427 2.09383C9.66761 2.09383 10.1458 2.26134 10.6301 2.63824L10.9673 2.20152C10.44 1.78873 9.90057 1.57935 9.14653 1.57935C8.16568 1.57935 7.44842 2.15964 7.44842 2.9553V2.96727C7.44842 3.79284 7.99402 4.16974 9.18332 4.421C10.2684 4.64235 10.5259 4.91156 10.5259 5.37819V5.39015C10.5259 5.88669 10.0661 6.24564 9.37336 6.24564C8.6561 6.24564 8.14115 6.00634 7.60168 5.53373L7.23999 5.9525C7.85916 6.49092 8.5335 6.76013 9.35497 6.76013C10.3849 6.76013 11.1205 6.19778 11.1205 5.33631V5.32434C11.1205 4.55261 10.5872 4.14581 9.43466 3.90053Z" fill="#A8A7A9"/>
<path id="Vector_18" d="M16.9198 8.74634L17.5574 9.3386L16.9444 9.96077L16.3129 9.36851L16.9198 8.74634Z" fill="#39457C"/>
<path id="Vector_19" d="M18.3788 9.36851L19.0164 9.96077L19.6233 9.3386L18.9858 8.74634L18.3788 9.36851Z" fill="#ACACAE"/>
<path id="Vector_20" d="M17.4838 10.1461L17.9743 10.6127L18.4524 10.1281L17.9559 9.66748L17.4838 10.1461Z" fill="#CDD542"/>
<path id="Vector_21" d="M19.2984 10.4095L19.795 10.8761L20.267 10.3916L19.7704 9.93091L19.2984 10.4095Z" fill="#77B750"/>
<path id="Vector_22" d="M16.6746 10.8819L17.165 11.3485L17.6432 10.864L17.1466 10.4033L16.6746 10.8819Z" fill="#CDD542"/>
<path id="Vector_23" d="M18.3359 10.9419L18.8264 11.4025L19.3045 10.9239L18.808 10.4573L18.3359 10.9419Z" fill="#39B5BC"/>
<path id="Vector_24" d="M17.6861 11.4982L18.0294 11.8213L18.3666 11.4803L18.0171 11.1572L17.6861 11.4982Z" fill="#77B750"/>
<path id="Vector_25" d="M18.998 11.7496L19.3474 12.0786L19.6785 11.7376L19.3352 11.4146L18.998 11.7496Z" fill="#61B362"/>
<path id="Vector_26" d="M22.9465 8.97647L21.8671 9.16943L22.0649 10.2227L23.1442 10.0298L22.9465 8.97647Z" fill="#3A89C8"/>
<path id="Vector_27" d="M21.3245 9.45325L20.4562 9.6084L20.6152 10.4557L21.4835 10.3006L21.3245 9.45325Z" fill="#344773"/>
<path id="Vector_28" d="M22.9999 10.6329L22.1316 10.7883L22.2908 11.6357L23.1591 11.4803L22.9999 10.6329Z" fill="#39B5BC"/>
<path id="Vector_29" d="M20.9413 10.9119L21.064 11.57L21.7383 11.4503L21.6157 10.7922L20.9413 10.9119Z" fill="#CDD542"/>
<path id="Vector_30" d="M22.9258 12.0414L22.2504 12.1621L22.3741 12.8212L23.0494 12.7005L22.9258 12.0414Z" fill="#ACACAE"/>
<path id="Vector_31" d="M20.6026 11.06L19.9272 11.1807L20.0509 11.8397L20.7262 11.719L20.6026 11.06Z" fill="#39B5BC"/>
<path id="Vector_32" d="M21.8286 11.9213L21.1533 12.042L21.2769 12.701L21.9523 12.5804L21.8286 11.9213Z" fill="#77B750"/>
<path id="Vector_33" d="M20.7713 12.0331L20.2949 12.1184L20.3823 12.5833L20.8586 12.498L20.7713 12.0331Z" fill="#ACACAE"/>
<path id="Vector_34" d="M21.6797 12.9907L21.2033 13.0757L21.2904 13.5406L21.7668 13.4556L21.6797 12.9907Z" fill="#61B362"/>
<path id="Vector_35" d="M25.0854 12.6169L24.6134 13.5861L25.6065 14.0467L26.0786 13.0776L25.0854 12.6169Z" fill="#39457C"/>
<path id="Vector_36" d="M23.6755 12.1743L23.2954 12.946L24.0924 13.317L24.4724 12.5392L23.6755 12.1743Z" fill="#39B5BC"/>
<path id="Vector_37" d="M24.3253 14.0825L23.9452 14.8602L24.7421 15.2252L25.1222 14.4534L24.3253 14.0825Z" fill="#77B750"/>
<path id="Vector_38" d="M23.2832 13.5024L22.9889 14.1067L23.6081 14.3938L23.9023 13.7896L23.2832 13.5024Z" fill="#CDD542"/>
<path id="Vector_39" d="M23.5958 15.2612L23.3015 15.8655L23.9207 16.1526L24.2149 15.5484L23.5958 15.2612Z" fill="#CDD542"/>
<path id="Vector_40" d="M22.3023 13.1433L22.008 13.7475L22.6272 14.0347L22.9214 13.4305L22.3023 13.1433Z" fill="#3A89C8"/>
<path id="Vector_41" d="M22.7805 14.5374L22.4862 15.1416L23.1054 15.4287L23.3996 14.8245L22.7805 14.5374Z" fill="#ACACAE"/>
<path id="Vector_42" d="M22.0325 14.1125L21.8241 14.5373L22.2594 14.7407L22.4678 14.316L22.0325 14.1125Z" fill="#77B750"/>
<path id="Vector_43" d="M22.1994 15.4104L21.9912 15.8372L22.4285 16.0403L22.6366 15.6136L22.1994 15.4104Z" fill="#39B5BC"/>
<path id="Vector_44" d="M25.6188 17.2473L24.6563 17.7618L25.1835 18.701L26.146 18.1866L25.6188 17.2473Z" fill="#3A89C8"/>
<path id="Vector_45" d="M24.7422 16.0808L23.9697 16.4936L24.3927 17.2474L25.1651 16.8346L24.7422 16.0808Z" fill="#39B5BC"/>
<path id="Vector_46" d="M24.123 18.0012L23.3506 18.414L23.7736 19.1678L24.546 18.755L24.123 18.0012Z" fill="#39B5BC"/>
<path id="Vector_47" d="M23.6264 16.9363L23.0256 17.2593L23.3567 17.8456L23.9575 17.5226L23.6264 16.9363Z" fill="#39457C"/>
<path id="Vector_48" d="M22.8234 18.5454L22.2226 18.8685L22.5536 19.4547L23.1544 19.1317L22.8234 18.5454Z" fill="#61B362"/>
<path id="Vector_49" d="M23.0502 16.0867L22.4494 16.4097L22.7743 16.996L23.3812 16.6729L23.0502 16.0867Z" fill="#344773"/>
<path id="Vector_50" d="M22.5965 17.4927L21.9957 17.8157L22.3268 18.396L22.9275 18.079L22.5965 17.4927Z" fill="#CDD542"/>
<path id="Vector_51" d="M22.2471 16.7209L21.8241 16.9483L22.0571 17.3611L22.48 17.1337L22.2471 16.7209Z" fill="#ACACAE"/>
<path id="Vector_52" d="M21.6034 17.8635L21.1804 18.0909L21.4134 18.5036L21.8364 18.2763L21.6034 17.8635Z" fill="#39B5BC"/>
<path id="Vector_53" d="M22.1813 21.1746L22.0466 22.2373L23.1356 22.3687L23.2703 21.306L22.1813 21.1746Z" fill="#77B750"/>
<path id="Vector_54" d="M22.3895 19.7545L22.2809 20.6094L23.157 20.7153L23.2656 19.8604L22.3895 19.7545Z" fill="#344773"/>
<path id="Vector_55" d="M20.7315 20.9586L20.6229 21.8135L21.499 21.9194L21.6076 21.0645L20.7315 20.9586Z" fill="#39B5BC"/>
<path id="Vector_56" d="M21.1594 19.839L21.0752 20.5039L21.7566 20.5861L21.8408 19.9212L21.1594 19.839Z" fill="#77B750"/>
<path id="Vector_57" d="M19.5448 20.6866L19.4606 21.3516L20.142 21.4338L20.2262 20.7688L19.5448 20.6866Z" fill="#ACACAE"/>
<path id="Vector_58" d="M21.2046 18.8146L21.1202 19.4795L21.8016 19.5619L21.886 18.897L21.2046 18.8146Z" fill="#ACACAE"/>
<path id="Vector_59" d="M19.9917 19.6981L19.9073 20.363L20.5887 20.4455L20.6731 19.7805L19.9917 19.6981Z" fill="#77B750"/>
<path id="Vector_60" d="M20.3756 18.9035L20.3162 19.3726L20.7968 19.4305L20.8563 18.9615L20.3756 18.9035Z" fill="#ACACAE"/>
<path id="Vector_61" d="M19.1691 19.4589L19.1097 19.928L19.5904 19.9859L19.6498 19.5169L19.1691 19.4589Z" fill="#ACACAE"/>
<path id="Vector_62" d="M18.9306 23.2596L18.1214 22.5298L17.3796 23.3195L18.1827 24.0433L18.9306 23.2596Z" fill="#CDD542"/>
<path id="Vector_63" d="M18.7834 8.2677L17.9742 7.53784L17.2263 8.32154L18.0355 9.05139L18.7834 8.2677Z" fill="#77B750"/>
<path id="Vector_64" d="M19.7888 22.087L19.1451 21.5007L18.5444 22.1289L19.1881 22.7152L19.7888 22.087Z" fill="#39B5BC"/>
<path id="Vector_65" d="M17.7229 22.1169L17.0792 21.5366L16.4784 22.1648L17.1221 22.7451L17.7229 22.1169Z" fill="#77B750"/>
<path id="Vector_66" d="M18.6057 21.3214L18.103 20.8667L17.6371 21.3573L18.1398 21.8119L18.6057 21.3214Z" fill="#3A89C8"/>
<path id="Vector_67" d="M16.7849 21.088L16.2823 20.6333L15.8163 21.1239L16.319 21.5785L16.7849 21.088Z" fill="#CDD542"/>
<path id="Vector_68" d="M19.2494 20.5196L18.7467 20.0649L18.2808 20.5555L18.7835 21.0102L19.2494 20.5196Z" fill="#CDD542"/>
<path id="Vector_69" d="M17.7413 20.5435L17.2386 20.0889L16.7727 20.5794L17.2754 21.0341L17.7413 20.5435Z" fill="#ACACAE"/>
<path id="Vector_70" d="M18.3788 19.9753L18.0233 19.6582L17.6984 20.0052L18.0539 20.3223L18.3788 19.9753Z" fill="#344773"/>
<path id="Vector_71" d="M17.0608 19.7421L16.7052 19.425L16.3803 19.766L16.7359 20.0891L17.0608 19.7421Z" fill="#ACACAE"/>
<path id="Vector_72" d="M14.0195 21.3213L12.9436 21.5317L13.1592 22.5817L14.2352 22.3713L14.0195 21.3213Z" fill="#3A89C8"/>
<path id="Vector_73" d="M15.4624 21.0662L14.5968 21.2354L14.7702 22.08L15.6357 21.9108L15.4624 21.0662Z" fill="#39B5BC"/>
<path id="Vector_74" d="M13.7722 19.9184L12.9066 20.0879L13.0803 20.9326L13.9458 20.7631L13.7722 19.9184Z" fill="#77B750"/>
<path id="Vector_75" d="M15.1359 20.6153L15.001 19.9573L14.3267 20.0889L14.4615 20.747L15.1359 20.6153Z" fill="#CDD542"/>
<path id="Vector_76" d="M16.0054 19.6768L15.3322 19.8083L15.467 20.4653L16.1402 20.3337L16.0054 19.6768Z" fill="#39457C"/>
<path id="Vector_77" d="M14.7667 18.8328L14.0934 18.9644L14.2283 19.6213L14.9015 19.4897L14.7667 18.8328Z" fill="#3A89C8"/>
<path id="Vector_78" d="M15.666 18.9326L15.1911 19.0254L15.2862 19.4888L15.761 19.396L15.666 18.9326Z" fill="#77B750"/>
<path id="Vector_79" d="M14.7399 17.9934L14.2651 18.0864L14.3604 18.5498L14.8352 18.4568L14.7399 17.9934Z" fill="#ACACAE"/>
<path id="Vector_80" d="M10.9611 18.9762L11.4209 18.0011L10.4155 17.5583L9.96185 18.5275L10.9611 18.9762Z" fill="#39B5BC"/>
<path id="Vector_81" d="M12.3772 19.4009L12.7451 18.6172L11.942 18.2583L11.5742 19.042L12.3772 19.4009Z" fill="#CDD542"/>
<path id="Vector_82" d="M11.6968 17.4985L12.0584 16.7148L11.2554 16.3618L10.8937 17.1455L11.6968 17.4985Z" fill="#3A89C8"/>
<path id="Vector_83" d="M12.4074 17.1731L12.1225 17.7827L12.7472 18.0607L13.0321 17.451L12.4074 17.1731Z" fill="#39B5BC"/>
<path id="Vector_84" d="M13.5849 19.5866L13.8669 18.9764L13.2416 18.7012L12.9596 19.3054L13.5849 19.5866Z" fill="#ACACAE"/>
<path id="Vector_85" d="M12.067 15.419L11.782 16.0286L12.4067 16.3067L12.6917 15.6971L12.067 15.419Z" fill="#39457C"/>
<path id="Vector_86" d="M13.3977 17.5208L13.1127 18.1304L13.7373 18.4085L14.0223 17.7989L13.3977 17.5208Z" fill="#61B362"/>
<path id="Vector_87" d="M12.8957 16.1344L12.6105 16.7439L13.2351 17.0222L13.5203 16.4128L12.8957 16.1344Z" fill="#CDD542"/>
<path id="Vector_88" d="M13.9895 17.4327L14.1857 17.002L13.7504 16.8105L13.5481 17.2353L13.9895 17.4327Z" fill="#344773"/>
<path id="Vector_89" d="M13.7994 16.1405L14.0017 15.7097L13.5603 15.5183L13.358 15.9431L13.7994 16.1405Z" fill="#77B750"/>
<path id="Vector_90" d="M10.348 14.3518L11.3044 13.8253L10.7588 12.8921L9.80243 13.4245L10.348 14.3518Z" fill="#39B5BC"/>
<path id="Vector_91" d="M11.2431 15.5065L12.0094 15.0818L11.5742 14.334L10.8079 14.7587L11.2431 15.5065Z" fill="#77B750"/>
<path id="Vector_92" d="M11.8316 13.5742L12.5979 13.1494L12.1565 12.4016L11.3902 12.8264L11.8316 13.5742Z" fill="#344773"/>
<path id="Vector_93" d="M12.3465 14.633L12.9412 14.3039L12.5979 13.7236L12.0032 14.0527L12.3465 14.633Z" fill="#3A89C8"/>
<path id="Vector_94" d="M13.119 13.0119L13.7136 12.6828L13.3764 12.1025L12.7818 12.4316L13.119 13.0119Z" fill="#77B750"/>
<path id="Vector_95" d="M12.9351 15.4766L13.5358 15.1416L13.1925 14.5613L12.5979 14.8963L12.9351 15.4766Z" fill="#39B5BC"/>
<path id="Vector_96" d="M13.3642 14.0647L13.965 13.7297L13.6217 13.1494L13.027 13.4844L13.3642 14.0647Z" fill="#CDD542"/>
<path id="Vector_97" d="M13.732 14.8244L14.1489 14.5971L13.9098 14.1843L13.4868 14.4176L13.732 14.8244Z" fill="#ACACAE"/>
<path id="Vector_98" d="M14.3512 13.6699L14.7742 13.4366L14.5351 13.0298L14.1121 13.2631L14.3512 13.6699Z" fill="#77B750"/>
<path id="Vector_99" d="M12.744 9.19379L12.6273 10.2585L13.7184 10.3724L13.835 9.30762L12.744 9.19379Z" fill="#77B750"/>
<path id="Vector_100" d="M12.7524 10.8429L12.6584 11.6995L13.5362 11.7911L13.6301 10.9346L12.7524 10.8429Z" fill="#ACACAE"/>
<path id="Vector_101" d="M14.3859 9.61585L14.2919 10.4724L15.1697 10.5641L15.2636 9.70751L14.3859 9.61585Z" fill="#39B5BC"/>
<path id="Vector_102" d="M14.149 10.9544L14.0759 11.6206L14.7586 11.692L14.8317 11.0258L14.149 10.9544Z" fill="#CDD542"/>
<path id="Vector_103" d="M15.7511 10.0809L15.6782 10.7471L16.3609 10.8182L16.4338 10.152L15.7511 10.0809Z" fill="#3A89C8"/>
<path id="Vector_104" d="M14.1291 11.9786L14.0559 12.6448L14.7386 12.7162L14.8118 12.05L14.1291 11.9786Z" fill="#39B5BC"/>
<path id="Vector_105" d="M15.3217 11.0774L15.2485 11.7437L15.9312 11.8151L16.0044 11.1489L15.3217 11.0774Z" fill="#77B750"/>
<path id="Vector_106" d="M15.1371 12.0962L15.0856 12.5662L15.5672 12.6164L15.6187 12.1465L15.1371 12.0962Z" fill="#344773"/>
<path id="Vector_107" d="M16.3324 11.5183L16.2811 11.9883L16.7627 12.0383L16.814 11.5684L16.3324 11.5183Z" fill="#ACACAE"/>
<path id="Vector_108" d="M21.4686 16.4517C21.3889 16.4038 21.2356 16.332 21.0333 16.2662C20.739 16.1765 20.3222 16.1047 19.8317 16.1825C19.6662 16.2064 19.4946 16.2483 19.3107 16.3141C19.2923 16.3201 19.2739 16.3261 19.2616 16.332C19.1697 16.3679 19.0777 16.4038 18.9858 16.4517C18.9061 16.4876 18.8325 16.5354 18.7528 16.5773C18.575 16.679 18.4034 16.7987 18.2317 16.9243C18.0417 15.7817 18.1336 14.7228 18.1765 14.2023C18.1765 14.2023 18.1827 14.1963 18.1827 14.2023C18.5995 14.4536 18.4831 15.1655 18.3911 15.3689C18.3911 15.3748 18.3972 15.3748 18.3972 15.3748C18.9122 14.7826 18.6608 14.1245 18.5566 13.957C18.5566 13.951 18.5566 13.951 18.5628 13.951C18.6363 14.0109 18.6976 14.0707 18.7467 14.1365C18.9061 14.3339 18.9674 14.5493 18.9796 14.7407C18.9858 14.8424 18.9858 14.9321 18.9796 15.0159C18.9796 15.0398 18.9735 15.0578 18.9735 15.0757C18.9735 15.0817 18.9735 15.0817 18.9796 15.0817C19.1206 14.8125 19.1881 14.4117 18.9796 14.0168C18.9245 13.9092 18.8448 13.8075 18.7467 13.7058C18.716 13.6758 18.6854 13.6459 18.6547 13.616C18.6486 13.616 18.6547 13.61 18.6608 13.61C18.6915 13.616 18.7221 13.628 18.7528 13.634C18.8386 13.6639 18.9183 13.7057 18.9858 13.7536C19.1451 13.8673 19.2494 14.0228 19.3107 14.1843C19.3658 14.316 19.3904 14.4536 19.3842 14.5792C19.3842 14.5852 19.3904 14.5852 19.3904 14.5792C19.4884 14.2322 19.4271 13.969 19.3045 13.7775C19.2187 13.6399 19.0961 13.5382 18.9796 13.4724C18.8999 13.4246 18.8141 13.3887 18.7467 13.3707C18.7038 13.3588 18.667 13.3528 18.6363 13.3468C18.6302 13.3468 18.6302 13.3408 18.6363 13.3408C18.6731 13.3348 18.7099 13.3348 18.7467 13.3348C18.8325 13.3348 18.9122 13.3408 18.9796 13.3528C19.1206 13.3767 19.2248 13.4246 19.3045 13.4784C19.4333 13.5622 19.5007 13.6639 19.5252 13.7058C19.5252 13.7117 19.5314 13.7058 19.5314 13.7058C19.513 13.5203 19.4271 13.3767 19.3045 13.275C19.2126 13.1972 19.0961 13.1374 18.9796 13.1075C18.8999 13.0896 18.8202 13.0776 18.7467 13.0776C18.6425 13.0776 18.5382 13.0955 18.4524 13.1314C18.4463 13.1314 18.4463 13.1314 18.4463 13.1255C18.5198 13.0178 18.6302 12.952 18.7467 12.9221C18.8264 12.8981 18.9061 12.8921 18.9796 12.8921C19.0532 12.8981 19.1206 12.9101 19.1697 12.934C19.1758 12.934 19.1758 12.928 19.1758 12.928C19.1145 12.8622 19.0532 12.8084 18.9796 12.7725C18.9061 12.7306 18.8264 12.7067 18.7467 12.7007C18.5382 12.6768 18.3237 12.7665 18.1827 12.9759H18.1765C18.152 12.928 18.1214 12.8742 18.0969 12.8204C18.0417 12.6947 17.9926 12.5452 17.9681 12.4076C17.9681 12.4016 17.962 12.4016 17.962 12.4076C17.9375 12.5511 17.8884 12.6947 17.8332 12.8263C17.8087 12.8802 17.7842 12.934 17.7536 12.9819H17.7474C17.5022 12.6169 17.0363 12.6229 16.7543 12.94C16.7543 12.946 16.7543 12.946 16.7604 12.946C16.9505 12.8562 17.306 12.8862 17.4838 13.1314C17.4838 13.1374 17.4838 13.1374 17.4777 13.1374C17.2018 13.0238 16.7788 13.0955 16.552 13.3588C16.4723 13.4545 16.4171 13.5741 16.3987 13.7117C16.3987 13.7177 16.4049 13.7177 16.4049 13.7117C16.4233 13.6818 16.4662 13.61 16.5459 13.5382C16.6807 13.4246 16.9076 13.3109 17.2938 13.3408C17.2999 13.3408 17.2999 13.3468 17.2938 13.3468C17.0976 13.3707 16.693 13.5382 16.5459 13.9331C16.4784 14.1066 16.4662 14.3219 16.5397 14.5852C16.5397 14.5911 16.5459 14.5911 16.5459 14.5852C16.5459 14.5792 16.5459 14.5732 16.5459 14.5672C16.552 14.2143 16.7604 13.7357 17.2693 13.616C17.2754 13.616 17.2754 13.622 17.2754 13.622C16.6991 14.1185 16.7543 14.7228 16.9443 15.0817C16.9443 15.0877 16.9505 15.0817 16.9505 15.0817C16.926 14.8125 16.9076 14.3279 17.3673 13.957C17.3735 13.957 17.3735 13.957 17.3735 13.963C17.2693 14.1305 17.0179 14.7886 17.5329 15.3808C17.5329 15.3868 17.5451 15.3808 17.539 15.3748C17.4532 15.1714 17.3367 14.4595 17.7474 14.2083H17.7536C17.7965 14.7287 17.8945 15.7876 17.6984 16.9303C17.3673 16.679 17.0118 16.4636 16.6685 16.332C16.6256 16.3141 16.5827 16.3021 16.5397 16.2902C16.178 16.1765 15.8531 16.1406 15.565 16.1526C15.1052 16.1705 14.7497 16.3081 14.5596 16.3978C14.5228 16.4158 14.4861 16.4337 14.4615 16.4517C14.4493 16.4577 14.4615 16.4696 14.4677 16.4696C14.4983 16.4577 14.529 16.4517 14.5596 16.4457C14.9152 16.35 15.2462 16.3201 15.565 16.35C15.9083 16.3799 16.2332 16.4696 16.5397 16.6072C16.9627 16.7927 17.3489 17.0619 17.6984 17.3431C17.2079 17.7618 16.7911 18.1686 16.5397 18.3122C16.5275 18.3182 16.5152 18.3242 16.503 18.3302C16.4417 18.2524 16.3374 18.2045 16.221 18.2285C16.1229 18.2524 16.037 18.3302 16.0187 18.4259C16.0003 18.5096 16.0187 18.6054 16.0738 18.6532C16.2087 18.7848 16.362 18.7908 16.5397 18.719C16.883 18.5814 17.306 18.1387 17.821 17.6781C17.8639 17.6422 17.9068 17.6003 17.9559 17.5644C17.9988 17.6003 18.0417 17.6422 18.0846 17.6781C18.3175 17.8875 18.5382 18.0909 18.7344 18.2703C18.8141 18.3421 18.8938 18.4079 18.9674 18.4678C19.0838 18.5575 19.1942 18.6353 19.2923 18.6891C19.4884 18.7908 19.6662 18.8028 19.8134 18.6771C19.8195 18.6712 19.8317 18.6652 19.8379 18.6592C19.8747 18.6233 19.9114 18.5156 19.893 18.4319C19.8808 18.384 19.8563 18.3361 19.8134 18.3003C19.7766 18.2703 19.7337 18.2464 19.6846 18.2344C19.5681 18.2105 19.4639 18.2584 19.4026 18.3361C19.3658 18.3182 19.3291 18.2943 19.2923 18.2703C19.2003 18.2105 19.09 18.1208 18.9674 18.0131C18.8938 17.9473 18.8141 17.8815 18.7344 17.8097C18.575 17.6661 18.3972 17.5106 18.2133 17.349C18.3788 17.2114 18.5566 17.0858 18.7344 16.9602C18.808 16.9123 18.8877 16.8585 18.9674 16.8166C19.0716 16.7568 19.1819 16.697 19.2923 16.6431C19.4578 16.5653 19.6294 16.4995 19.8134 16.4517C20.1873 16.35 20.5858 16.3141 21.0149 16.3799C21.1559 16.4038 21.2969 16.4337 21.444 16.4756C21.4747 16.4696 21.4808 16.4577 21.4686 16.4517Z" fill="#757D82"/>
<path id="Vector_109" d="M2.88124 28.1113H2.55634V28.4284H2.88124V28.1113Z" fill="#A8A7A9"/>
<path id="Vector_110" d="M24.3437 27.7464V25.6646H24.031V27.4413H22.8417V25.6646H22.5291V27.4413H21.2724V25.6646H20.7758C20.5796 25.6646 20.4018 25.6885 20.2363 25.7423C20.0769 25.7962 19.9421 25.868 19.8256 25.9637C19.7152 26.0594 19.6233 26.1671 19.562 26.2987C19.5007 26.4243 19.47 26.5679 19.47 26.7115C19.47 26.8909 19.5068 27.0465 19.5742 27.1781C19.6478 27.3097 19.7398 27.4174 19.8562 27.5012C19.9727 27.5849 20.1137 27.6507 20.2731 27.6866C20.4325 27.7285 20.598 27.7464 20.7697 27.7464H24.3437ZM20.3099 27.3875C20.2057 27.3516 20.1137 27.3037 20.0402 27.2439C19.9605 27.1841 19.8992 27.1063 19.8562 27.0106C19.8133 26.9209 19.7888 26.8192 19.7888 26.6995C19.7888 26.5918 19.8133 26.4901 19.8624 26.4004C19.9114 26.3107 19.9727 26.2329 20.0585 26.1671C20.1382 26.1013 20.2302 26.0534 20.3344 26.0175C20.4386 25.9816 20.5428 25.9637 20.6471 25.9637H20.9597V27.4354H20.6471C20.5245 27.4354 20.4141 27.4234 20.3099 27.3875Z" fill="#A8A7A9"/>
<path id="Vector_111" d="M17.9129 24.9885H17.6003V27.7464H17.9129V24.9885Z" fill="#A8A7A9"/>
<path id="Vector_112" d="M21.2724 24.9885H20.9474V25.3056H21.2724V24.9885Z" fill="#A8A7A9"/>
<path id="Vector_113" d="M24.3498 28.1055H24.0249V28.4225H24.3498V28.1055Z" fill="#A8A7A9"/>
<path id="Vector_114" d="M3.433 28.1055H3.10809V28.4225H3.433V28.1055Z" fill="#A8A7A9"/>
<path id="Vector_115" d="M16.3681 27.4355H15.8531C15.6692 27.4355 15.5221 27.4115 15.4179 27.3577C15.3137 27.3039 15.2278 27.2321 15.1665 27.1244C15.1849 27.0466 15.1972 26.9509 15.1972 26.8372V25.8441H14.8846V26.8851C14.8846 27.0646 14.8355 27.2021 14.7374 27.3098C14.6393 27.4175 14.4922 27.4714 14.296 27.4714C14.2041 27.4714 14.1183 27.4594 14.0447 27.4295C13.9711 27.3996 13.9037 27.3637 13.8485 27.3158C13.7933 27.268 13.7504 27.2081 13.7198 27.1423C13.6891 27.0765 13.6707 27.0047 13.6707 26.9329V25.8441H13.3581V26.909C13.3581 27.0047 13.3458 27.0825 13.3152 27.1483C13.2845 27.2141 13.2477 27.268 13.1987 27.3098C13.1497 27.3517 13.0945 27.3816 13.027 27.3996C12.9657 27.4175 12.8983 27.4295 12.8247 27.4295H12.2117V25.8441H11.8991V27.4295H10.2439L10.7956 26.1433C10.7098 26.0715 10.6239 26.0057 10.5259 25.9399C10.4339 25.88 10.3358 25.8202 10.2316 25.7723C10.1335 25.7245 10.0293 25.6886 9.92508 25.6587C9.82087 25.6348 9.72278 25.6168 9.61857 25.6168C9.51435 25.6168 9.41627 25.6288 9.31205 25.6587C9.20783 25.6886 9.10975 25.7245 9.00553 25.7664C8.90745 25.8142 8.80936 25.8681 8.71127 25.9339C8.61932 25.9997 8.53349 26.0655 8.44767 26.1373L9.00553 27.4235H7.91433V25.6467H7.41164C7.21546 25.6467 7.03768 25.6706 6.8783 25.7245C6.71891 25.7783 6.57791 25.8501 6.46756 25.9458C6.35108 26.0416 6.26526 26.1492 6.20395 26.2809C6.14265 26.4125 6.112 26.5501 6.112 26.6996C6.112 26.8791 6.14878 27.0346 6.21622 27.1663C6.28365 27.2979 6.38173 27.3996 6.49821 27.4833C6.61469 27.5671 6.75569 27.6269 6.91508 27.6688C7.07447 27.7107 7.23999 27.7286 7.41777 27.7286H7.60781V27.8183C7.60781 27.9799 7.55876 28.0935 7.46681 28.1653C7.37485 28.2371 7.23999 28.267 7.06834 28.267C6.97025 28.267 6.88442 28.261 6.80473 28.2431C6.72504 28.2251 6.63921 28.1952 6.54112 28.1534L6.44304 28.4465C6.56565 28.4884 6.66986 28.5243 6.76182 28.5422C6.85377 28.5661 6.95186 28.5721 7.04381 28.5721C7.35033 28.5721 7.57716 28.5003 7.71202 28.3568C7.85302 28.2132 7.92046 28.0217 7.92046 27.7824V27.7226H12.8186C12.9719 27.7226 13.1067 27.6927 13.2294 27.6269C13.3458 27.5611 13.4439 27.4773 13.5175 27.3697C13.591 27.4953 13.6953 27.591 13.8301 27.6568C13.9589 27.7286 14.1183 27.7585 14.3022 27.7585C14.4922 27.7585 14.6516 27.7286 14.7865 27.6628C14.9213 27.597 15.0194 27.5013 15.093 27.3697C15.1175 27.4115 15.1543 27.4534 15.1911 27.5013C15.2279 27.5431 15.2769 27.579 15.3382 27.6149C15.3995 27.6508 15.4731 27.6748 15.5589 27.6927C15.6263 27.7107 15.6999 27.7166 15.7857 27.7226V27.7286H16.6807V24.9707H16.3681V27.4355ZM7.59555 27.4355H7.27677C7.16029 27.4355 7.04994 27.4175 6.94573 27.3876C6.84151 27.3577 6.74956 27.3098 6.66986 27.25C6.59017 27.1902 6.52886 27.1124 6.48595 27.0227C6.44304 26.9329 6.41852 26.8312 6.41852 26.7176C6.41852 26.6099 6.44304 26.5082 6.49208 26.4125C6.54112 26.3227 6.60243 26.239 6.68212 26.1792C6.76182 26.1133 6.85377 26.0655 6.95799 26.0296C7.06221 25.9937 7.16642 25.9758 7.27677 25.9758H7.59555V27.4355ZM9.33657 27.4355L8.84614 26.2569C8.96875 26.1552 9.09136 26.0834 9.22009 26.0356C9.34883 25.9877 9.47757 25.9638 9.61857 25.9638C9.75957 25.9638 9.90056 25.9937 10.0416 26.0475C10.1826 26.1014 10.299 26.1732 10.3971 26.2509L9.90669 27.4295H9.33657V27.4355Z" fill="#A8A7A9"/>
<path id="Vector_116" d="M1.79622 24.9885H1.47131V25.3056H1.79622V24.9885Z" fill="#A8A7A9"/>
<path id="Vector_117" d="M33.6986 24.9885H33.3737V25.3056H33.6986V24.9885Z" fill="#A8A7A9"/>
<path id="Vector_118" d="M30.8909 24.9885H30.5782V27.7464H30.8909V24.9885Z" fill="#A8A7A9"/>
<path id="Vector_119" d="M20.7207 24.9885H20.3958V25.3056H20.7207V24.9885Z" fill="#A8A7A9"/>
<path id="Vector_120" d="M5.60314 26.532C5.60314 26.4124 5.58475 26.2987 5.5541 26.191C5.52345 26.0833 5.46827 25.9936 5.40084 25.9218C5.31502 25.8321 5.22306 25.7663 5.11884 25.7184C5.01463 25.6765 4.88589 25.6526 4.73876 25.6526H4.50581V25.9577H4.78167C4.85524 25.9577 4.9288 25.9756 4.99624 26.0055C5.06367 26.0355 5.11884 26.0773 5.16789 26.1312C5.2108 26.185 5.24145 26.2448 5.25984 26.3107C5.27823 26.3765 5.28436 26.4542 5.28436 26.544V27.4354H3.80695V27.7405H5.60314V26.532Z" fill="#A8A7A9"/>
<path id="Vector_121" d="M47.5716 24.9885H47.259V27.7464H47.5716V24.9885Z" fill="#A8A7A9"/>
<path id="Vector_122" d="M34.2503 24.9885H33.9254V25.3056H34.2503V24.9885Z" fill="#A8A7A9"/>
<path id="Vector_123" d="M46.3455 24.9885H46.0329V27.4353H44.9417C45.0091 27.2918 45.0398 27.1422 45.0398 26.9807C45.0398 26.8191 45.0091 26.6756 44.9539 26.538C44.8926 26.4004 44.8129 26.2807 44.7087 26.185C44.6045 26.0833 44.4819 26.0055 44.347 25.9457C44.206 25.8859 44.0528 25.862 43.8934 25.862C43.734 25.862 43.5869 25.8919 43.452 25.9517C43.3171 26.0115 43.1945 26.0893 43.0964 26.191C42.9984 26.2927 42.9187 26.4123 42.8574 26.544C42.8022 26.6816 42.7715 26.8251 42.7715 26.9807C42.7715 27.0644 42.7777 27.1422 42.7961 27.214C42.8144 27.2918 42.839 27.3636 42.8635 27.4294H41.8888C41.9562 27.2858 41.9868 27.1362 41.9868 26.9747C41.9868 26.8132 41.9562 26.6696 41.901 26.532C41.8397 26.3944 41.76 26.2748 41.6558 26.179C41.5516 26.0773 41.429 25.9996 41.2941 25.9397C41.1531 25.8799 40.9999 25.856 40.8405 25.856C40.6811 25.856 40.534 25.8859 40.3991 25.9457C40.2642 26.0055 40.1416 26.0833 40.0435 26.185C39.9393 26.2867 39.8657 26.4064 39.8044 26.538C39.7493 26.6756 39.7186 26.8192 39.7186 26.9747C39.7186 27.0584 39.7247 27.1362 39.7431 27.208C39.7615 27.2858 39.786 27.3576 39.8106 27.4234H38.8113V24.9766H38.4987V27.4234H37.4933V26.9508C37.4933 26.8311 37.4749 26.7234 37.4443 26.6157C37.4136 26.5081 37.3646 26.4183 37.2971 26.3465C37.2174 26.2568 37.1255 26.191 37.0213 26.1491C36.917 26.1072 36.7883 26.0833 36.6289 26.0833H35.2312L35.8258 24.9766H35.4825L34.8756 26.0773C34.8879 26.1431 34.9001 26.203 34.9247 26.2508C34.9492 26.2987 34.9798 26.3465 35.0166 26.3884H36.6228C36.7209 26.3884 36.8067 26.4004 36.8803 26.4303C36.9538 26.4602 37.009 26.5021 37.058 26.5499C37.101 26.6038 37.1316 26.6576 37.15 26.7294C37.1684 26.7952 37.1745 26.873 37.1745 26.9508V27.4234H34.2565V25.6466H33.7599C33.5637 25.6466 33.386 25.6705 33.2266 25.7244C33.0672 25.7782 32.9323 25.85 32.8158 25.9457C32.7055 26.0414 32.6135 26.1491 32.5522 26.2807C32.4909 26.4064 32.4603 26.5499 32.4603 26.6935C32.4603 26.873 32.497 27.0285 32.5645 27.1601C32.638 27.2918 32.73 27.3994 32.8465 27.4832C32.963 27.567 33.104 27.6328 33.2633 27.6687C33.4227 27.7105 33.5883 27.7285 33.7599 27.7285H40.019C40.1232 27.8362 40.2458 27.9199 40.3868 27.9857C40.5278 28.0456 40.6811 28.0814 40.8466 28.0814C41.0121 28.0814 41.1715 28.0515 41.3186 27.9917C41.4658 27.9319 41.5884 27.8421 41.6926 27.7345H43.0781C43.1823 27.8421 43.3049 27.9259 43.4459 27.9917C43.5869 28.0515 43.7401 28.0874 43.9057 28.0874C44.0712 28.0874 44.2306 28.0575 44.3777 27.9977C44.5248 27.9379 44.6474 27.8481 44.7516 27.7404H46.3578V24.9885H46.3455ZM33.9316 27.4353H33.6189C33.5024 27.4353 33.3921 27.4174 33.2879 27.3875C33.1836 27.3516 33.0917 27.3037 33.0181 27.2439C32.9384 27.1841 32.8771 27.1063 32.8342 27.0106C32.7913 26.9209 32.7668 26.8192 32.7668 26.6995C32.7668 26.5918 32.7913 26.4901 32.8403 26.4004C32.8894 26.3106 32.9507 26.2329 33.0365 26.1671C33.1162 26.1013 33.2082 26.0534 33.3124 26.0175C33.4166 25.9816 33.5208 25.9637 33.625 25.9637H33.9377V27.4353H33.9316ZM41.6006 27.2977C41.5577 27.3935 41.4964 27.4832 41.4229 27.555C41.3493 27.6268 41.2573 27.6806 41.1593 27.7225C41.055 27.7644 40.9508 27.7823 40.8282 27.7823C40.7117 27.7823 40.6075 27.7584 40.5094 27.7165C40.4113 27.6746 40.3255 27.6148 40.252 27.543C40.1784 27.4712 40.1232 27.3875 40.0803 27.2858C40.0374 27.1901 40.019 27.0824 40.019 26.9747C40.019 26.867 40.0374 26.7593 40.0803 26.6636C40.1232 26.5679 40.1784 26.4782 40.2458 26.4064C40.3194 26.3346 40.3991 26.2747 40.4972 26.2329C40.5953 26.191 40.7056 26.1671 40.8221 26.1671C40.9447 26.1671 41.055 26.185 41.1531 26.2269C41.2573 26.2688 41.3432 26.3226 41.4167 26.3944C41.4903 26.4662 41.5516 26.5499 41.5945 26.6516C41.6374 26.7474 41.6558 26.861 41.6558 26.9747C41.6681 27.0943 41.6435 27.202 41.6006 27.2977ZM44.6597 27.2977C44.6168 27.3935 44.5555 27.4832 44.4819 27.555C44.4083 27.6268 44.3164 27.6806 44.2183 27.7225C44.1202 27.7644 44.0099 27.7823 43.8873 27.7823C43.7708 27.7823 43.6666 27.7584 43.5685 27.7165C43.4704 27.6746 43.3846 27.6148 43.311 27.543C43.2374 27.4712 43.1823 27.3875 43.1394 27.2858C43.0964 27.1901 43.0781 27.0824 43.0781 26.9747C43.0781 26.867 43.0964 26.7593 43.1394 26.6636C43.1823 26.5679 43.2374 26.4782 43.3049 26.4064C43.3784 26.3346 43.4581 26.2747 43.5562 26.2329C43.6543 26.191 43.7647 26.1671 43.8811 26.1671C44.0037 26.1671 44.1141 26.185 44.2122 26.2269C44.3164 26.2688 44.4022 26.3226 44.4758 26.3944C44.5493 26.4662 44.6106 26.5499 44.6536 26.6516C44.6965 26.7474 44.7149 26.861 44.7149 26.9747C44.7271 27.0943 44.7026 27.202 44.6597 27.2977Z" fill="#A8A7A9"/>
<path id="Vector_124" d="M0.803051 27.6808C0.96244 27.7226 1.12796 27.7406 1.29961 27.7406H3.36554V25.6587H3.05289V27.4355H1.8023V25.6587H1.30574C1.10957 25.6587 0.931788 25.6826 0.772399 25.7365C0.61301 25.7903 0.478142 25.8621 0.361665 25.9578C0.251318 26.0535 0.159363 26.1612 0.098059 26.2928C0.0367553 26.4185 0.00610352 26.562 0.00610352 26.7056C0.00610352 26.8851 0.0428855 27.0406 0.11032 27.1722C0.183884 27.3039 0.27584 27.4115 0.392317 27.4953C0.508793 27.5791 0.649792 27.6449 0.803051 27.6808ZM0.318752 26.7056C0.318752 26.5979 0.343274 26.4962 0.392317 26.4065C0.44136 26.3168 0.502663 26.239 0.582358 26.1732C0.662053 26.1074 0.754008 26.0595 0.858224 26.0236C0.96244 25.9877 1.06666 25.9698 1.17087 25.9698H1.48352V27.4415H1.17087C1.0544 27.4415 0.944049 27.4235 0.839833 27.3936C0.735617 27.3577 0.643661 27.3098 0.570097 27.25C0.490402 27.1902 0.429098 27.1124 0.386186 27.0167C0.337143 26.921 0.318752 26.8193 0.318752 26.7056Z" fill="#A8A7A9"/>
<path id="Vector_125" d="M23.1973 28.1055H22.8724V28.4225H23.1973V28.1055Z" fill="#A8A7A9"/>
<path id="Vector_126" d="M22.6456 28.1055H22.3207V28.4225H22.6456V28.1055Z" fill="#A8A7A9"/>
<path id="Vector_127" d="M25.5759 28.1353C25.5943 28.0396 25.6065 27.9319 25.6065 27.8122V27.7464H29.6648V24.9885H29.3522V27.4353H28.0096L28.5614 26.1491C28.4756 26.0773 28.3897 26.0115 28.2916 25.9457C28.1997 25.8859 28.1016 25.8261 27.9974 25.7782C27.8993 25.7303 27.7951 25.6945 27.6909 25.6645C27.5866 25.6406 27.4886 25.6227 27.3905 25.6227C27.2863 25.6227 27.1882 25.6346 27.084 25.6645C26.9797 25.6945 26.8817 25.7303 26.7774 25.7722C26.6732 25.8201 26.5813 25.8739 26.4832 25.9397C26.3912 26.0055 26.3054 26.0713 26.2196 26.1431L26.7774 27.4294H25.6004V25.6526H25.2878V27.8003C25.2878 27.89 25.2816 27.9618 25.2755 28.0216C25.2632 28.0814 25.251 28.1293 25.2265 28.1652C25.2019 28.2011 25.1713 28.231 25.1345 28.243C25.0977 28.2609 25.0487 28.2669 24.9874 28.2669C24.9567 28.2669 24.9322 28.2669 24.9138 28.2609C24.8954 28.2609 24.8648 28.2489 24.828 28.243L24.7483 28.5361C24.8341 28.56 24.9199 28.572 25.0058 28.572C25.1161 28.572 25.2142 28.5541 25.2939 28.5182C25.3736 28.4823 25.4349 28.4284 25.4839 28.3626C25.5207 28.3148 25.5514 28.231 25.5759 28.1353ZM26.6181 26.2568C26.7407 26.1551 26.8633 26.0833 26.992 26.0354C27.1207 25.9876 27.2556 25.9637 27.3905 25.9637C27.5315 25.9637 27.6725 25.9936 27.8135 26.0474C27.9545 26.1013 28.0709 26.173 28.169 26.2508L27.6786 27.4294H27.1146L26.6181 26.2568Z" fill="#A8A7A9"/>
<path id="Vector_128" d="M1.24446 24.9885H0.919556V25.3056H1.24446V24.9885Z" fill="#A8A7A9"/>
<path id="Vector_129" d="M2.26208 29.7625H1.77778L0.704965 30.8632V29.7625H0.312622V31.958H0.704965V31.3179L1.0544 30.9709L1.82682 31.958H2.30499L1.33026 30.7077L2.26208 29.7625Z" fill="#A8A7A9"/>
<path id="Vector_130" d="M3.06516 29.7625H2.66669V31.958H3.06516V29.7625Z" fill="#A8A7A9"/>
<path id="Vector_131" d="M5.24756 31.282L4.03988 29.7625H3.67206V31.958H4.0644V30.3966L5.30273 31.958H5.63377V29.7625H5.24756V31.282Z" fill="#A8A7A9"/>
<path id="Vector_132" d="M7.27675 31.0666H7.853V31.4794C7.71201 31.5811 7.52196 31.6469 7.3074 31.6469C6.84762 31.6469 6.54111 31.3119 6.54111 30.8632V30.8572C6.54111 30.4385 6.85375 30.0855 7.27062 30.0855C7.55875 30.0855 7.7304 30.1752 7.90205 30.3188L8.15339 30.0257C7.92044 29.8342 7.68135 29.7266 7.28901 29.7266C6.60854 29.7266 6.13037 30.247 6.13037 30.8632V30.8692C6.13037 31.5093 6.59628 31.9999 7.30127 31.9999C7.69974 31.9999 8.01852 31.8443 8.23922 31.6589V30.7376H7.28288V31.0666H7.27675Z" fill="#A8A7A9"/>
<path id="Vector_133" d="M9.61855 29.7625H8.77869V31.958H9.61855C10.3235 31.958 10.814 31.4794 10.814 30.8632V30.8572C10.814 30.2351 10.3297 29.7625 9.61855 29.7625ZM10.4032 30.8632C10.4032 31.294 10.0967 31.605 9.61855 31.605H9.17716V30.1154H9.61855C10.0906 30.1154 10.4032 30.4325 10.4032 30.8632Z" fill="#A8A7A9"/>
<path id="Vector_134" d="M12.3711 29.7266C11.6784 29.7266 11.1879 30.2411 11.1879 30.8632V30.8692C11.1879 31.4854 11.6722 31.9999 12.365 31.9999C13.0577 31.9999 13.5481 31.4854 13.5481 30.8632V30.8572C13.542 30.2351 13.0577 29.7266 12.3711 29.7266ZM13.1251 30.8632C13.1251 31.288 12.8125 31.635 12.365 31.635C11.9174 31.635 11.5987 31.282 11.5987 30.8572V30.8513C11.5987 30.4265 11.9113 30.0795 12.3588 30.0795C12.8063 30.0795 13.1251 30.4325 13.1251 30.8572V30.8632Z" fill="#A8A7A9"/>
<path id="Vector_135" d="M15.142 30.7974L14.4554 29.7625H14.0324V31.958H14.4248V30.3906L15.1297 31.4196H15.142L15.8531 30.3846V31.958H16.2455V29.7625H15.8286L15.142 30.7974Z" fill="#A8A7A9"/>
<path id="Vector_136" d="M18.8754 29.7266C18.1827 29.7266 17.6923 30.2411 17.6923 30.8632V30.8692C17.6923 31.4854 18.1766 31.9999 18.8693 31.9999C19.562 31.9999 20.0525 31.4854 20.0525 30.8632V30.8572C20.0525 30.2351 19.5682 29.7266 18.8754 29.7266ZM19.6356 30.8632C19.6356 31.288 19.3229 31.635 18.8754 31.635C18.4279 31.635 18.1091 31.282 18.1091 30.8572V30.8513C18.1091 30.4265 18.4218 30.0795 18.8693 30.0795C19.3168 30.0795 19.6356 30.4325 19.6356 30.8572V30.8632Z" fill="#A8A7A9"/>
<path id="Vector_137" d="M20.5428 31.958H20.9352V31.0606H22.0754V30.7137H20.9352V30.1154H22.2164V29.7625H20.5428V31.958Z" fill="#A8A7A9"/>
<path id="Vector_138" d="M24.4847 30.6838C24.0556 30.582 23.9513 30.5103 23.9513 30.3368V30.3308C23.9513 30.1872 24.0862 30.0676 24.3192 30.0676C24.5276 30.0676 24.7299 30.1453 24.9322 30.2949L25.1468 30.0018C24.9199 29.8223 24.6563 29.7266 24.3314 29.7266C23.8839 29.7266 23.559 29.9838 23.559 30.3607V30.3667C23.559 30.7735 23.8287 30.9111 24.3069 31.0188C24.7238 31.1145 24.8157 31.1982 24.8157 31.3538V31.3598C24.8157 31.5273 24.6625 31.635 24.4172 31.635C24.1353 31.635 23.9207 31.5333 23.7061 31.3478L23.467 31.623C23.7368 31.8563 24.0617 31.976 24.405 31.976C24.877 31.976 25.2081 31.7307 25.2081 31.3179V31.3119C25.2142 30.9649 24.9628 30.7974 24.4847 30.6838Z" fill="#A8A7A9"/>
<path id="Vector_139" d="M26.4219 29.7446L25.4288 31.9521H25.8334L26.0663 31.4197H27.133L27.3598 31.9521H27.7767L26.7836 29.7446H26.4219ZM26.2135 31.0847L26.5997 30.2053L26.992 31.0847H26.2135Z" fill="#A8A7A9"/>
<path id="Vector_140" d="M29.5483 31.0249C29.5483 31.4317 29.3338 31.6351 28.9843 31.6351C28.6288 31.6351 28.4142 31.4137 28.4142 31.0069V29.7566H28.0157V31.0189C28.0157 31.653 28.3897 31.9821 28.9721 31.9821C29.5606 31.9821 29.9407 31.653 29.9407 31.0009V29.7566H29.5422V31.0249H29.5483Z" fill="#A8A7A9"/>
<path id="Vector_141" d="M31.3629 29.7625H30.5231V31.958H31.3629C32.0679 31.958 32.5584 31.4794 32.5584 30.8632V30.8572C32.5584 30.2351 32.0679 29.7625 31.3629 29.7625ZM32.1415 30.8632C32.1415 31.294 31.835 31.605 31.3568 31.605H30.9154V30.1154H31.3568C31.8288 30.1154 32.1415 30.4325 32.1415 30.8632Z" fill="#A8A7A9"/>
<path id="Vector_142" d="M33.4595 29.7625H33.061V31.958H33.4595V29.7625Z" fill="#A8A7A9"/>
<path id="Vector_143" d="M35.8197 29.7446L34.8266 31.9521H35.2312L35.4642 31.4197H36.5308L36.7577 31.9521H37.1745L36.1814 29.7446H35.8197ZM35.6113 31.0847L35.9975 30.2053L36.3898 31.0847H35.6113Z" fill="#A8A7A9"/>
<path id="Vector_144" d="M39.3937 30.4624V30.4564C39.3937 30.265 39.3263 30.1035 39.2098 29.9838C39.0627 29.8462 38.842 29.7625 38.56 29.7625H37.5546V31.958H37.9531V31.1923H38.4435H38.4497L39.0014 31.958H39.4673L38.8604 31.1264C39.173 31.0367 39.3937 30.8213 39.3937 30.4624ZM37.947 30.8513V30.1154H38.5232C38.8175 30.1154 38.9891 30.247 38.9891 30.4803V30.4863C38.9891 30.7077 38.8114 30.8513 38.5232 30.8513H37.947Z" fill="#A8A7A9"/>
<path id="Vector_145" d="M40.7485 29.7446L39.7554 31.9521H40.16L40.393 31.4197H41.4597L41.6865 31.9521H42.1034L41.1102 29.7446H40.7485ZM40.5401 31.0847L40.9263 30.2053L41.3187 31.0847H40.5401Z" fill="#A8A7A9"/>
<path id="Vector_146" d="M43.9057 30.8155C44.0712 30.7317 44.2245 30.5881 44.2245 30.3249V30.3189C44.2245 30.1694 44.1754 30.0497 44.0712 29.954C43.9425 29.8284 43.7402 29.7566 43.4827 29.7566H42.4712V31.9521H43.5134C44.016 31.9521 44.3471 31.7428 44.3471 31.3479V31.3419C44.3532 31.0488 44.1693 30.9052 43.9057 30.8155ZM42.8697 30.1036H43.4398C43.6911 30.1036 43.8383 30.2113 43.8383 30.3847V30.3907C43.8383 30.5941 43.6666 30.6898 43.4153 30.6898H42.8758V30.1036H42.8697ZM43.9609 31.312C43.9609 31.5094 43.7954 31.6111 43.5256 31.6111H42.8697V31.0129H43.495C43.8076 31.0129 43.9609 31.1206 43.9609 31.306V31.312Z" fill="#A8A7A9"/>
<path id="Vector_147" d="M45.2421 29.7625H44.8436V31.958H45.2421V29.7625Z" fill="#A8A7A9"/>
<path id="Vector_148" d="M46.977 29.7446H46.6091L45.616 31.9581H46.0206L46.2536 31.4257H47.3203L47.5471 31.9581H47.964L46.977 29.7446ZM46.4007 31.0847L46.7869 30.2053L47.1793 31.0847H46.4007Z" fill="#A8A7A9"/>
</g>
</g>
</svg>
