<svg width="75" height="48" viewBox="0 0 75 48" fill="none" xmlns="http://www.w3.org/2000/svg">
<g id="Group 1000005735">
<path id="Path 19805" d="M8.12965 10.1373L8.00597 10.1623C7.92721 10.176 7.85378 10.2119 7.79396 10.2658C7.71153 10.2762 7.63465 10.3136 7.57501 10.3725C7.53463 10.3506 7.47826 10.3686 7.4059 10.4265L6.09092 11.0595C6.06688 10.9611 6.06302 10.8587 6.07957 10.7587C6.08123 10.7485 6.08488 10.7386 6.09029 10.7298C6.09571 10.721 6.10278 10.7133 6.11111 10.7073C6.54713 10.3879 7.12385 10.0447 7.46206 9.82944C11.5074 7.24415 16.0765 5.62877 20.8245 5.10528C21.1406 5.06929 21.3804 4.97161 21.6644 4.85271C23.9372 3.90158 26.2037 2.93439 28.5201 2.09443C31.5084 1.00963 34.6135 0.253225 37.7647 0.0700684C39.2935 -0.0159024 40.8256 -0.0227663 42.3551 0.0495034C45.9825 0.212985 49.593 0.649684 53.157 1.35602C54.2495 1.57238 55.3333 1.82623 56.4085 2.11757C56.5692 2.16127 56.7219 2.2099 56.8666 2.26345C56.9133 2.28059 56.9127 2.29601 56.8647 2.30972C54.5473 2.97637 52.1979 3.5584 49.8166 4.05582C47.0705 4.62971 44.4607 5.05001 41.7651 5.01723C41.764 5.01691 41.763 5.01623 41.7622 5.0153C41.7615 5.01436 41.7611 5.01321 41.761 5.012C41.7609 5.0108 41.7612 5.0096 41.7619 5.00858C41.7625 5.00756 41.7634 5.00677 41.7645 5.00631C42.4756 4.90734 43.0315 4.8842 43.8872 4.69976C46.1209 4.21841 48.3318 3.45044 50.4116 2.51602C50.4633 2.49288 50.4619 2.47382 50.4072 2.45882C49.2184 2.13792 48.0115 1.85687 46.7866 1.61566C43.7256 1.0122 40.5953 0.769278 37.5281 1.09896C35.0956 1.36052 32.7616 1.92542 30.16 2.72359C27.774 3.45579 25.4169 4.26511 23.0885 5.15155C23.0317 5.17297 23.0326 5.19225 23.091 5.20939C23.2416 5.25266 23.4063 5.29443 23.5851 5.33471C24.7688 5.59862 25.9601 5.81948 27.159 5.99728C27.1649 5.99814 27.1668 6.00307 27.1647 6.01207C27.1644 6.01419 27.1635 6.01617 27.162 6.01769C27.1605 6.0192 27.1586 6.02016 27.1565 6.02042C23.9025 6.37838 20.6579 6.86423 17.4462 7.50624C14.4604 8.10327 11.4897 8.85775 8.62813 9.91813C8.45803 9.9815 8.2916 10.0547 8.12965 10.1373Z" fill="white"/>
<path id="Path 19806" d="M72.7322 11.4869L72.6287 11.9927C72.6285 11.9939 72.628 11.9951 72.6272 11.9961C72.6265 11.9971 72.6254 11.9979 72.6243 11.9984C72.6193 12.0008 72.6145 12.0033 72.6098 12.0062C72.6074 12.0076 72.6047 12.0085 72.602 12.0087C72.5992 12.0089 72.5965 12.0085 72.5939 12.0074C72.5913 12.0064 72.5889 12.0047 72.587 12.0026C72.585 12.0005 72.5836 11.998 72.5827 11.9952C72.4245 11.4235 72.2233 10.8651 71.9808 10.325C71.9791 10.3209 71.9765 10.3174 71.9732 10.3146C71.9699 10.3118 71.966 10.3098 71.9618 10.3089C71.9538 10.3062 71.9452 10.3062 71.9372 10.3089C71.9311 10.2289 71.9083 10.1511 71.8703 10.0808C69.8461 5.97034 65.6273 5.14902 61.5373 5.03591C61.1444 5.0252 60.7237 5.02392 60.2753 5.03206C57.8031 5.07704 55.3334 5.26855 52.8744 5.5269C50.9137 5.73298 48.953 5.93842 46.9923 6.14321C45.9777 6.24903 44.2322 6.40884 41.7557 6.62263C41.1079 6.67876 40.6494 6.71025 40.3802 6.7171C40.3774 6.7171 40.3751 6.71537 40.3751 6.71325C40.3751 6.70339 40.3749 6.70104 40.3745 6.70618C40.3745 6.70789 40.3751 6.70853 40.3764 6.7081C44.9732 6.1837 49.5371 5.59888 54.0581 4.57641C55.8628 4.16833 57.687 3.67605 59.3648 2.86952C59.3911 2.85672 59.421 2.85377 59.4493 2.86117C60.2311 3.04896 61.0225 3.19228 61.8199 3.29046C64.2491 3.58895 66.6939 3.7366 69.1407 3.73261C70.2468 3.73132 71.3649 3.67927 72.454 3.47362C72.5402 3.45734 72.5514 3.47961 72.4874 3.54045C72.0268 3.98132 71.2968 4.29557 70.7497 4.40868C70.5684 4.44638 70.3858 4.49373 70.202 4.55071C70.1982 4.55178 70.1947 4.55382 70.1919 4.55663C70.1891 4.55944 70.187 4.56294 70.1859 4.56679C70.1847 4.57064 70.1846 4.57473 70.1854 4.57866C70.1862 4.58259 70.188 4.58624 70.1906 4.58927C71.3422 5.9819 72.3 7.72607 72.6199 9.53643C72.6717 9.83013 72.7411 10.1328 72.7581 10.4162C72.7806 10.7732 72.7719 11.1315 72.7322 11.4869Z" fill="white"/>
<path id="Path 19807" d="M26.4959 10.1571L23.9341 10.1494C23.0191 9.04082 21.9193 8.25549 20.4914 8.05434C18.3971 7.75872 16.3578 8.37567 14.8737 9.92254C14.8686 9.92768 14.8659 9.92682 14.8655 9.91997C14.8655 9.91803 14.8657 9.91609 14.8661 9.91419C14.8661 9.91324 14.8662 9.9123 14.8665 9.91142C14.8669 9.91053 14.8674 9.90973 14.868 9.90904C16.0397 8.4123 17.869 7.58841 19.719 7.47402C21.9326 7.33714 24.3713 8.001 26.0125 9.58258C26.1927 9.75658 26.3547 9.94912 26.4959 10.1571Z" fill="white"/>
<path id="Path 19808" d="M66.9852 10.134C66.8111 10.1679 66.6325 10.1701 66.4577 10.1405L65.7156 10.1462L64.8966 10.143C63.6557 8.77375 62.094 8.05869 60.2115 7.99785C59.7696 7.98179 59.3272 7.99855 58.8877 8.04797C57.4497 8.21571 56.2628 8.88407 55.262 9.93481C55.2611 9.93602 55.2599 9.93699 55.2585 9.93766C55.2572 9.93833 55.2557 9.93868 55.2542 9.93868C55.2526 9.93868 55.2511 9.93833 55.2498 9.93766C55.2484 9.93699 55.2472 9.93602 55.2463 9.93481H55.2456C55.2445 9.93386 55.2435 9.93267 55.2428 9.93131C55.2421 9.92995 55.2418 9.92845 55.2417 9.92693C55.2416 9.9254 55.2419 9.92388 55.2425 9.92247C55.2431 9.92106 55.2439 9.91979 55.245 9.91875C56.4193 8.57752 57.7608 7.75235 59.5345 7.52999C62.1045 7.20738 65.0108 7.89759 66.8243 9.90268C66.8869 9.97292 66.9409 10.0506 66.9852 10.134Z" fill="white"/>
<path id="Path 19809" d="M8.00598 10.1624L8.12966 10.1373L8.39341 10.1328C8.39746 10.1327 8.40148 10.1335 8.40523 10.135C8.40898 10.1366 8.41239 10.1389 8.41524 10.1418C8.42105 10.1478 8.42431 10.1559 8.42433 10.1643L8.42496 28.8765C8.42586 28.8829 8.42528 28.8894 8.42329 28.8955C8.42129 28.9016 8.41792 28.9072 8.41345 28.9117C8.40898 28.9163 8.40353 28.9197 8.39753 28.9217C8.39153 28.9238 8.38515 28.9243 8.3789 28.9234L8.04573 28.9254C8.04041 28.9262 8.03496 28.9258 8.02984 28.9241C8.02471 28.9223 8.02005 28.9194 8.01624 28.9156C8.01243 28.9117 8.00957 28.9069 8.0079 28.9017C8.00622 28.8965 8.00578 28.8909 8.00661 28.8855L8.00598 10.1624Z" fill="white"/>
<path id="Rectangle 2725" d="M9.43581 10.1328H8.63067C8.60558 10.1328 8.58524 10.1535 8.58524 10.1791V18.1416C8.58524 18.1671 8.60558 18.1879 8.63067 18.1879H9.43581C9.4609 18.1879 9.48124 18.1671 9.48124 18.1416V10.1791C9.48124 10.1535 9.4609 10.1328 9.43581 10.1328Z" fill="white"/>
<path id="Rectangle 2726" d="M10.4227 10.1328H9.69326C9.67479 10.1328 9.65982 10.1481 9.65982 10.1669V18.1512C9.65982 18.17 9.67479 18.1853 9.69326 18.1853H10.4227C10.4412 18.1853 10.4561 18.17 10.4561 18.1512V10.1669C10.4561 10.1481 10.4412 10.1328 10.4227 10.1328Z" fill="white"/>
<path id="Rectangle 2727" d="M12.9454 10.1333H11.1698C11.1509 10.1333 11.1357 10.1488 11.1357 10.168V18.1498C11.1357 18.169 11.1509 18.1845 11.1698 18.1845H12.9454C12.9642 18.1845 12.9794 18.169 12.9794 18.1498V10.168C12.9794 10.1488 12.9642 10.1333 12.9454 10.1333Z" fill="white"/>
<path id="Rectangle 2728" d="M14.1133 10.1348H13.5871C13.5676 10.1348 13.5518 10.1509 13.5518 10.1708V18.1487C13.5518 18.1686 13.5676 18.1847 13.5871 18.1847H14.1133C14.1329 18.1847 14.1487 18.1686 14.1487 18.1487V10.1708C14.1487 10.1509 14.1329 10.1348 14.1133 10.1348Z" fill="white"/>
<path id="Rectangle 2729" d="M15.0579 10.1348H14.7185C14.7017 10.1348 14.6882 10.1486 14.6882 10.1656V18.1538C14.6882 18.1709 14.7017 18.1847 14.7185 18.1847H15.0579C15.0747 18.1847 15.0882 18.1709 15.0882 18.1538V10.1656C15.0882 10.1486 15.0747 10.1348 15.0579 10.1348Z" fill="white"/>
<path id="Rectangle 2730" d="M16.8386 10.134H16.2656C16.2513 10.134 16.2397 10.1458 16.2397 10.1604V18.1589C16.2397 18.1734 16.2513 18.1852 16.2656 18.1852H16.8386C16.8528 18.1852 16.8644 18.1734 16.8644 18.1589V10.1604C16.8644 10.1458 16.8528 10.134 16.8386 10.134Z" fill="white"/>
<path id="Rectangle 2731" d="M19.4761 10.1328H18.1258C18.1066 10.1328 18.0911 10.1486 18.0911 10.1682V18.1512C18.0911 18.1708 18.1066 18.1866 18.1258 18.1866H19.4761C19.4953 18.1866 19.5108 18.1708 19.5108 18.1512V10.1682C19.5108 10.1486 19.4953 10.1328 19.4761 10.1328Z" fill="white"/>
<path id="Rectangle 2732" d="M20.0737 10.1309H19.873C19.8518 10.1309 19.8345 10.1484 19.8345 10.1701V18.1518C19.8345 18.1735 19.8518 18.1911 19.873 18.1911H20.0737C20.0949 18.1911 20.1122 18.1735 20.1122 18.1518V10.1701C20.1122 10.1484 20.0949 10.1309 20.0737 10.1309Z" fill="white"/>
<path id="Rectangle 2733" d="M21.0491 10.1316H20.6062C20.5888 10.1316 20.5746 10.146 20.5746 10.1637V18.1571C20.5746 18.1748 20.5888 18.1892 20.6062 18.1892H21.0491C21.0666 18.1892 21.0807 18.1748 21.0807 18.1571V10.1637C21.0807 10.146 21.0666 10.1316 21.0491 10.1316Z" fill="white"/>
<path id="Rectangle 2734" d="M22.963 10.1328H21.9357C21.9162 10.1328 21.9004 10.1489 21.9004 10.1688V18.1519C21.9004 18.1718 21.9162 18.1879 21.9357 18.1879H22.963C22.9825 18.1879 22.9983 18.1718 22.9983 18.1519V10.1688C22.9983 10.1489 22.9825 10.1328 22.963 10.1328Z" fill="white"/>
<path id="Rectangle 2735" d="M28.0784 10.1328H27.3325C27.3148 10.1328 27.3004 10.1475 27.3004 10.1656V18.1525C27.3004 18.1706 27.3148 18.1853 27.3325 18.1853H28.0784C28.0961 18.1853 28.1105 18.1706 28.1105 18.1525V10.1656C28.1105 10.1475 28.0961 10.1328 28.0784 10.1328Z" fill="white"/>
<path id="Rectangle 2736" d="M29.3845 10.134H28.8898C28.8703 10.134 28.8545 10.1501 28.8545 10.17V18.1492C28.8545 18.1691 28.8703 18.1852 28.8898 18.1852H29.3845C29.404 18.1852 29.4199 18.1691 29.4199 18.1492V10.17C29.4199 10.1501 29.404 10.134 29.3845 10.134Z" fill="white"/>
<path id="Rectangle 2737" d="M30.6705 10.1328H29.8754C29.8541 10.1328 29.8369 10.1504 29.8369 10.172V18.1474C29.8369 18.169 29.8541 18.1866 29.8754 18.1866H30.6705C30.6917 18.1866 30.7089 18.169 30.7089 18.1474V10.172C30.7089 10.1504 30.6917 10.1328 30.6705 10.1328Z" fill="white"/>
<path id="Rectangle 2738" d="M32.8973 10.1321H31.9104C31.8888 10.1321 31.8713 10.1499 31.8713 10.1719V18.146C31.8713 18.168 31.8888 18.1858 31.9104 18.1858H32.8973C32.9189 18.1858 32.9364 18.168 32.9364 18.146V10.1719C32.9364 10.1499 32.9189 10.1321 32.8973 10.1321Z" fill="white"/>
<path id="Rectangle 2739" d="M33.9674 10.1367H33.8513C33.8231 10.1367 33.8002 10.16 33.8002 10.1888V18.1359C33.8002 18.1646 33.8231 18.1879 33.8513 18.1879H33.9674C33.9956 18.1879 34.0185 18.1646 34.0185 18.1359V10.1888C34.0185 10.16 33.9956 10.1367 33.9674 10.1367Z" fill="white"/>
<path id="Rectangle 2740" d="M34.7069 10.1348H34.399C34.3771 10.1348 34.3593 10.1529 34.3593 10.1753V18.1455C34.3593 18.1678 34.3771 18.186 34.399 18.186H34.7069C34.7289 18.186 34.7467 18.1678 34.7467 18.1455V10.1753C34.7467 10.1529 34.7289 10.1348 34.7069 10.1348Z" fill="white"/>
<path id="Rectangle 2741" d="M37.4764 10.1316H35.4913C35.4738 10.1316 35.4597 10.146 35.4597 10.1637V18.1545C35.4597 18.1723 35.4738 18.1866 35.4913 18.1866H37.4764C37.4938 18.1866 37.5079 18.1723 37.5079 18.1545V10.1637C37.5079 10.146 37.4938 10.1316 37.4764 10.1316Z" fill="white"/>
<path id="Rectangle 2742" d="M38.3407 10.136H37.995C37.9789 10.136 37.9659 10.1492 37.9659 10.1655V18.155C37.9659 18.1714 37.9789 18.1846 37.995 18.1846H38.3407C38.3568 18.1846 38.3698 18.1714 38.3698 18.155V10.1655C38.3698 10.1492 38.3568 10.136 38.3407 10.136Z" fill="white"/>
<path id="Rectangle 2743" d="M39.7372 10.1316H39.0709C39.0552 10.1316 39.0425 10.1445 39.0425 10.1605V18.1577C39.0425 18.1737 39.0552 18.1866 39.0709 18.1866H39.7372C39.7529 18.1866 39.7656 18.1737 39.7656 18.1577V10.1605C39.7656 10.1445 39.7529 10.1316 39.7372 10.1316Z" fill="white"/>
<path id="Rectangle 2744" d="M40.2142 10.1309H39.9984C39.981 10.1309 39.9669 10.1452 39.9669 10.163V18.1576C39.9669 18.1754 39.981 18.1898 39.9984 18.1898H40.2142C40.2316 18.1898 40.2458 18.1754 40.2458 18.1576V10.163C40.2458 10.1452 40.2316 10.1309 40.2142 10.1309Z" fill="white"/>
<path id="Rectangle 2745" d="M41.502 10.1321H40.6982C40.68 10.1321 40.6653 10.147 40.6653 10.1655V18.1537C40.6653 18.1722 40.68 18.1871 40.6982 18.1871H41.502C41.5202 18.1871 41.5348 18.1722 41.5348 18.1537V10.1655C41.5348 10.147 41.5202 10.1321 41.502 10.1321Z" fill="white"/>
<path id="Rectangle 2746" d="M42.8486 10.1321H42.0232C42.0072 10.1321 41.9942 10.1453 41.9942 10.1616V24.5623C41.9942 24.5786 42.0072 24.5918 42.0232 24.5918H42.8486C42.8646 24.5918 42.8776 24.5786 42.8776 24.5623V10.1616C42.8776 10.1453 42.8646 10.1321 42.8486 10.1321Z" fill="white"/>
<path id="Rectangle 2747" d="M43.1931 10.1348H43.0783C43.0594 10.1348 43.0442 10.1503 43.0442 10.1695V24.556C43.0442 24.5751 43.0594 24.5907 43.0783 24.5907H43.1931C43.2119 24.5907 43.2272 24.5751 43.2272 24.556V10.1695C43.2272 10.1503 43.2119 10.1348 43.1931 10.1348Z" fill="white"/>
<path id="Rectangle 2748" d="M43.8828 10.1316H43.5307C43.5115 10.1316 43.496 10.1474 43.496 10.1669V24.5573C43.496 24.5768 43.5115 24.5926 43.5307 24.5926H43.8828C43.9019 24.5926 43.9175 24.5768 43.9175 24.5573V10.1669C43.9175 10.1474 43.9019 10.1316 43.8828 10.1316Z" fill="white"/>
<path id="Rectangle 2749" d="M44.6602 10.1333H44.327C44.3037 10.1333 44.2847 10.1526 44.2847 10.1764V18.144C44.2847 18.1678 44.3037 18.1871 44.327 18.1871H44.6602C44.6835 18.1871 44.7024 18.1678 44.7024 18.144V10.1764C44.7024 10.1526 44.6835 10.1333 44.6602 10.1333Z" fill="white"/>
<path id="Rectangle 2750" d="M46.6528 10.1321H45.5473C45.5282 10.1321 45.5126 10.1479 45.5126 10.1674V18.1518C45.5126 18.1713 45.5282 18.1871 45.5473 18.1871H46.6528C46.672 18.1871 46.6875 18.1713 46.6875 18.1518V10.1674C46.6875 10.1479 46.672 10.1321 46.6528 10.1321Z" fill="white"/>
<path id="Rectangle 2751" d="M48.5319 10.1316H47.8113C47.7869 10.1316 47.7672 10.1517 47.7672 10.1766V18.1442C47.7672 18.1691 47.7869 18.1892 47.8113 18.1892H48.5319C48.5563 18.1892 48.5761 18.1691 48.5761 18.1442V10.1766C48.5761 10.1517 48.5563 10.1316 48.5319 10.1316Z" fill="white"/>
<path id="Rectangle 2752" d="M50.4053 10.1328H49.2166C49.1949 10.1328 49.1774 10.1507 49.1774 10.1727V18.1467C49.1774 18.1687 49.1949 18.1866 49.2166 18.1866H50.4053C50.4269 18.1866 50.4445 18.1687 50.4445 18.1467V10.1727C50.4445 10.1507 50.4269 10.1328 50.4053 10.1328Z" fill="white"/>
<path id="Rectangle 2753" d="M53.6183 10.1316H52.1632C52.1395 10.1316 52.1203 10.1512 52.1203 10.1753V18.1429C52.1203 18.1671 52.1395 18.1866 52.1632 18.1866H53.6183C53.642 18.1866 53.6612 18.1671 53.6612 18.1429V10.1753C53.6612 10.1512 53.642 10.1316 53.6183 10.1316Z" fill="white"/>
<path id="Rectangle 2754" d="M55.1857 10.1328H54.9585C54.9358 10.1328 54.9175 10.1515 54.9175 10.1746V18.1422C54.9175 18.1653 54.9358 18.184 54.9585 18.184H55.1857C55.2083 18.184 55.2267 18.1653 55.2267 18.1422V10.1746C55.2267 10.1515 55.2083 10.1328 55.1857 10.1328Z" fill="white"/>
<path id="Rectangle 2755" d="M56.637 10.1321H56.1587C56.1392 10.1321 56.1234 10.1482 56.1234 10.1681V18.1511C56.1234 18.171 56.1392 18.1871 56.1587 18.1871H56.637C56.6565 18.1871 56.6723 18.171 56.6723 18.1511V10.1681C56.6723 10.1482 56.6565 10.1321 56.637 10.1321Z" fill="white"/>
<path id="Rectangle 2756" d="M57.5569 10.1353H57.3436C57.3196 10.1353 57.3001 10.1551 57.3001 10.1796V18.1382C57.3001 18.1627 57.3196 18.1826 57.3436 18.1826H57.5569C57.581 18.1826 57.6005 18.1627 57.6005 18.1382V10.1796C57.6005 10.1551 57.581 10.1353 57.5569 10.1353Z" fill="white"/>
<path id="Rectangle 2757" d="M58.6877 10.1301H58.5501C58.5268 10.1301 58.5079 10.1494 58.5079 10.1732V18.1485C58.5079 18.1723 58.5268 18.1916 58.5501 18.1916H58.6877C58.7111 18.1916 58.73 18.1723 58.73 18.1485V10.1732C58.73 10.1494 58.7111 10.1301 58.6877 10.1301Z" fill="white"/>
<path id="Rectangle 2758" d="M60.6444 10.1321H59.4367C59.421 10.1321 59.4083 10.145 59.4083 10.161V18.1582C59.4083 18.1742 59.421 18.1871 59.4367 18.1871H60.6444C60.6601 18.1871 60.6728 18.1742 60.6728 18.1582V10.161C60.6728 10.145 60.6601 10.1321 60.6444 10.1321Z" fill="white"/>
<path id="Rectangle 2759" d="M64.0593 10.1321H61.553C61.537 10.1321 61.524 10.1453 61.524 10.1616V18.1563C61.524 18.1726 61.537 18.1858 61.553 18.1858H64.0593C64.0753 18.1858 64.0883 18.1726 64.0883 18.1563V10.1616C64.0883 10.1453 64.0753 10.1321 64.0593 10.1321Z" fill="white"/>
<path id="Path 19810" d="M66.9851 10.134C66.9924 10.1363 66.9988 10.1408 67.0034 10.1469C67.0186 10.1629 67.027 10.1844 67.0268 10.2067L67.0262 18.1698C67.0265 18.1719 67.0263 18.174 67.0256 18.176C67.025 18.1781 67.0239 18.1799 67.0224 18.1814C67.0209 18.1829 67.0191 18.184 67.0172 18.1847C67.0152 18.1853 67.0131 18.1855 67.011 18.1852L66.4734 18.1884C66.4633 18.1889 66.4583 18.1837 66.4583 18.173L66.4576 10.1405C66.6325 10.1701 66.8111 10.1679 66.9851 10.134Z" fill="white"/>
<path id="Rectangle 2760" d="M68.2806 10.1316H67.4691C67.4503 10.1316 67.4351 10.1471 67.4351 10.1663V18.1519C67.4351 18.1711 67.4503 18.1866 67.4691 18.1866H68.2806C68.2994 18.1866 68.3147 18.1711 68.3147 18.1519V10.1663C68.3147 10.1471 68.2994 10.1316 68.2806 10.1316Z" fill="white"/>
<path id="Rectangle 2761" d="M69.8342 10.1309L68.8183 10.1361C68.8023 10.1362 68.7894 10.1495 68.7895 10.1658L68.8287 18.1579C68.8288 18.1742 68.8418 18.1874 68.8579 18.1873L69.8737 18.1821C69.8898 18.182 69.9027 18.1687 69.9026 18.1524L69.8634 10.1603C69.8633 10.144 69.8503 10.1308 69.8342 10.1309Z" fill="white"/>
<path id="Path 19811" d="M70.4809 28.8675L70.3963 10.1675C70.3963 10.1635 70.3971 10.1596 70.3986 10.1559C70.4 10.1523 70.4022 10.1489 70.405 10.1461C70.4077 10.1433 70.411 10.1411 70.4146 10.1396C70.4182 10.1381 70.4221 10.1373 70.426 10.1373L71.1402 10.136C71.1481 10.136 71.1556 10.1392 71.1612 10.1448C71.1668 10.1505 71.1699 10.1582 71.1699 10.1662L71.2576 28.8681C71.2576 28.8761 71.2545 28.8838 71.2489 28.8895C71.2434 28.8951 71.2358 28.8983 71.2279 28.8983L70.5105 28.8977C70.5066 28.8977 70.5028 28.8969 70.4992 28.8954C70.4956 28.8939 70.4923 28.8916 70.4895 28.8888C70.4868 28.886 70.4846 28.8827 70.4831 28.879C70.4816 28.8754 70.4809 28.8714 70.4809 28.8675Z" fill="white"/>
<path id="Rectangle 2762" d="M71.6615 10.1375L71.3738 10.1386C71.3563 10.1386 71.3423 10.1531 71.3423 10.1708L71.4064 28.8681C71.4065 28.8859 71.4207 28.9002 71.4381 28.9001L71.7258 28.8991C71.7432 28.8991 71.7573 28.8846 71.7572 28.8669L71.6932 10.1696C71.6931 10.1518 71.6789 10.1375 71.6615 10.1375Z" fill="white"/>
<path id="Path 19812" d="M23.934 10.1494L26.4958 10.1571V18.1434C26.4958 18.1547 26.4915 18.1655 26.4836 18.1734C26.4758 18.1814 26.4652 18.1858 26.4542 18.1858H23.9763C23.9646 18.1858 23.9533 18.1811 23.9451 18.1727C23.9368 18.1642 23.9321 18.1528 23.9321 18.1408L23.934 10.1494Z" fill="white"/>
<path id="Path 19813" d="M65.7157 10.1463V18.1583C65.7157 18.1662 65.7126 18.1738 65.7071 18.1794C65.7045 18.1822 65.7013 18.1843 65.6977 18.1858C65.6942 18.1872 65.6904 18.1879 65.6866 18.1878L64.9275 18.1865C64.9191 18.1864 64.9111 18.1829 64.9052 18.1767C64.8993 18.1706 64.896 18.1624 64.896 18.1538L64.8966 10.1431L65.7157 10.1463Z" fill="white"/>
<path id="Path 19814" d="M7.79398 10.2659L7.79461 28.8894C7.79529 28.8941 7.79487 28.8989 7.79339 28.9034C7.79191 28.9079 7.7894 28.9119 7.78608 28.9153C7.78276 28.9186 7.77871 28.9211 7.77428 28.9225C7.76984 28.9239 7.76513 28.9242 7.76054 28.9235L7.60721 28.9222C7.60272 28.9227 7.59817 28.9222 7.5939 28.9207C7.58964 28.9191 7.58578 28.9166 7.58261 28.9133C7.57945 28.91 7.57706 28.9061 7.57564 28.9017C7.57421 28.8973 7.57379 28.8927 7.5744 28.8881L7.57503 10.3726C7.63467 10.3137 7.71154 10.2762 7.79398 10.2659Z" fill="white"/>
<path id="Path 19815" d="M71.9371 10.3089C71.9451 10.3062 71.9537 10.3062 71.9617 10.3089C71.9659 10.3098 71.9699 10.3117 71.9732 10.3145C71.9764 10.3173 71.979 10.3209 71.9807 10.3249C72.2232 10.8651 72.4245 11.4235 72.5826 11.9952C72.5835 11.998 72.585 12.0005 72.5869 12.0026C72.5889 12.0047 72.5912 12.0064 72.5939 12.0074C72.5964 12.0085 72.5992 12.0089 72.602 12.0087C72.6047 12.0085 72.6074 12.0076 72.6098 12.0061C72.6145 12.0033 72.6193 12.0007 72.6243 11.9984C72.6254 11.9979 72.6264 11.9971 72.6272 11.9961C72.628 11.9951 72.6285 11.9939 72.6287 11.9926L72.7322 11.4869L72.7978 28.8733C72.7978 28.8767 72.7971 28.8802 72.7958 28.8834C72.7945 28.8866 72.7926 28.8895 72.7902 28.8919C72.7878 28.8944 72.785 28.8963 72.7818 28.8976C72.7787 28.899 72.7753 28.8996 72.7719 28.8996L72.0394 28.899C72.0318 28.8989 72.0247 28.8958 72.0194 28.8904C72.0141 28.885 72.011 28.8777 72.011 28.8701L71.9371 10.3089Z" fill="white"/>
<path id="Path 19816" d="M7.40592 10.4265L7.40403 28.8727C7.40476 28.8778 7.4043 28.8831 7.40269 28.888C7.40107 28.893 7.39835 28.8974 7.39474 28.9011C7.39112 28.9048 7.38672 28.9076 7.38187 28.9092C7.37702 28.9109 7.37186 28.9113 7.3668 28.9106H6.12186C6.11366 28.9106 6.1058 28.9073 6.1 28.9014C6.0942 28.8955 6.09094 28.8874 6.09094 28.8791V11.0595L7.40592 10.4265Z" fill="white"/>
<path id="Path 19817" d="M15.1261 21.0727C14.7197 20.7057 14.049 20.7347 13.6016 20.9596C13.2962 21.1125 13.3246 21.333 13.324 21.6884C13.3231 22.4206 13.3233 23.1523 13.3246 23.8837C13.3191 23.9895 13.3409 24.0949 13.3877 24.1896C13.6596 24.6594 14.7008 24.624 15.0762 24.3284C15.2851 24.1639 15.2542 23.937 15.2523 23.6979C15.2521 23.6754 15.2602 23.6536 15.275 23.6369C15.4157 23.4788 15.8315 23.527 16.0265 23.5315C16.0581 23.5289 16.0899 23.5331 16.1198 23.5439C16.1497 23.5547 16.177 23.5719 16.1999 23.5942C16.2228 23.6166 16.2408 23.6436 16.2527 23.6736C16.2645 23.7035 16.27 23.7357 16.2688 23.768C16.2894 23.9765 16.264 24.1871 16.1945 24.3843C16.1249 24.5816 16.013 24.7605 15.8668 24.9081C15.0346 25.775 13.4331 25.714 12.6381 24.8284C12.4042 24.5683 12.2883 24.2369 12.2904 23.8342L12.303 21.2957C12.311 21.1633 12.3438 21.0338 12.3996 20.914C12.4904 20.7051 12.6215 20.517 12.7851 20.3607C12.9486 20.2043 13.1413 20.0831 13.3517 20.004C13.6686 19.8709 14.0093 19.8071 14.3519 19.8166C14.6945 19.8261 15.0313 19.9088 15.3406 20.0592C15.9659 20.351 16.3798 20.9782 16.2505 21.6736C16.243 21.7132 16.2223 21.749 16.1918 21.7748C16.1613 21.8006 16.1229 21.8148 16.0833 21.815L15.4327 21.8169C15.3859 21.8171 15.3408 21.7984 15.3074 21.7649C15.2739 21.7315 15.2548 21.686 15.2542 21.6382C15.2516 21.4531 15.2939 21.2244 15.1261 21.0727Z" fill="white"/>
<path id="Path 19818" d="M21.7225 25.5194C20.6649 25.5791 19.3575 25.4757 19.3909 24.0162C19.4105 23.1595 19.3897 22.2977 19.3922 21.4404C19.3941 20.8723 19.4988 20.3447 20.0219 20.0626C20.5942 19.7541 21.5754 19.7856 22.1951 19.8955C23.0261 20.042 23.3561 20.569 23.3605 21.3922C23.3651 22.2864 23.3628 23.1803 23.3536 24.074C23.3435 25.1325 22.6248 25.468 21.7225 25.5194ZM22.3351 21.3183C22.3351 21.1838 22.2827 21.0549 22.1893 20.9598C22.096 20.8647 21.9693 20.8113 21.8373 20.8113H20.9135C20.7815 20.8113 20.6549 20.8647 20.5615 20.9598C20.4681 21.0549 20.4157 21.1838 20.4157 21.3183V24.0213C20.4157 24.1558 20.4681 24.2848 20.5615 24.3799C20.6549 24.475 20.7815 24.5284 20.9135 24.5284H21.8373C21.9693 24.5284 22.096 24.475 22.1893 24.3799C22.2827 24.2848 22.3351 24.1558 22.3351 24.0213V21.3183Z" fill="white"/>
<path id="Path 19819" d="M26.4593 20.1043C26.4591 20.0666 26.4662 20.0294 26.4802 19.9946C26.4942 19.9598 26.5148 19.9281 26.5409 19.9014C26.5669 19.8747 26.5978 19.8536 26.6319 19.8391C26.666 19.8246 26.7025 19.8171 26.7395 19.817L28.5182 19.8106C29.7101 19.8063 30.679 20.6637 30.6825 21.7257L30.6888 23.5891C30.6925 24.6506 29.7297 25.5146 28.5383 25.519L26.759 25.5254C26.7221 25.5255 26.6855 25.5183 26.6514 25.5041C26.6173 25.4899 26.5862 25.469 26.56 25.4425C26.5338 25.4161 26.513 25.3847 26.4988 25.35C26.4845 25.3154 26.4771 25.2782 26.4769 25.2407L26.4593 20.1043ZM27.4979 20.8722V24.4891C27.4979 24.5085 27.5055 24.5272 27.519 24.5409C27.5325 24.5546 27.5508 24.5624 27.5698 24.5624H28.5416C29.159 24.5624 29.6597 24.1693 29.6597 23.6845V21.6768C29.6597 21.192 29.159 20.799 28.5416 20.799H27.5698C27.5508 20.799 27.5325 20.8067 27.519 20.8204C27.5055 20.8342 27.4979 20.8528 27.4979 20.8722Z" fill="white"/>
<path id="Path 19820" d="M34.8281 24.554L37.3382 24.5534C37.3429 24.5527 37.3477 24.5531 37.3522 24.5547C37.3567 24.5562 37.3608 24.5588 37.3642 24.5622C37.3676 24.5656 37.3701 24.5698 37.3716 24.5744C37.3731 24.579 37.3735 24.5839 37.3729 24.5887L37.3722 25.4872C37.3729 25.4916 37.3725 25.4961 37.3711 25.5004C37.3697 25.5047 37.3673 25.5086 37.3642 25.5117C37.3611 25.5149 37.3573 25.5173 37.3531 25.5187C37.3489 25.5202 37.3444 25.5206 37.3401 25.5199L33.9939 25.5206C33.9355 25.5206 33.8794 25.497 33.838 25.4549C33.7966 25.4129 33.7732 25.3558 33.7731 25.2963C33.7739 23.5654 33.775 21.8302 33.7762 20.0908C33.7766 19.9044 33.8705 19.8116 34.0576 19.8125C35.1564 19.8172 36.2516 19.8206 37.3432 19.8228C37.3472 19.8222 37.3513 19.8226 37.3552 19.8239C37.3591 19.8252 37.3626 19.8274 37.3655 19.8303C37.3683 19.8333 37.3705 19.8368 37.3718 19.8408C37.3731 19.8447 37.3734 19.8489 37.3729 19.853L37.3748 20.763C37.3754 20.7676 37.375 20.7723 37.3735 20.7768C37.3721 20.7812 37.3697 20.7852 37.3664 20.7886C37.3632 20.7919 37.3592 20.7943 37.3549 20.7958C37.3505 20.7973 37.3459 20.7977 37.3413 20.7971L34.8306 20.7964C34.8261 20.7957 34.8215 20.7961 34.8172 20.7975C34.8129 20.7989 34.8089 20.8014 34.8057 20.8046C34.8024 20.8078 34.8 20.8118 34.7985 20.8162C34.797 20.8206 34.7966 20.8252 34.7972 20.8298L34.7978 22.0689C34.7978 22.0735 34.7988 22.078 34.8005 22.0822C34.8023 22.0865 34.8049 22.0903 34.8081 22.0935C34.8113 22.0968 34.8151 22.0993 34.8193 22.101C34.8235 22.1028 34.828 22.1036 34.8325 22.1036L37.3419 22.1029C37.346 22.1029 37.35 22.1037 37.3538 22.1053C37.3575 22.1069 37.3609 22.1092 37.3638 22.1122C37.3667 22.1151 37.369 22.1186 37.3705 22.1224C37.3721 22.1262 37.3729 22.1303 37.3729 22.1344L37.3754 23.0669C37.3762 23.0725 37.3758 23.0783 37.374 23.0837C37.3723 23.0891 37.3694 23.094 37.3655 23.0981C37.3615 23.1021 37.3567 23.1052 37.3515 23.107C37.3462 23.1089 37.3405 23.1094 37.335 23.1087L34.8312 23.1093C34.8267 23.1087 34.8221 23.1091 34.8177 23.1106C34.8134 23.112 34.8094 23.1145 34.8061 23.1178C34.8029 23.1211 34.8005 23.1252 34.799 23.1296C34.7976 23.134 34.7971 23.1388 34.7978 23.1434L34.7972 24.5225C34.7966 24.5268 34.797 24.5312 34.7983 24.5353C34.7996 24.5394 34.8019 24.5431 34.8049 24.5462C34.8079 24.5492 34.8116 24.5515 34.8156 24.5529C34.8196 24.5542 34.8239 24.5546 34.8281 24.554Z" fill="white"/>
<path id="Path 19821" d="M50.2381 20.9152C49.7718 20.7244 49.1711 20.743 48.7855 21.0798C48.7517 21.1111 48.7251 21.1496 48.7075 21.1926C48.69 21.2356 48.6819 21.282 48.6839 21.3285C48.6713 22.1746 48.6661 23.0208 48.6682 23.867C48.6633 23.9963 48.6977 24.1239 48.7666 24.2326C49.0676 24.6716 50.3068 24.6574 50.551 24.1677C50.6539 23.9614 50.4823 23.5501 50.8179 23.5341C51.0937 23.5212 51.5915 23.4486 51.6136 23.7545C51.7802 26.0546 47.651 26.1034 47.6485 23.8895C47.6477 23.0621 47.6481 22.235 47.6498 21.4082C47.651 20.7996 48.0599 20.3002 48.583 20.056C49.1666 19.7749 49.8348 19.7366 50.4457 19.9493C51.1612 20.1871 51.6912 20.8208 51.6155 21.617C51.601 21.7668 51.4956 21.8111 51.3556 21.8143C51.1553 21.819 50.9641 21.8186 50.782 21.813C50.7334 21.8115 50.6873 21.791 50.6533 21.7556C50.6193 21.7203 50.6001 21.6729 50.5996 21.6235C50.5971 21.2713 50.5984 21.0624 50.2381 20.9152Z" fill="white"/>
<path id="Path 19822" d="M57.5967 23.6439L55.7523 23.6491C55.7428 23.6491 55.7336 23.6529 55.7269 23.6598C55.7201 23.6667 55.7163 23.676 55.7163 23.6857L55.717 25.3026C55.717 25.331 55.7115 25.3591 55.7009 25.3854C55.6903 25.4116 55.6747 25.4355 55.655 25.4556C55.6353 25.4757 55.6119 25.4917 55.5862 25.5026C55.5604 25.5135 55.5328 25.5191 55.5049 25.5192L54.896 25.5211C54.8692 25.5212 54.8427 25.5158 54.8179 25.5054C54.7931 25.495 54.7706 25.4797 54.7516 25.4604C54.7326 25.4412 54.7176 25.4183 54.7073 25.3931C54.697 25.3679 54.6916 25.3408 54.6916 25.3135C54.6912 24.1238 54.6912 22.9237 54.6916 21.7134C54.6916 21.1663 54.8462 20.7308 55.1554 20.4069C55.9883 19.5335 57.7134 19.6498 58.3942 20.6896C58.6126 21.0225 58.6485 21.3111 58.6492 21.7474C58.6508 22.9295 58.6511 24.1214 58.6498 25.3232C58.6498 25.3753 58.6295 25.4253 58.5932 25.4622C58.557 25.4991 58.5079 25.5198 58.4567 25.5198L57.8869 25.5205C57.7145 25.5209 57.6282 25.4333 57.6282 25.2576V23.676C57.6288 23.6717 57.6284 23.6672 57.6271 23.663C57.6257 23.6589 57.6234 23.6551 57.6203 23.6519C57.6173 23.6488 57.6135 23.6465 57.6094 23.6451C57.6053 23.6437 57.601 23.6433 57.5967 23.6439ZM55.7605 22.6716L57.5803 22.678C57.593 22.678 57.6052 22.6729 57.6142 22.6637C57.6232 22.6545 57.6282 22.6421 57.6282 22.6292L57.632 21.5707C57.6335 21.145 57.2365 20.7986 56.7454 20.7969H56.6079C56.1171 20.7952 55.7179 21.1387 55.7163 21.5641L55.7125 22.6227C55.7125 22.6357 55.7176 22.6481 55.7266 22.6573C55.7356 22.6664 55.7478 22.6716 55.7605 22.6716Z" fill="white"/>
<path id="Path 19823" d="M64.5975 23.3894L66.327 25.4922C66.329 25.4947 66.3303 25.4977 66.3307 25.5009C66.3311 25.5041 66.3306 25.5073 66.3293 25.5103C66.328 25.5132 66.3259 25.5157 66.3233 25.5175C66.3207 25.5193 66.3176 25.5203 66.3144 25.5204C65.9266 25.5213 65.5381 25.5215 65.149 25.5211C65.0585 25.5211 64.9609 25.4543 64.8562 25.3206C64.3544 24.6784 63.8536 24.04 63.3538 23.4055C63.3458 23.3954 63.3357 23.3872 63.3243 23.3815C63.3128 23.3759 63.3003 23.3729 63.2876 23.3727L62.8288 23.3701C62.8206 23.3703 62.8127 23.3737 62.8069 23.3798C62.8012 23.3858 62.7979 23.3938 62.7979 23.4023L62.7973 25.3135C62.7972 25.3408 62.7919 25.3678 62.7816 25.393C62.7713 25.4183 62.7563 25.4411 62.7373 25.4604C62.7183 25.4797 62.6958 25.495 62.671 25.5054C62.6462 25.5158 62.6197 25.5211 62.5928 25.5211H61.9934C61.9642 25.5211 61.9353 25.5153 61.9084 25.504C61.8814 25.4926 61.8569 25.4759 61.8363 25.4549C61.8156 25.4339 61.7993 25.409 61.7881 25.3815C61.777 25.354 61.7713 25.3246 61.7713 25.2949V20.0598C61.7713 19.9971 61.7957 19.937 61.839 19.8926C61.8824 19.8481 61.9413 19.823 62.0029 19.8227C62.6949 19.8197 63.3913 19.8216 64.0921 19.8284C64.954 19.8374 65.7345 20.2969 66.0046 21.1446C66.1082 21.4707 66.1101 21.8214 66.0101 22.1487C65.9101 22.4759 65.7131 22.7636 65.4462 22.9723C65.1887 23.1696 64.9143 23.2647 64.6082 23.3534C64.5868 23.3598 64.5832 23.3718 64.5975 23.3894ZM62.8017 20.8329L62.7891 22.311C62.789 22.3181 62.7903 22.3251 62.7929 22.3317C62.7955 22.3383 62.7993 22.3443 62.8042 22.3494C62.809 22.3545 62.8148 22.3585 62.8212 22.3613C62.8276 22.3641 62.8345 22.3656 62.8415 22.3656L64.0776 22.3766C64.6131 22.3815 65.0504 22.038 65.0543 21.6092V21.5758C65.0583 21.147 64.6272 20.7954 64.0914 20.7905L62.8553 20.7796C62.8484 20.7795 62.8415 20.7808 62.835 20.7834C62.8285 20.7861 62.8227 20.79 62.8177 20.7949C62.8127 20.7999 62.8087 20.8058 62.806 20.8123C62.8032 20.8188 62.8018 20.8258 62.8017 20.8329Z" fill="white"/>
<path id="Path 19827" d="M24.3063 36.3023C25.9919 36.3177 27.6794 36.3188 29.3688 36.3055C29.9072 36.3012 30.4681 36.4291 31.0516 36.6892C32.4814 37.3261 33.1919 38.7206 33.2071 40.2701C33.2197 41.5819 33.2256 42.8957 33.2247 44.2115C33.2248 44.2151 33.2241 44.2186 33.2228 44.2219C33.2215 44.2253 33.2196 44.2283 33.2171 44.2309C33.2146 44.2334 33.2117 44.2355 33.2085 44.2369C33.2052 44.2383 33.2018 44.2391 33.1982 44.2391H6.15404C6.14389 44.2391 6.13384 44.237 6.12448 44.233C6.11512 44.229 6.10662 44.2232 6.09947 44.2158C6.09233 44.2085 6.08667 44.1998 6.08282 44.1902C6.07897 44.1806 6.07702 44.1704 6.07706 44.1601L6.07958 29.3436C6.07958 29.3365 6.08237 29.3296 6.08734 29.3245C6.09231 29.3195 6.09905 29.3166 6.10608 29.3166L8.5335 29.3153C8.5451 29.3155 8.55618 29.3203 8.56432 29.3287C8.57247 29.3372 8.57704 29.3485 8.57704 29.3603L8.57893 41.8433C8.57893 41.8521 8.58239 41.8606 8.58854 41.8669C8.59469 41.8732 8.60304 41.8767 8.61174 41.8767H30.7128C30.721 41.8767 30.729 41.8734 30.7349 41.8675C30.7408 41.8616 30.7441 41.8536 30.7443 41.8452C30.7494 41.4926 30.7498 41.1372 30.7456 40.779C30.7515 40.5203 30.7172 40.2622 30.644 40.0143C30.3386 39.1377 29.5846 38.8665 28.71 38.8639C26.3631 38.8575 24.0184 38.8556 21.6757 38.8581C21.6692 38.8581 21.663 38.8555 21.6583 38.8508C21.6537 38.8461 21.6511 38.8397 21.6511 38.8331L21.6505 34.0999C21.6505 34.0691 21.6575 34.0387 21.6711 34.0111C21.6847 33.9835 21.7044 33.9596 21.7287 33.9412C23.7433 32.4241 25.7605 30.9033 27.7806 29.379C27.8607 29.3295 27.954 29.3068 28.0475 29.3141C29.3061 29.3132 30.5477 29.3141 31.7722 29.3166C31.8458 29.3166 31.8532 29.3389 31.7943 29.3835L24.3555 34.9906C24.3357 35.0056 24.3196 35.0251 24.3085 35.0475C24.2973 35.0699 24.2914 35.0947 24.2912 35.1198L24.2874 36.283C24.2875 36.2881 24.2895 36.293 24.293 36.2966C24.2966 36.3002 24.3013 36.3022 24.3063 36.3023Z" fill="white"/>
<path id="Path 19828" d="M53.759 44.3207C53.7582 44.3118 53.7556 44.3031 53.7512 44.2954C53.7469 44.2876 53.741 44.2808 53.7339 44.2755C53.7268 44.2702 53.7186 44.2665 53.71 44.2647C53.7014 44.2628 53.6925 44.2629 53.6839 44.2648C51.1227 44.5231 48.7591 43.7738 48.5439 40.736C48.5216 40.4232 48.5155 39.7429 48.5256 38.6949C48.5327 37.9636 48.5431 37.5358 48.5565 37.4115C48.7698 35.4341 50.2349 34.2978 52.1355 34.3036C53.4967 34.3075 54.8542 34.3098 56.2079 34.3107C56.2199 34.3107 56.2315 34.3156 56.24 34.3243C56.2485 34.3329 56.2533 34.3447 56.2533 34.357V41.8176C56.2533 41.8266 56.2551 41.8355 56.2585 41.8438C56.2619 41.8521 56.2669 41.8596 56.2731 41.866C56.2794 41.8723 56.2869 41.8773 56.295 41.8807C56.3032 41.8841 56.312 41.8858 56.3208 41.8857L72.4893 41.8728C72.4965 41.8728 72.5035 41.8699 72.5087 41.8648C72.5139 41.8596 72.5169 41.8526 72.5171 41.8452C72.5238 41.4892 72.5244 41.1321 72.519 40.7739C72.5135 40.4397 72.4771 40.1794 72.4098 39.9931C72.0792 39.0805 71.2557 38.8517 70.3711 38.8524C68.0638 38.8545 65.7598 38.8569 63.4592 38.8594C63.4503 38.8594 63.4418 38.8558 63.4356 38.8494C63.4293 38.8431 63.4258 38.8344 63.4258 38.8254L63.4232 34.098C63.4233 34.068 63.4302 34.0384 63.4434 34.0116C63.4567 33.9849 63.4759 33.9616 63.4996 33.9437L69.5192 29.4053C69.5972 29.3464 69.6916 29.3146 69.7887 29.3147L73.5418 29.3153C73.6175 29.3153 73.6249 29.3383 73.5639 29.3841L66.1233 34.9945C66.1052 35.0081 66.0905 35.0258 66.0803 35.0463C66.0701 35.0667 66.0647 35.0892 66.0646 35.1121L66.0627 36.231C66.0611 36.2418 66.062 36.2529 66.0654 36.2633C66.0688 36.2738 66.0745 36.2833 66.0821 36.2911C66.0897 36.2989 66.0989 36.3047 66.1091 36.3083C66.1194 36.3118 66.1302 36.3128 66.1409 36.3113C67.9729 36.3096 69.7195 36.3102 71.3806 36.3132C71.8148 36.3139 72.442 36.5279 72.8565 36.713C74.3356 37.3755 75 38.8498 75 40.4468C74.9996 41.6987 74.9989 42.9501 74.9981 44.2012C74.9981 44.2099 74.9947 44.2182 74.9887 44.2244C74.9827 44.2305 74.9745 44.234 74.9659 44.234L56.3044 44.2507C56.2969 44.2495 56.2892 44.2501 56.2819 44.2525C56.2747 44.255 56.2681 44.2591 56.2628 44.2646C56.2574 44.2702 56.2534 44.2769 56.2511 44.2843C56.2488 44.2917 56.2483 44.2996 56.2495 44.3072C56.2678 45.1298 56.0949 46.0758 55.6394 46.7615C55.2904 47.2853 54.5238 47.6882 53.9489 47.8341C53.5411 47.9348 53.123 47.9852 52.7034 47.9845C51.3526 47.9926 50.0063 47.9978 48.6644 47.9999C48.6594 48 48.6544 47.9991 48.6497 47.9972C48.6451 47.9953 48.6408 47.9924 48.6372 47.9889C48.6337 47.9853 48.6308 47.981 48.6289 47.9763C48.6269 47.9715 48.6259 47.9665 48.6259 47.9614L48.6209 45.4936C48.6209 45.4907 48.6215 45.4879 48.6226 45.4853C48.6237 45.4827 48.6253 45.4804 48.6273 45.4784C48.6293 45.4765 48.6316 45.4749 48.6342 45.4739C48.6368 45.4728 48.6396 45.4723 48.6423 45.4724C49.9859 45.4732 51.3291 45.4717 52.6718 45.4679C53.3299 45.4659 53.9067 45.0636 53.759 44.3207ZM51.7399 36.8736C51.2527 37.0831 51.006 37.6718 50.9972 38.1654C50.9917 38.467 50.9917 39.1475 50.9972 40.2071C51.001 40.9911 51.1915 41.6357 52.0017 41.8388C52.4251 41.9448 53.1085 41.8908 53.6221 41.8934C53.6305 41.8946 53.6391 41.8938 53.6471 41.8911C53.6552 41.8884 53.6625 41.8838 53.6685 41.8777C53.6745 41.8716 53.679 41.8641 53.6817 41.8559C53.6844 41.8477 53.6851 41.839 53.6839 41.8304L53.6827 36.8151C53.6835 36.8088 53.6829 36.8024 53.681 36.7963C53.679 36.7902 53.6757 36.7847 53.6713 36.7801C53.6669 36.7755 53.6616 36.772 53.6557 36.7698C53.6498 36.7677 53.6435 36.7669 53.6372 36.7676C53.2393 36.7586 52.8491 36.7577 52.4668 36.765C52.134 36.7714 51.8917 36.8076 51.7399 36.8736Z" fill="white"/>
<path id="Path 19829" d="M44.7788 41.8678C44.8242 40.9237 44.6809 39.8794 44.2777 39.0478C43.4562 37.3519 41.6459 36.8422 39.8962 36.9643C39.889 36.9649 39.8818 36.9639 39.875 36.9614C39.8682 36.959 39.8619 36.9552 39.8567 36.9501C39.8514 36.9451 39.8472 36.9391 39.8443 36.9323C39.8415 36.9256 39.84 36.9183 39.84 36.911V34.3102C39.8392 34.3042 39.8397 34.2982 39.8415 34.2925C39.8434 34.2868 39.8465 34.2816 39.8507 34.2774C39.8549 34.2731 39.8599 34.2699 39.8655 34.268C39.8711 34.2661 39.8771 34.2656 39.8829 34.2665C40.1336 34.2643 40.3896 34.2594 40.6508 34.2517C43.1704 34.1765 45.6022 35.4483 46.6383 37.8531C47.2118 39.186 47.4321 40.5317 47.4359 41.9893C47.4375 42.7309 47.4373 43.471 47.4352 44.2096C47.4352 44.2221 47.4304 44.234 47.4217 44.2428C47.4131 44.2516 47.4014 44.2566 47.3892 44.2566H38.0594C38.0522 44.2566 38.0451 44.2552 38.0384 44.2524C38.0318 44.2497 38.0258 44.2456 38.0207 44.2405C38.0156 44.2354 38.0115 44.2293 38.0087 44.2225C38.0059 44.2158 38.0045 44.2086 38.0045 44.2013L38.0057 41.9025C38.0057 41.8998 38.0068 41.8972 38.0087 41.8952C38.0106 41.8933 38.0131 41.8922 38.0158 41.8922H44.7529C44.7595 41.8923 44.7658 41.8898 44.7706 41.8853C44.7754 41.8807 44.7783 41.8745 44.7788 41.8678Z" fill="white"/>
<path id="Path 19830" d="M0 47.9601V45.4223C1.60208 45.4261 1.99519 44.0444 1.99771 42.664C2.00276 39.8757 2.00591 37.0902 2.00718 34.3075C2.00718 34.3002 2.01003 34.2932 2.01512 34.288C2.02021 34.2828 2.02711 34.2799 2.03431 34.2799L4.39989 34.2773C4.41244 34.2773 4.42448 34.2824 4.43335 34.2915C4.44222 34.3005 4.44721 34.3128 4.44721 34.3255C4.44721 37.2059 4.40557 40.0972 4.45983 42.9776C4.504 45.3117 3.74871 47.597 1.13641 47.9055C0.759407 47.9517 0.379603 47.97 0 47.9601Z" fill="white"/>
</g>
</svg>
