<svg width="24" height="25" viewBox="0 0 24 25" fill="none" xmlns="http://www.w3.org/2000/svg">
<g id="iconspace_Search_Zoom_25px">
<path id="Path" fill-rule="evenodd" clip-rule="evenodd" d="M17.0254 16.4522L19.4691 18.9195C20.148 19.605 19.1299 20.6335 18.451 19.948L16.0071 17.4805C13.0714 19.9259 8.7405 19.739 6.01915 16.9906C3.11365 14.0562 3.11365 9.29855 6.01915 6.36414C8.92465 3.42973 13.6354 3.42973 16.5409 6.36414C19.2625 9.11282 19.4473 13.4873 17.0254 16.4522ZM15.5227 7.3925C13.1795 5.02604 9.38053 5.02604 7.03739 7.3925C4.69424 9.75896 4.69424 13.5958 7.03739 15.9622C9.38053 18.3287 13.1795 18.3287 15.5227 15.9622C17.8658 13.5958 17.8658 9.75896 15.5227 7.3925Z" fill="white"/>
</g>
</svg>
