<svg width="30" height="30" viewBox="0 0 30 30" fill="none" xmlns="http://www.w3.org/2000/svg">
<g id="_x30_4_world">
<g id="Group">
<path id="Vector" d="M21 11C22.6569 11 24 9.65685 24 8C24 6.34315 22.6569 5 21 5C19.3431 5 18 6.34315 18 8C18 9.65685 19.3431 11 21 11Z" fill="#90A3BF"/>
<g id="Group_2">
<g id="Group_3">
<path id="Vector_2" d="M20.9754 16H9.02539C9.04939 16.698 9.10339 17.368 9.17539 18.018C10.6194 18.082 11.8564 18.912 12.5054 20.115C13.3284 20.042 14.1594 20 15.0004 20C16.8534 20 18.6634 20.182 20.4214 20.516C20.7244 19.155 20.9174 17.64 20.9754 16Z" fill="#90A3BF"/>
<path id="Vector_3" d="M14.9994 2C13.1754 2 11.2704 4.073 10.1094 7.548C11.6964 7.84 13.3294 8 14.9994 8C15.6764 8 16.3444 7.967 17.0084 7.917C17.0344 6.634 17.6694 5.506 18.6344 4.792C17.5654 3.018 16.2664 2 14.9994 2Z" fill="#90A3BF"/>
<path id="Vector_4" d="M17.4944 9.88589C16.6724 9.95789 15.8414 9.99989 15.0004 9.99989C13.1474 9.99989 11.3374 9.81789 9.57939 9.48389C9.27639 10.8439 9.08339 12.3589 9.02539 13.9999H20.9744C20.9504 13.3019 20.8964 12.6319 20.8244 11.9819C19.3804 11.9179 18.1444 11.0879 17.4944 9.88589Z" fill="#90A3BF"/>
<path id="Vector_5" d="M22.7852 11.56C22.8792 12.351 22.9442 13.164 22.9732 14H29.9492C29.7812 11.463 28.9822 9.10101 27.7042 7.06201C26.8202 7.49501 25.9092 7.88201 24.9772 8.22401C24.8942 9.68801 24.0272 10.934 22.7852 11.56Z" fill="#90A3BF"/>
<path id="Vector_6" d="M20.505 4.05C20.669 4.029 20.83 4 21 4C22.567 4 23.913 4.914 24.568 6.23C25.23 5.978 25.886 5.713 26.522 5.412C23.77 2.108 19.627 0 15 0C17.156 0 19.082 1.532 20.505 4.05Z" fill="#90A3BF"/>
<path id="Vector_7" d="M15.0002 28C16.8242 28 18.7292 25.927 19.8902 22.452C18.3032 22.16 16.6702 22 15.0002 22C14.3232 22 13.6552 22.033 12.9912 22.083C12.9652 23.366 12.3302 24.494 11.3652 25.208C12.4342 26.982 13.7332 28 15.0002 28Z" fill="#90A3BF"/>
<path id="Vector_8" d="M9.49552 25.95C9.33152 25.971 9.17052 26 9.00052 26C7.43352 26 6.08752 25.086 5.43252 23.77C4.77052 24.022 4.11452 24.287 3.47852 24.588C6.23052 27.892 10.3735 30 15.0005 30C12.8445 30 10.9185 28.468 9.49552 25.95Z" fill="#90A3BF"/>
<path id="Vector_9" d="M15 29.9999C19.627 29.9999 23.77 27.8919 26.522 24.5879C25.029 23.8799 23.46 23.3039 21.833 22.8779C20.44 27.1759 17.932 29.9999 15 29.9999Z" fill="#90A3BF"/>
<path id="Vector_10" d="M22.3652 20.951C24.2232 21.44 26.0102 22.109 27.7032 22.938C28.9812 20.899 29.7802 18.538 29.9482 16H22.9722C22.9142 17.755 22.7082 19.423 22.3652 20.951Z" fill="#90A3BF"/>
<path id="Vector_11" d="M7.63378 9.04899C5.77478 8.56099 3.98878 7.89199 2.29578 7.06299C1.01778 9.10199 0.218781 11.463 0.0507812 14.001H7.02678C7.08478 12.245 7.29078 10.577 7.63378 9.04899Z" fill="#90A3BF"/>
<path id="Vector_12" d="M15.0005 0C10.3735 0 6.23052 2.108 3.47852 5.412C4.97152 6.12 6.54052 6.696 8.16752 7.122C9.56052 2.824 12.0685 0 15.0005 0Z" fill="#90A3BF"/>
<path id="Vector_13" d="M7.21378 18.44C7.11978 17.649 7.05478 16.836 7.02578 16H0.0507812C0.218781 18.537 1.01778 20.899 2.29578 22.938C3.17978 22.505 4.09078 22.118 5.02278 21.776C5.10478 20.312 5.97178 19.066 7.21378 18.44Z" fill="#90A3BF"/>
</g>
<path id="Vector_14" d="M9 25C10.6569 25 12 23.6569 12 22C12 20.3431 10.6569 19 9 19C7.34315 19 6 20.3431 6 22C6 23.6569 7.34315 25 9 25Z" fill="#90A3BF"/>
</g>
</g>
</g>
</svg>
