<svg width="24" height="24" viewBox="0 0 24 24" fill="none" xmlns="http://www.w3.org/2000/svg">
<path d="M21.894 9.96456L12.5337 0.602803C11.9816 0.0521139 11.0886 0.0586296 10.5438 0.602099C9.99583 1.15143 9.99583 2.04337 10.5438 2.59199L19.9055 11.9531C20.4539 12.5015 21.3456 12.5015 21.894 11.9531C22.444 11.4032 22.444 10.5144 21.894 9.96456Z" fill="#DCB63B"/>
<path d="M9.84943 3.88623L9.77898 4.23939C9.28271 6.7218 8.07661 9.08013 6.44531 10.9916L11.5382 16.0844C13.4493 14.4534 15.7752 13.2149 18.2577 12.7181L18.6115 12.6476L9.84943 3.88623Z" fill="#DCB63B"/>
<path d="M5.51083 12.0464L2.03021 15.5263C1.20779 16.3487 1.20437 17.6839 2.03021 18.5098L4.01875 20.4983C4.84117 21.3207 6.17636 21.3241 7.0022 20.4983L10.4825 17.018L5.51083 12.0464ZM6.00798 17.5155C5.73334 17.7902 5.28836 17.7902 5.01372 17.5155C4.73908 17.2409 4.73908 16.7959 5.01372 16.5213L6.00798 15.527C6.28263 15.2524 6.72761 15.2524 7.00225 15.527C7.27689 15.8016 7.27689 16.2466 7.00225 16.5213L6.00798 17.5155Z" fill="#DCB63B"/>
<path d="M13.4197 20.8726L14.3762 19.9161C15.2021 19.0903 15.1993 17.7551 14.3762 16.9334L13.6658 16.2224C13.2731 16.4862 12.8981 16.7728 12.5335 17.0786L13.3819 17.9283C13.6559 18.2009 13.6579 18.6445 13.3819 18.9219L12.4097 19.8941L10.9808 18.5098L8.99219 20.4984L12.1824 23.5897C12.7268 24.1355 13.6206 24.1386 14.1702 23.589C14.7188 23.0403 14.7188 22.1484 14.1702 21.5997L13.4197 20.8726Z" fill="#DCB63B"/>
<path d="M16.2598 0C15.8711 0 15.5566 0.314485 15.5566 0.703126V2.10938C15.5566 2.49802 15.8711 2.81251 16.2598 2.81251C16.6484 2.81251 16.9629 2.49802 16.9629 2.10938V0.703126C16.9629 0.314485 16.6484 0 16.2598 0Z" fill="#DCB63B"/>
<path d="M21.8848 5.625H20.4785C20.0899 5.625 19.7754 5.93948 19.7754 6.32813C19.7754 6.71677 20.0899 7.03125 20.4785 7.03125H21.8848C22.2734 7.03125 22.5879 6.71677 22.5879 6.32813C22.5879 5.93948 22.2734 5.625 21.8848 5.625Z" fill="#DCB63B"/>
<path d="M20.9756 1.61223C20.701 1.33759 20.256 1.33759 19.9814 1.61223L18.5751 3.01848C18.3005 3.29312 18.3005 3.73811 18.5751 4.01275C18.8498 4.28739 19.2947 4.28744 19.5694 4.01275L20.9756 2.6065C21.2503 2.33186 21.2503 1.88687 20.9756 1.61223Z" fill="#DCB63B"/>
</svg>
