<svg width="24" height="24" viewBox="0 0 24 24" fill="none" xmlns="http://www.w3.org/2000/svg">
<path d="M21.894 9.9648L12.5337 0.603047C11.9816 0.0523581 11.0886 0.0588737 10.5438 0.602344C9.99583 1.15167 9.99583 2.04361 10.5438 2.59224L19.9055 11.9533C20.4539 12.5018 21.3456 12.5018 21.894 11.9533C22.444 11.4034 22.444 10.5146 21.894 9.9648Z" fill="#90A3BF"/>
<path d="M9.84894 3.88623L9.77849 4.23939C9.28222 6.7218 8.07612 9.08013 6.44482 10.9916L11.5377 16.0844C13.4489 14.4534 15.7747 13.2149 18.2572 12.7181L18.611 12.6476L9.84894 3.88623Z" fill="#90A3BF"/>
<path d="M5.51131 12.0464L2.0307 15.5263C1.20828 16.3487 1.20485 17.6839 2.0307 18.5098L4.01923 20.4983C4.84166 21.3207 6.17685 21.3241 7.00269 20.4983L10.483 17.018L5.51131 12.0464ZM6.00847 17.5155C5.73383 17.7902 5.28885 17.7902 5.0142 17.5155C4.73956 17.2409 4.73956 16.7959 5.0142 16.5213L6.00847 15.527C6.28311 15.2524 6.7281 15.2524 7.00274 15.527C7.27738 15.8016 7.27738 16.2466 7.00274 16.5213L6.00847 17.5155Z" fill="#90A3BF"/>
<path d="M13.4187 20.8723L14.3752 19.9158C15.2011 19.0901 15.1984 17.7549 14.3752 16.9331L13.6648 16.2222C13.2721 16.4859 12.8971 16.7725 12.5325 17.0783L13.381 17.928C13.655 18.2006 13.6569 18.6442 13.381 18.9216L12.4087 19.8939L10.9798 18.5095L8.99121 20.4982L12.1814 23.5894C12.7258 24.1352 13.6197 24.1383 14.1692 23.5887C14.7178 23.0401 14.7178 22.1482 14.1692 21.5995L13.4187 20.8723Z" fill="#90A3BF"/>
<path d="M16.2593 0C15.8706 0 15.5562 0.314485 15.5562 0.703126V2.10938C15.5562 2.49802 15.8706 2.81251 16.2593 2.81251C16.6479 2.81251 16.9624 2.49802 16.9624 2.10938V0.703126C16.9624 0.314485 16.6479 0 16.2593 0Z" fill="#90A3BF"/>
<path d="M21.8843 5.625H20.478C20.0894 5.625 19.7749 5.93948 19.7749 6.32813C19.7749 6.71677 20.0894 7.03125 20.478 7.03125H21.8843C22.2729 7.03125 22.5874 6.71677 22.5874 6.32813C22.5874 5.93948 22.2729 5.625 21.8843 5.625Z" fill="#90A3BF"/>
<path d="M20.9752 1.61223C20.7005 1.33759 20.2555 1.33759 19.9809 1.61223L18.5746 3.01848C18.3 3.29312 18.3 3.73811 18.5746 4.01275C18.8493 4.28739 19.2943 4.28744 19.5689 4.01275L20.9752 2.6065C21.2498 2.33186 21.2498 1.88687 20.9752 1.61223Z" fill="#90A3BF"/>
</svg>
