<svg width="24" height="24" viewBox="0 0 24 24" fill="none" xmlns="http://www.w3.org/2000/svg">
<g id="Group">
<path id="Vector" d="M8.92822 0.86377H12.4802V4.12777H8.92822V0.86377Z" fill="#90A3BF"/>
<path id="Vector_2" d="M3.55198 20.6398H11.52C11.136 19.7758 10.944 18.8158 10.944 17.8558C10.944 13.8238 14.208 10.6558 18.144 10.6558C18.912 10.6558 19.584 10.7518 20.256 10.9438V3.83977C20.256 2.20777 18.912 0.86377 17.184 0.86377H14.304V5.08777C14.304 5.66377 13.92 6.04777 13.344 6.04777H7.96798C7.39198 6.04777 7.00798 5.66377 7.00798 5.08777V0.86377H3.55198C1.82398 0.86377 0.47998 2.20777 0.47998 3.83977V17.6638C0.47998 19.2958 1.82398 20.6398 3.55198 20.6398Z" fill="#90A3BF"/>
<path id="Vector_3" d="M18.24 12.5757C15.264 12.5757 12.96 14.9757 12.96 17.8557C12.96 20.8317 15.36 23.1357 18.24 23.1357C21.216 23.1357 23.52 20.7357 23.52 17.8557C23.52 14.9757 21.12 12.5757 18.24 12.5757ZM20.448 18.2397L17.568 19.4877C17.28 19.5837 17.088 19.5837 16.8 19.4877C16.512 19.3917 16.416 19.1997 16.32 19.0077L15.744 17.6637C15.552 17.1837 15.84 16.6077 16.32 16.4157C16.8 16.2237 17.376 16.4157 17.568 16.8957L17.76 17.3757L19.68 16.5117C20.16 16.3197 20.736 16.5117 20.928 16.9917C21.216 17.4717 20.928 18.0477 20.448 18.2397Z" fill="#90A3BF"/>
</g>
</svg>
