<svg width="24" height="22" viewBox="0 0 24 22" fill="none" xmlns="http://www.w3.org/2000/svg">
<g id="Group">
<path id="Vector" d="M3.69961 6.30889L2.86865 7.93798C3.24337 7.85609 3.63225 7.8125 4.03115 7.8125H8.90615V4.39062H6.83132C5.48301 4.39062 4.31226 5.10772 3.69961 6.30889Z" fill="#90A3BF"/>
<path id="Vector_2" d="M0.0851719 9.92183C0.0851719 10.3101 0.399984 10.625 0.788297 10.625H0.975609C0.368344 11.3309 0 12.248 0 13.25V15.4531C0 15.8414 0.314812 16.1562 0.703125 16.1562H8.90625V13.3906H8.20219C7.27027 13.356 7.27097 12.0186 8.20219 11.9844H8.90625V9.21875H0.788297C0.399984 9.2187 0.0851719 9.53352 0.0851719 9.92183ZM3.51886 11.9844H5.12559C6.05752 12.019 6.05681 13.3564 5.12559 13.3906H3.51886C2.58698 13.356 2.58769 12.0186 3.51886 11.9844Z" fill="#90A3BF"/>
<path id="Vector_3" d="M0.00390625 17.4429C0.0202656 18.287 0.711484 18.9687 1.55945 18.9687H3.79061C4.59812 18.9687 5.26375 18.3505 5.33955 17.5625H0.703094C0.458078 17.5625 0.222859 17.52 0.00390625 17.4429Z" fill="#90A3BF"/>
<path id="Vector_4" d="M19.1456 1.90625L19.616 0.59375H14.6963L15.1663 1.90625H19.1456Z" fill="#90A3BF"/>
<path id="Vector_5" d="M19.1016 15.3125H15.211C14.2793 15.3479 14.28 16.6836 15.211 16.7188H19.1016C20.0334 16.6834 20.0326 15.3476 19.1016 15.3125Z" fill="#90A3BF"/>
<path id="Vector_6" d="M21.8052 0.59375H21.1098L20.3025 2.84656C20.2023 3.12603 19.9374 3.3125 19.6406 3.3125H14.6712C14.3743 3.3125 14.1094 3.12598 14.0093 2.84642L13.2026 0.59375H12.5073C11.2971 0.59375 10.3125 1.57836 10.3125 2.78853V19.2115C10.3125 20.4217 11.2971 21.4062 12.5072 21.4062H21.8052C23.0154 21.4062 24 20.4217 24 19.2115V2.78853C24 1.57836 23.0154 0.59375 21.8052 0.59375ZM13.8452 7.25H20.4673C21.3992 7.28459 21.3985 8.62198 20.4673 8.65625H13.8452C12.9133 8.62166 12.914 7.28427 13.8452 7.25ZM20.1333 10.7656C20.1333 11.1539 19.8185 11.4688 19.4302 11.4688H14.8823C13.9504 11.4342 13.9511 10.0968 14.8823 10.0625H19.4302C19.8185 10.0625 20.1333 10.3773 20.1333 10.7656ZM19.1016 18.125H15.2109C12.4157 18.0186 12.4178 14.0116 15.2109 13.9062H19.1016C21.8968 14.0126 21.8947 18.0196 19.1016 18.125Z" fill="#90A3BF"/>
</g>
</svg>
