<svg width="24" height="24" viewBox="0 0 24 24" fill="none" xmlns="http://www.w3.org/2000/svg">
<g id="13-Budget">
<path id="Vector" d="M3.48375 7.875C3.41121 7.5044 3.37479 7.12763 3.375 6.75C3.375 5.1587 4.00714 3.63258 5.13236 2.50736C6.25758 1.38214 7.7837 0.75 9.375 0.75C10.9663 0.75 12.4924 1.38214 13.6176 2.50736C14.7429 3.63258 15.375 5.1587 15.375 6.75C15.3752 7.12763 15.3388 7.5044 15.2662 7.875H13.7325C13.9039 7.2101 13.9209 6.51478 13.7822 5.8423C13.6434 5.16981 13.3527 4.538 12.9321 3.99523C12.5115 3.45246 11.9723 3.01314 11.3557 2.7109C10.7392 2.40866 10.0616 2.25153 9.375 2.25153C8.68835 2.25153 8.01081 2.40866 7.39426 2.7109C6.77771 3.01314 6.2385 3.45246 5.81792 3.99523C5.39734 4.538 5.10655 5.16981 4.96781 5.8423C4.82907 6.51478 4.84607 7.2101 5.0175 7.875H3.48375ZM16.0275 7.875H18V6.375C18.0001 6.178 17.9613 5.98292 17.8859 5.80091C17.8106 5.6189 17.7001 5.45352 17.5608 5.31422C17.4215 5.17492 17.2561 5.06443 17.0741 4.98907C16.8921 4.91371 16.697 4.87495 16.5 4.875H15.8588C16.0353 5.48436 16.1249 6.11559 16.125 6.75C16.1248 7.1271 16.0922 7.50349 16.0275 7.875ZM13.875 10.5H19.5C19.4998 10.0028 19.3022 9.52596 18.9506 9.17437C18.599 8.82278 18.1222 8.62518 17.625 8.625H2.25C1.69549 8.62623 1.16052 8.42027 0.75 8.0475V18C0.750179 18.4972 0.94778 18.974 1.29937 19.3256C1.65096 19.6772 2.12777 19.8748 2.625 19.875H11.25V13.125C11.2508 12.429 11.5276 11.7618 12.0197 11.2697C12.5118 10.7776 13.179 10.5008 13.875 10.5ZM2.25 7.875H2.7225C2.65778 7.50349 2.62516 7.1271 2.625 6.75C2.6251 6.11559 2.71473 5.48436 2.89125 4.875H2.25C1.85218 4.875 1.47064 5.03304 1.18934 5.31434C0.908035 5.59564 0.75 5.97718 0.75 6.375C0.75 6.77282 0.908035 7.15436 1.18934 7.43566C1.47064 7.71696 1.85218 7.875 2.25 7.875ZM12.9525 7.875C13.0674 7.51108 13.1256 7.13163 13.125 6.75C13.125 5.75544 12.7299 4.80161 12.0267 4.09835C11.3234 3.39509 10.3696 3 9.375 3C8.38044 3 7.42661 3.39509 6.72335 4.09835C6.02009 4.80161 5.625 5.75544 5.625 6.75C5.62438 7.13163 5.68256 7.51108 5.7975 7.875H10.0912C10.114 7.81511 10.1254 7.75155 10.125 7.6875C10.1251 7.6136 10.1106 7.54041 10.0824 7.47212C10.0542 7.40383 10.0127 7.34178 9.96047 7.28953C9.90821 7.23728 9.84617 7.19585 9.77788 7.16762C9.70959 7.13938 9.6364 7.1249 9.5625 7.125H9.1875C8.85598 7.12565 8.53654 7.00055 8.29363 6.77493C8.05072 6.54931 7.90241 6.23996 7.87862 5.90929C7.85483 5.57862 7.95733 5.25124 8.16545 4.99317C8.37356 4.7351 8.6718 4.56556 9 4.51875V4.125C9 4.02554 9.03951 3.93016 9.10983 3.85984C9.18016 3.78951 9.27554 3.75 9.375 3.75C9.47446 3.75 9.56984 3.78951 9.64017 3.85984C9.71049 3.93016 9.75 4.02554 9.75 4.125V4.5H10.5C10.5995 4.5 10.6948 4.53951 10.7652 4.60984C10.8355 4.68016 10.875 4.77554 10.875 4.875C10.875 4.97446 10.8355 5.06984 10.7652 5.14016C10.6948 5.21049 10.5995 5.25 10.5 5.25H9.1875C9.03832 5.25 8.89524 5.30926 8.78975 5.41475C8.68426 5.52024 8.625 5.66332 8.625 5.8125C8.625 5.96168 8.68426 6.10476 8.78975 6.21025C8.89524 6.31574 9.03832 6.375 9.1875 6.375H9.5625C9.91048 6.37538 10.2441 6.51378 10.4902 6.75984C10.7362 7.0059 10.8746 7.33952 10.875 7.6875C10.8757 7.75033 10.8707 7.81309 10.86 7.875H12.9525ZM20.25 21H21V20.25H20.25V21ZM14.25 18H15V17.25H14.25V18ZM17.25 21H18V20.25H17.25V21ZM20.25 18H21V17.25H20.25V18ZM17.25 18H18V17.25H17.25V18ZM14.25 21H15V20.25H14.25V21ZM23.25 13.125V21.375C23.2494 21.8721 23.0517 22.3487 22.7002 22.7002C22.3487 23.0517 21.8721 23.2494 21.375 23.25H13.875C13.3779 23.2494 12.9013 23.0517 12.5498 22.7002C12.1983 22.3487 12.0006 21.8721 12 21.375V13.125C12.0006 12.6279 12.1983 12.1513 12.5498 11.7998C12.9013 11.4483 13.3779 11.2506 13.875 11.25H21.375C21.8721 11.2506 22.3487 11.4483 22.7002 11.7998C23.0517 12.1513 23.2494 12.6279 23.25 13.125ZM15.75 19.875C15.75 19.7755 15.7105 19.6802 15.6402 19.6098C15.5698 19.5395 15.4745 19.5 15.375 19.5H13.875C13.7755 19.5 13.6802 19.5395 13.6098 19.6098C13.5395 19.6802 13.5 19.7755 13.5 19.875V21.375C13.5 21.4745 13.5395 21.5698 13.6098 21.6402C13.6802 21.7105 13.7755 21.75 13.875 21.75H15.375C15.4745 21.75 15.5698 21.7105 15.6402 21.6402C15.7105 21.5698 15.75 21.4745 15.75 21.375V19.875ZM15.75 16.875C15.75 16.7755 15.7105 16.6802 15.6402 16.6098C15.5698 16.5395 15.4745 16.5 15.375 16.5H13.875C13.7755 16.5 13.6802 16.5395 13.6098 16.6098C13.5395 16.6802 13.5 16.7755 13.5 16.875V18.375C13.5 18.4745 13.5395 18.5698 13.6098 18.6402C13.6802 18.7105 13.7755 18.75 13.875 18.75H15.375C15.4745 18.75 15.5698 18.7105 15.6402 18.6402C15.7105 18.5698 15.75 18.4745 15.75 18.375V16.875ZM18.75 19.875C18.75 19.7755 18.7105 19.6802 18.6402 19.6098C18.5698 19.5395 18.4745 19.5 18.375 19.5H16.875C16.7755 19.5 16.6802 19.5395 16.6098 19.6098C16.5395 19.6802 16.5 19.7755 16.5 19.875V21.375C16.5 21.4745 16.5395 21.5698 16.6098 21.6402C16.6802 21.7105 16.7755 21.75 16.875 21.75H18.375C18.4745 21.75 18.5698 21.7105 18.6402 21.6402C18.7105 21.5698 18.75 21.4745 18.75 21.375V19.875ZM18.75 16.875C18.75 16.7755 18.7105 16.6802 18.6402 16.6098C18.5698 16.5395 18.4745 16.5 18.375 16.5H16.875C16.7755 16.5 16.6802 16.5395 16.6098 16.6098C16.5395 16.6802 16.5 16.7755 16.5 16.875V18.375C16.5 18.4745 16.5395 18.5698 16.6098 18.6402C16.6802 18.7105 16.7755 18.75 16.875 18.75H18.375C18.4745 18.75 18.5698 18.7105 18.6402 18.6402C18.7105 18.5698 18.75 18.4745 18.75 18.375V16.875ZM21.75 19.875C21.75 19.7755 21.7105 19.6802 21.6402 19.6098C21.5698 19.5395 21.4745 19.5 21.375 19.5H19.875C19.7755 19.5 19.6802 19.5395 19.6098 19.6098C19.5395 19.6802 19.5 19.7755 19.5 19.875V21.375C19.5 21.4745 19.5395 21.5698 19.6098 21.6402C19.6802 21.7105 19.7755 21.75 19.875 21.75H21.375C21.4745 21.75 21.5698 21.7105 21.6402 21.6402C21.7105 21.5698 21.75 21.4745 21.75 21.375V19.875ZM21.75 16.875C21.75 16.7755 21.7105 16.6802 21.6402 16.6098C21.5698 16.5395 21.4745 16.5 21.375 16.5H19.875C19.7755 16.5 19.6802 16.5395 19.6098 16.6098C19.5395 16.6802 19.5 16.7755 19.5 16.875V18.375C19.5 18.4745 19.5395 18.5698 19.6098 18.6402C19.6802 18.7105 19.7755 18.75 19.875 18.75H21.375C21.4745 18.75 21.5698 18.7105 21.6402 18.6402C21.7105 18.5698 21.75 18.4745 21.75 18.375V16.875ZM21.75 13.125C21.75 13.0255 21.7105 12.9302 21.6402 12.8598C21.5698 12.7895 21.4745 12.75 21.375 12.75H13.875C13.7755 12.75 13.6802 12.7895 13.6098 12.8598C13.5395 12.9302 13.5 13.0255 13.5 13.125V15.375C13.5 15.4745 13.5395 15.5698 13.6098 15.6402C13.6802 15.7105 13.7755 15.75 13.875 15.75H21.375C21.4745 15.75 21.5698 15.7105 21.6402 15.6402C21.7105 15.5698 21.75 15.4745 21.75 15.375V13.125ZM14.25 15H21V13.5H14.25V15Z" fill="#DCB63B"/>
</g>
</svg>
