<svg width="24" height="24" viewBox="0 0 24 24" fill="none" xmlns="http://www.w3.org/2000/svg">
<path id="Vector" fill-rule="evenodd" clip-rule="evenodd" d="M12.0453 4.37967V5.4269C12.0127 6.59943 11.5181 7.7131 10.667 8.53102C9.81594 9.34894 8.67544 9.80657 7.48807 9.80657C6.30071 9.80657 5.1602 9.34894 4.3091 8.53102C3.458 7.7131 2.96349 6.59943 2.93081 5.4269V4.37967C2.96354 3.20714 3.45805 2.09347 4.3091 1.27555C5.1602 0.457635 6.30071 0 7.48802 0C8.67539 0 9.8159 0.457635 10.6669 1.27555C11.5181 2.09347 12.0127 3.20714 12.0453 4.37967ZM15.3986 15.7453H22.8261C22.977 15.7536 23.1282 15.7314 23.2702 15.68C23.4123 15.6287 23.5422 15.5492 23.6521 15.4466C23.762 15.3439 23.8495 15.2202 23.9094 15.0829C23.9691 14.9457 24 14.7978 24 14.6484C24 14.499 23.9691 14.3512 23.9094 14.2139C23.8495 14.0767 23.762 13.9529 23.6521 13.8503C23.5422 13.7476 23.4122 13.6682 23.2702 13.6168C23.1282 13.5654 22.977 13.5432 22.8261 13.5516H15.3986C15.1149 13.5672 14.8479 13.6896 14.6527 13.8936C14.4574 14.0976 14.3486 14.3678 14.3486 14.6485C14.3486 14.9292 14.4574 15.1994 14.6527 15.4034C14.8479 15.6072 15.1149 15.7296 15.3986 15.7453ZM15.3986 17.672H22.8261C22.977 17.6637 23.1282 17.6859 23.2702 17.7373C23.4123 17.7886 23.5422 17.8681 23.6521 17.9707C23.762 18.0734 23.8495 18.1971 23.9094 18.3344C23.9691 18.4716 24 18.6195 24 18.7689C24 18.9183 23.9691 19.0661 23.9094 19.2034C23.8495 19.3407 23.762 19.4644 23.6521 19.567C23.5422 19.6697 23.4122 19.7491 23.2702 19.8005C23.1282 19.8519 22.977 19.8741 22.8261 19.8657H15.3986C15.1149 19.8501 14.8479 19.7277 14.6527 19.5237C14.4574 19.3197 14.3486 19.0495 14.3486 18.7688C14.3486 18.4881 14.4574 18.2179 14.6527 18.014C14.8479 17.8101 15.1149 17.6877 15.3986 17.672ZM18.6619 21.7994H15.3985C15.1148 21.815 14.8479 21.9374 14.6526 22.1414C14.4574 22.3454 14.3485 22.6155 14.3485 22.8962C14.3485 23.177 14.4574 23.4471 14.6526 23.6511C14.8479 23.8552 15.1149 23.9774 15.3985 23.9932H18.6619C18.813 24.0014 18.9642 23.9794 19.1061 23.928C19.2482 23.8766 19.3782 23.7972 19.4881 23.6945C19.5979 23.5917 19.6855 23.468 19.7452 23.3307C19.8051 23.1936 19.836 23.0457 19.836 22.8962C19.836 22.7468 19.8051 22.599 19.7452 22.4617C19.6855 22.3245 19.5979 22.2009 19.4881 22.0981C19.3782 21.9954 19.2482 21.916 19.1061 21.8646C18.9642 21.8132 18.813 21.791 18.6619 21.7994ZM12.5223 23.6772C12.7306 23.4714 12.848 23.1925 12.849 22.9014C12.851 22.8644 12.8464 22.8274 12.8351 22.7919V14.065C12.8244 13.7614 12.6938 13.4739 12.4714 13.2641C11.3927 12.3169 10.0602 11.6976 8.63385 11.4806C7.20752 11.2636 5.74807 11.4581 4.43091 12.0407C3.11376 12.6234 1.99496 13.5694 1.20892 14.7651C0.422892 15.9607 0.00310081 17.3552 0 18.781V20.961C0.00182111 21.7665 0.326521 22.5383 0.903026 23.1079C1.47953 23.6774 2.26094 23.9982 3.07625 24H11.7369C12.0316 23.999 12.314 23.883 12.5223 23.6772Z" fill="#DCB63B"/>
</svg>
