<svg width="22" height="22" viewBox="0 0 22 22" fill="none" xmlns="http://www.w3.org/2000/svg">
<g id="GLYPH">
<g id="29-Flask copy 6">
<path id="Vector" d="M6.125 10.25H17.8213C18.1775 9.905 18.5 9.5975 18.7663 9.335C19.2018 8.89582 19.794 8.64762 20.4125 8.645C20.655 8.64521 20.8958 8.68576 21.125 8.765V7.88C21.125 6.7025 20.4275 5.75 19.25 5.75H7.25C6.0725 5.75 5.375 6.7025 5.375 7.88V9.5C5.36578 9.6008 5.37884 9.70239 5.41327 9.79757C5.4477 9.89276 5.50265 9.9792 5.57423 10.0508C5.6458 10.1223 5.73224 10.1773 5.82743 10.2117C5.92261 10.2462 6.0242 10.2592 6.125 10.25ZM18.125 6.875C18.3475 6.875 18.565 6.94098 18.75 7.0646C18.935 7.18821 19.0792 7.36391 19.1644 7.56948C19.2495 7.77505 19.2718 8.00125 19.2284 8.21948C19.185 8.43771 19.0778 8.63816 18.9205 8.7955C18.7632 8.95283 18.5627 9.05998 18.3445 9.10338C18.1262 9.14679 17.9 9.12451 17.6945 9.03936C17.4889 8.95422 17.3132 8.81002 17.1896 8.62502C17.066 8.44001 17 8.2225 17 8C16.9998 7.85221 17.0288 7.70583 17.0852 7.56925C17.1417 7.43267 17.2246 7.30857 17.3291 7.20406C17.4336 7.09956 17.5577 7.0167 17.6942 6.96023C17.8308 6.90377 17.9772 6.8748 18.125 6.875ZM11 6.875H15.5C15.5995 6.875 15.6948 6.91451 15.7652 6.98483C15.8355 7.05516 15.875 7.15054 15.875 7.25C15.875 7.34946 15.8355 7.44484 15.7652 7.51517C15.6948 7.58549 15.5995 7.625 15.5 7.625H11C10.9005 7.625 10.8052 7.58549 10.7348 7.51517C10.6645 7.44484 10.625 7.34946 10.625 7.25C10.625 7.15054 10.6645 7.05516 10.7348 6.98483C10.8052 6.91451 10.9005 6.875 11 6.875ZM11 8.375H15.5C15.5995 8.375 15.6948 8.41451 15.7652 8.48483C15.8355 8.55516 15.875 8.65054 15.875 8.75C15.875 8.84946 15.8355 8.94484 15.7652 9.01517C15.6948 9.08549 15.5995 9.125 15.5 9.125H11C10.9005 9.125 10.8052 9.08549 10.7348 9.01517C10.6645 8.94484 10.625 8.84946 10.625 8.75C10.625 8.65054 10.6645 8.55516 10.7348 8.48483C10.8052 8.41451 10.9005 8.375 11 8.375ZM8.375 6.875C8.5975 6.875 8.81501 6.94098 9.00002 7.0646C9.18502 7.18821 9.32922 7.36391 9.41437 7.56948C9.49951 7.77505 9.52179 8.00125 9.47838 8.21948C9.43498 8.43771 9.32783 8.63816 9.1705 8.7955C9.01316 8.95283 8.81271 9.05998 8.59448 9.10338C8.37625 9.14679 8.15005 9.12451 7.94448 9.03936C7.73891 8.95422 7.56321 8.81002 7.4396 8.62502C7.31598 8.44001 7.25 8.2225 7.25 8C7.2498 7.85221 7.27877 7.70583 7.33523 7.56925C7.3917 7.43267 7.47456 7.30857 7.57907 7.20406C7.68357 7.09956 7.80767 7.0167 7.94425 6.96023C8.08083 6.90377 8.22721 6.8748 8.375 6.875ZM6.875 11.1238V11H9.5V11.1238C9.4997 11.2898 9.43363 11.4489 9.31625 11.5662C9.19887 11.6836 9.03975 11.7497 8.87375 11.75H7.50125C7.33525 11.7497 7.17613 11.6836 7.05875 11.5662C6.94137 11.4489 6.8753 11.2898 6.875 11.1238ZM19.0663 5H7.43375C7.52 4.64375 7.76375 3.5525 7.78625 3.44375C7.85809 3.07637 7.97001 2.71798 8.12 2.375C8.6675 1.13 9.71375 0.125 11 0.125H15.5C16.7863 0.125 17.8325 1.13 18.38 2.375C18.53 2.71798 18.6419 3.07637 18.7138 3.44375C18.7363 3.5525 18.98 4.64375 19.0663 5ZM6.125 3.125C6.12643 2.92653 6.20591 2.7366 6.34625 2.59625C6.4866 2.45591 6.67653 2.37643 6.875 2.375H7.31C7.19763 2.67329 7.11106 2.98066 7.05125 3.29375C7.05125 3.29375 6.99125 3.5825 6.965 3.71375C6.95375 3.76625 6.9425 3.81875 6.9275 3.875H6.875C6.67627 3.87442 6.48584 3.79521 6.34531 3.65469C6.20479 3.51416 6.12558 3.32373 6.125 3.125ZM19.4488 3.2975C19.3889 2.98319 19.3024 2.67457 19.19 2.375H19.625C19.8237 2.37558 20.0142 2.45479 20.1547 2.59531C20.2952 2.73584 20.3744 2.92627 20.375 3.125C20.3736 3.32347 20.2941 3.5134 20.1537 3.65375C20.0134 3.79409 19.8235 3.87357 19.625 3.875H19.5725C19.5575 3.81875 19.5463 3.76625 19.535 3.7175C19.5088 3.5825 19.4488 3.2975 19.4488 3.2975ZM1.25 3.125C1.4725 3.125 1.69001 3.05902 1.87502 2.9354C2.06002 2.81179 2.20422 2.63609 2.28936 2.43052C2.37451 2.22495 2.39679 1.99875 2.35338 1.78052C2.30998 1.56229 2.20283 1.36184 2.0455 1.2045C1.88816 1.04717 1.68771 0.940025 1.46948 0.896617C1.25125 0.853208 1.02505 0.875487 0.819481 0.960636C0.613914 1.04578 0.438213 1.18998 0.314597 1.37498C0.19098 1.55999 0.125 1.7775 0.125 2C0.125328 2.29827 0.243959 2.58423 0.454867 2.79513C0.665774 3.00604 0.951732 3.12467 1.25 3.125ZM1.25 1.625C1.32417 1.625 1.39667 1.64699 1.45834 1.6882C1.52001 1.7294 1.56807 1.78797 1.59645 1.85649C1.62484 1.92502 1.63226 2.00042 1.61779 2.07316C1.60333 2.1459 1.56761 2.21272 1.51517 2.26516C1.46272 2.31761 1.3959 2.35333 1.32316 2.36779C1.25042 2.38226 1.17502 2.37484 1.10649 2.34645C1.03797 2.31807 0.979405 2.27001 0.938199 2.20834C0.896993 2.14667 0.875 2.07417 0.875 2C0.87506 1.90056 0.914588 1.80521 0.984901 1.7349C1.05521 1.66459 1.15056 1.62506 1.25 1.625ZM2.375 5.75C2.375 5.9725 2.44098 6.19001 2.5646 6.37502C2.68821 6.56002 2.86391 6.70422 3.06948 6.78936C3.27505 6.87451 3.50125 6.89679 3.71948 6.85338C3.93771 6.80998 4.13816 6.70283 4.2955 6.5455C4.45283 6.38816 4.55998 6.18771 4.60338 5.96948C4.64679 5.75125 4.62451 5.52505 4.53936 5.31948C4.45422 5.11391 4.31002 4.93821 4.12502 4.8146C3.94001 4.69098 3.7225 4.625 3.5 4.625C3.20173 4.62533 2.91577 4.74396 2.70487 4.95487C2.49396 5.16577 2.37533 5.45173 2.375 5.75ZM3.875 5.75C3.875 5.82417 3.85301 5.89667 3.8118 5.95834C3.7706 6.02001 3.71203 6.06807 3.64351 6.09645C3.57498 6.12484 3.49958 6.13226 3.42684 6.11779C3.3541 6.10332 3.28728 6.06761 3.23484 6.01517C3.18239 5.96272 3.14668 5.8959 3.13221 5.82316C3.11774 5.75042 3.12516 5.67502 3.15355 5.60649C3.18193 5.53797 3.22999 5.4794 3.29166 5.4382C3.35333 5.39699 3.42583 5.375 3.5 5.375C3.59944 5.37506 3.69479 5.41459 3.7651 5.4849C3.83541 5.55521 3.87494 5.65056 3.875 5.75ZM0.58205 5.51562L3.58205 1.76562C3.64421 1.68793 3.73469 1.63811 3.83358 1.62712C3.93247 1.61614 4.03168 1.64489 4.10938 1.70705C4.18707 1.76921 4.23689 1.85969 4.24788 1.95858C4.25886 2.05747 4.23011 2.15668 4.16795 2.23438L1.16795 5.98438C1.10579 6.06207 1.01531 6.11189 0.916419 6.12288C0.817526 6.13386 0.71832 6.10511 0.640625 6.04295C0.56293 5.98079 0.51311 5.89031 0.502125 5.79142C0.49114 5.69253 0.51989 5.59332 0.58205 5.51562ZM21.8563 10.82C21.8499 11.2125 21.7229 11.5935 21.4925 11.9113C20.6 13.175 19.1488 15.185 18.1438 16.5763C17.7953 17.0555 17.3386 17.4457 16.8107 17.7148C16.2828 17.984 15.6988 18.1245 15.1063 18.125H8.39375L8.1725 18.3463L3.6725 13.8463L4.73375 12.785C4.94284 12.5754 5.19127 12.4093 5.46478 12.296C5.73828 12.1827 6.03147 12.1246 6.3275 12.125H14.3938C14.7123 12.1577 15.0057 12.3129 15.2121 12.5577C15.4185 12.8026 15.5217 13.118 15.5 13.4375C15.5223 13.7601 15.4168 14.0786 15.2063 14.3242C14.9958 14.5697 14.6973 14.7227 14.375 14.75H10.25C10.1505 14.75 10.0552 14.7895 9.98484 14.8598C9.91451 14.9302 9.875 15.0255 9.875 15.125C9.875 15.2245 9.91451 15.3198 9.98484 15.3902C10.0552 15.4605 10.1505 15.5 10.25 15.5H14.375C14.8965 15.4734 15.3864 15.2416 15.7376 14.8552C16.0889 14.4688 16.2731 13.9592 16.25 13.4375C16.2506 13.2361 16.2242 13.0356 16.1713 12.8412C16.7113 12.3387 17.255 11.8287 17.7537 11.3525C18.3538 10.7825 18.89 10.2688 19.295 9.8675C19.5677 9.58128 19.9414 9.41287 20.3365 9.39816C20.7316 9.38345 21.1168 9.5236 21.41 9.78875C21.5527 9.9196 21.6662 10.0791 21.7431 10.2568C21.82 10.4345 21.8586 10.6264 21.8563 10.82ZM2.39188 13.625L8.39188 19.625L6.14143 21.875L0.141875 15.8745L2.39188 13.625Z" fill="#DCB63B"/>
</g>
</g>
</svg>
