<svg width="32" height="32" viewBox="0 0 32 32" fill="none" xmlns="http://www.w3.org/2000/svg">
<path d="M26.667 14.6654H29.3336C29.3336 7.82541 24.1696 2.66675 17.3203 2.66675V5.33341C22.7363 5.33341 26.667 9.25741 26.667 14.6654Z" fill="#90A3BF"/>
<path d="M17.3337 10.6667C20.1377 10.6667 21.3337 11.8627 21.3337 14.6667H24.0004C24.0004 10.3667 21.6337 7.99999 17.3337 7.99999V10.6667ZM21.8964 17.924C21.6402 17.6911 21.3035 17.5669 20.9574 17.5776C20.6114 17.5883 20.283 17.7331 20.0417 17.9813L16.851 21.2627C16.083 21.116 14.539 20.6347 12.9497 19.0493C11.3604 17.4587 10.879 15.9107 10.7364 15.148L14.015 11.956C14.2636 11.7148 14.4086 11.3864 14.4193 11.0403C14.43 10.6941 14.3056 10.3574 14.0724 10.1013L9.14571 4.68399C8.91243 4.42714 8.58821 4.27133 8.24191 4.24967C7.89561 4.22801 7.55451 4.3422 7.29104 4.56799L4.39771 7.04933C4.16719 7.28068 4.0296 7.58859 4.01104 7.91466C3.99104 8.24799 3.60971 16.144 9.73238 22.2693C15.0737 27.6093 21.7644 28 23.607 28C23.8764 28 24.0417 27.992 24.0857 27.9893C24.4117 27.9711 24.7195 27.8329 24.9497 27.6013L27.4297 24.7067C27.6557 24.4434 27.7701 24.1024 27.7487 23.7561C27.7273 23.4098 27.5717 23.0855 27.315 22.852L21.8964 17.924Z" fill="#90A3BF"/>
</svg>
