<svg width="32" height="32" viewBox="0 0 32 32" fill="none" xmlns="http://www.w3.org/2000/svg">
<g id="vuesax/bold/sms">
<g id="sms">
<path id="Vector" d="M22.666 4.66675H9.33268C5.33268 4.66675 2.66602 6.66675 2.66602 11.3334V20.6667C2.66602 25.3334 5.33268 27.3334 9.33268 27.3334H22.666C26.666 27.3334 29.3327 25.3334 29.3327 20.6667V11.3334C29.3327 6.66675 26.666 4.66675 22.666 4.66675ZM23.2927 12.7867L19.1194 16.1201C18.2393 16.8267 17.1193 17.1734 15.9993 17.1734C14.8793 17.1734 13.746 16.8267 12.8793 16.1201L8.70602 12.7867C8.27935 12.4401 8.21268 11.8001 8.54602 11.3734C8.89268 10.9467 9.51935 10.8667 9.94602 11.2134L14.1193 14.5467C15.1327 15.3601 16.8527 15.3601 17.866 14.5467L22.0394 11.2134C22.466 10.8667 23.106 10.9334 23.4394 11.3734C23.786 11.8001 23.7193 12.4401 23.2927 12.7867Z" fill="#90A3BF"/>
</g>
</g>
</svg>
