<svg width="24" height="24" viewBox="0 0 24 24" fill="none" xmlns="http://www.w3.org/2000/svg">
<g clip-path="url(#clip0_101_12274)">
<path d="M18.7897 4.47009C18.1189 4.50842 17.4459 4.45459 16.7897 4.31009C15.9981 4.03904 15.2578 3.63676 14.5997 3.12009C14.0367 2.72097 13.5021 2.28326 12.9997 1.81009C12.7867 1.61114 12.5062 1.50049 12.2147 1.50049C11.9233 1.50049 11.6427 1.61114 11.4297 1.81009C10.9407 2.26829 10.4266 2.69896 9.88971 3.10009C9.22752 3.62355 8.48445 4.03562 7.68971 4.32009C6.94226 4.48897 6.17441 4.54959 5.40971 4.50009C4.78357 4.47416 4.15931 4.41407 3.53971 4.32009C3.38831 4.29764 3.23394 4.30591 3.0858 4.34441C2.93766 4.38291 2.79879 4.45085 2.67747 4.54417C2.55615 4.63749 2.45487 4.75429 2.37966 4.8876C2.30445 5.0209 2.25686 5.16799 2.23971 5.32009C2.18971 5.80009 2.05971 7.05009 1.99971 8.44009C1.91563 9.82885 2.00295 11.2227 2.25971 12.5901C2.98376 14.8556 4.31541 16.879 6.10971 18.4401C7.5359 19.7853 9.08236 20.9971 10.7297 22.0601C11.1712 22.3632 11.6942 22.5255 12.2297 22.5255C12.7653 22.5255 13.2882 22.3632 13.7297 22.0601C15.2897 20.9694 16.7489 19.7411 18.0897 18.3901C19.779 16.8176 21.03 14.8325 21.7197 12.6301" stroke="#2D3A4A" stroke-width="2.5" stroke-linecap="round" stroke-linejoin="round"/>
<path d="M11 11L13.86 13.86C13.8778 13.8794 13.8994 13.8949 13.9235 13.9055C13.9476 13.9161 13.9737 13.9215 14 13.9215C14.0263 13.9215 14.0524 13.9161 14.0765 13.9055C14.1006 13.8949 14.1222 13.8794 14.14 13.86L22 6" stroke="#20BFB6" stroke-width="2.5" stroke-linecap="round" stroke-linejoin="round"/>
</g>
<defs>
<clipPath id="clip0_101_12274">
<rect width="24" height="24" fill="white"/>
</clipPath>
</defs>
</svg>
