<svg width="24" height="24" viewBox="0 0 24 24" fill="none" xmlns="http://www.w3.org/2000/svg">
<path d="M6.2499 19.5001C4.6489 19.5001 3.2249 18.4751 2.7079 16.9491L2.6729 16.8341C2.5509 16.4301 2.4999 16.0901 2.4999 15.7501V8.93213L0.0738996 17.0301C-0.2381 18.2211 0.4729 19.4561 1.6659 19.7851L17.1289 23.9261C17.3219 23.9761 17.5149 24.0001 17.7049 24.0001C18.7009 24.0001 19.6109 23.3391 19.8659 22.3651L20.7669 19.5001H6.2499Z" fill="#90A3BF"/>
<path d="M9 9C10.103 9 11 8.103 11 7C11 5.897 10.103 5 9 5C7.897 5 7 5.897 7 7C7 8.103 7.897 9 9 9Z" fill="#90A3BF"/>
<path d="M21.5 2H6.5C5.122 2 4 3.122 4 4.5V15.5C4 16.878 5.122 18 6.5 18H21.5C22.878 18 24 16.878 24 15.5V4.5C24 3.122 22.878 2 21.5 2ZM6.5 4H21.5C21.776 4 22 4.224 22 4.5V11.599L18.841 7.913C18.506 7.52 18.021 7.31 17.5 7.298C16.982 7.301 16.496 7.531 16.164 7.929L12.45 12.387L11.24 11.18C10.556 10.496 9.443 10.496 8.76 11.18L6 13.939V4.5C6 4.224 6.224 4 6.5 4Z" fill="#90A3BF"/>
</svg>
