<svg width="24" height="24" viewBox="0 0 24 24" fill="none" xmlns="http://www.w3.org/2000/svg">
<path d="M11.409 23.2499C12.0751 23.2501 12.7224 23.0285 13.2488 22.6202C13.7751 22.2119 14.1506 21.6399 14.316 20.9946L9.26172 22.3446C9.5422 22.6297 9.87633 22.8565 10.2449 23.0119C10.6134 23.1672 11.009 23.2481 11.409 23.2499Z" fill="#DCB63B"/>
<path d="M20.9573 14.9461C20.8327 14.4752 20.5787 14.0487 20.2241 13.7148C19.8696 13.3809 19.4286 13.1529 18.9511 13.0568C18.9296 13.0525 18.9097 13.0423 18.8936 13.0274C18.8776 13.0124 18.8661 12.9932 18.8603 12.9721L17.8238 9.10206C17.3918 7.5034 16.4479 6.09035 15.1364 5.07919C13.825 4.06804 12.2183 3.5145 10.5623 3.50331C10.645 3.14922 10.6401 2.78033 10.5481 2.42856C10.387 1.855 10.0063 1.36805 9.48861 1.07325C8.9709 0.778458 8.35787 0.699576 7.7824 0.853705C7.20693 1.00784 6.71539 1.38256 6.41433 1.89664C6.11327 2.41073 6.02695 3.02276 6.17408 3.60006C6.26883 3.95093 6.44717 4.27364 6.69383 4.54056C5.26735 5.37894 4.1546 6.66132 3.52565 8.19173C2.89669 9.72213 2.78612 11.4164 3.21083 13.0156L4.24733 16.8878C4.25299 16.9087 4.25268 16.9307 4.24645 16.9514C4.24022 16.972 4.22831 16.9906 4.21208 17.0048C3.84544 17.3272 3.57673 17.7461 3.43657 18.2138C3.29641 18.6815 3.29044 19.1791 3.41933 19.6501C3.60758 20.3164 4.04843 20.883 4.64809 21.2293C5.24774 21.5756 5.95885 21.6741 6.63008 21.5041L19.1041 18.1576C19.7752 17.9767 20.3473 17.537 20.6947 16.935C21.0421 16.3329 21.1366 15.6177 20.9573 14.9461ZM7.62308 3.21306C7.58331 3.06712 7.58773 2.91267 7.63579 2.76925C7.68385 2.62583 7.77338 2.4999 7.89306 2.4074C8.01273 2.3149 8.15717 2.25999 8.30807 2.24962C8.45897 2.23926 8.60955 2.27391 8.74075 2.34918C8.87195 2.42445 8.97786 2.53696 9.04508 2.67246C9.11229 2.80796 9.13779 2.96036 9.11834 3.11036C9.09889 3.26036 9.03536 3.40122 8.9358 3.51509C8.83625 3.62897 8.70514 3.71074 8.55908 3.75006C8.36379 3.80181 8.15597 3.77445 7.98073 3.67391C7.80549 3.57337 7.67697 3.40777 7.62308 3.21306Z" fill="#DCB63B"/>
</svg>
