<svg width="21" height="26" viewBox="0 0 21 26" fill="none" xmlns="http://www.w3.org/2000/svg">
<path d="M2.10351 23.6294C2.10351 23.4716 2.10351 23.3314 2.10351 23.2087C2.10351 16.5651 2.10351 9.93906 2.10351 3.29549C2.10351 1.71786 3.05009 0.473284 4.50501 0.105171C4.78548 0.0350541 5.08347 0 5.38147 0C8.79967 0 12.2003 0 15.6185 0C17.5292 0 18.8965 1.36728 18.8965 3.29549C18.8965 9.93906 18.8965 16.5651 18.8965 23.2087C18.8965 23.3314 18.8965 23.4716 18.8965 23.6294C19.1945 23.6294 19.4574 23.6294 19.7379 23.6294C20.5267 23.6294 21 24.0325 21 24.6811C21 25.3122 20.5092 25.7154 19.7554 25.7154C14.4967 25.7154 9.2379 25.7154 3.97913 25.7154C3.03256 25.7154 2.10351 25.7154 1.15693 25.7154C0.490819 25.7154 0.0175292 25.2771 0 24.6811C0 24.0676 0.47329 23.6294 1.15693 23.6294C1.45493 23.6118 1.75292 23.6294 2.10351 23.6294ZM12.6035 23.8047C12.6035 22.5952 12.621 21.4032 12.6035 20.2287C12.586 19.51 11.9199 18.914 11.1836 18.8965C10.7629 18.8965 10.3247 18.8965 9.90401 18.8965C9.04507 18.8965 8.41402 19.5275 8.41402 20.3865C8.41402 21.2454 8.41402 22.0868 8.41402 22.9457C8.41402 23.2262 8.41402 23.5067 8.41402 23.8047C9.81636 23.8047 11.1836 23.8047 12.6035 23.8047ZM7.32721 6.29298C7.53756 6.29298 7.74791 6.31051 7.95826 6.29298C8.50167 6.25792 8.9399 5.80217 8.9399 5.25876C8.9399 4.71536 8.5192 4.24207 7.95826 4.20701C7.57262 4.18948 7.16945 4.18948 6.78381 4.20701C6.22287 4.22454 5.80217 4.6803 5.78464 5.2237C5.76711 5.78464 6.20534 6.25792 6.76628 6.29298C6.9591 6.31051 7.13439 6.29298 7.32721 6.29298ZM13.6553 6.29298C13.8481 6.29298 14.0409 6.31051 14.2513 6.29298C14.7947 6.25792 15.2329 5.78464 15.2329 5.24123C15.2329 4.69783 14.8122 4.22454 14.2513 4.20701C13.8656 4.18948 13.4624 4.18948 13.0768 4.20701C12.5159 4.22454 12.0952 4.6803 12.0952 5.24123C12.0952 5.80217 12.5159 6.27546 13.0943 6.31052C13.2696 6.31052 13.4624 6.29298 13.6553 6.29298ZM7.32721 11.0259C7.53756 11.0259 7.74791 11.0434 7.95826 11.0259C8.50167 10.9908 8.9399 10.5175 8.9399 9.97412C8.9399 9.43071 8.5192 8.95743 7.95826 8.9399C7.57262 8.92237 7.16945 8.92237 6.78381 8.9399C6.22287 8.95743 5.80217 9.41318 5.78464 9.97412C5.78464 10.5351 6.20534 11.0083 6.78381 11.0434C6.9591 11.0259 7.13439 11.0259 7.32721 11.0259ZM13.6553 11.0259C13.8481 11.0259 14.0409 11.0434 14.2513 11.0259C14.7947 10.9908 15.2329 10.5351 15.2329 9.99165C15.2329 9.43072 14.7947 8.95743 14.2337 8.9399C13.8481 8.92237 13.4624 8.92237 13.0943 8.9399C12.5334 8.95743 12.0952 9.43072 12.0952 9.99165C12.0952 10.5351 12.5334 10.9908 13.0768 11.0259C13.2521 11.0259 13.4624 11.0259 13.6553 11.0259ZM7.32721 15.7412C7.53756 15.7412 7.74791 15.7588 7.95826 15.7412C8.50167 15.7062 8.9399 15.2329 8.9399 14.6895C8.9399 14.1461 8.5192 13.6728 7.95826 13.6553C7.57262 13.6377 7.16945 13.6377 6.78381 13.6553C6.22287 13.6728 5.80217 14.1285 5.78464 14.6895C5.78464 15.2504 6.20534 15.7237 6.78381 15.7588C6.9591 15.7588 7.13439 15.7412 7.32721 15.7412ZM13.6553 15.7412C13.8481 15.7412 14.0234 15.7412 14.2162 15.7412C14.7771 15.7062 15.2329 15.2504 15.2329 14.6895C15.2329 14.1285 14.7947 13.6553 14.2337 13.6377C13.8481 13.6202 13.4624 13.6202 13.0943 13.6377C12.5334 13.6553 12.1127 14.111 12.0952 14.6544C12.0776 15.2154 12.5159 15.6886 13.0768 15.7237C13.2696 15.7588 13.4624 15.7412 13.6553 15.7412Z" fill="#DCB63B"/>
</svg>
