<svg width="24" height="24" viewBox="0 0 24 24" fill="none" xmlns="http://www.w3.org/2000/svg">
<g clip-path="url(#clip0_101_13644)">
<path d="M8.92871 0.864014H12.4807V4.12801H8.92871V0.864014Z" fill="#DCB63B"/>
<path d="M3.55247 20.64H11.5205C11.1365 19.776 10.9445 18.816 10.9445 17.856C10.9445 13.824 14.2085 10.656 18.1445 10.656C18.9125 10.656 19.5845 10.752 20.2565 10.944V3.84001C20.2565 2.20801 18.9125 0.864014 17.1845 0.864014H14.3045V5.08801C14.3045 5.66401 13.9205 6.04801 13.3445 6.04801H7.96847C7.39247 6.04801 7.00847 5.66401 7.00847 5.08801V0.864014H3.55247C1.82447 0.864014 0.480469 2.20801 0.480469 3.84001V17.664C0.480469 19.296 1.82447 20.64 3.55247 20.64Z" fill="#DCB63B"/>
<path d="M18.2409 12.5759C15.2649 12.5759 12.9609 14.9759 12.9609 17.8559C12.9609 20.8319 15.3609 23.1359 18.2409 23.1359C21.2169 23.1359 23.5209 20.7359 23.5209 17.8559C23.5209 14.9759 21.1209 12.5759 18.2409 12.5759ZM20.4489 18.2399L17.5689 19.4879C17.2809 19.5839 17.0889 19.5839 16.8009 19.4879C16.5129 19.3919 16.4169 19.1999 16.3209 19.0079L15.7449 17.6639C15.5529 17.1839 15.8409 16.6079 16.3209 16.4159C16.8009 16.2239 17.3769 16.4159 17.5689 16.8959L17.7609 17.3759L19.6809 16.5119C20.1609 16.3199 20.7369 16.5119 20.9289 16.9919C21.2169 17.4719 20.9289 18.0479 20.4489 18.2399Z" fill="#DCB63B"/>
</g>
<defs>
<clipPath id="clip0_101_13644">
<rect width="24" height="24" fill="white"/>
</clipPath>
</defs>
</svg>
