<svg width="104" height="104" viewBox="0 0 104 104" fill="none" xmlns="http://www.w3.org/2000/svg">
<g id="Phone_Call_5_">
<g id="Group">
<g id="Group_2">
<g id="Group_3">
<g id="Group_4">
<path id="Vector" d="M21.3547 82.598C5.26927 66.5125 -6.38259 45.6993 3.85004 35.4667L14.6242 24.6956L36.1666 46.2408L25.3955 57.0119C25.1099 58.0414 27.2909 63.2158 34.0125 69.9402C40.74 76.6618 45.8697 78.816 47.0687 78.4709L57.7119 67.7859L79.2571 89.3283L68.486 100.102C56.7598 111.829 33.2298 94.4731 21.3547 82.598Z" fill="#EDCB5F"/>
</g>
</g>
</g>
</g>
<g id="Phone_Call_6_">
<g id="Group_5">
<g id="Group_6">
<path id="Vector_2" d="M68.4861 100.103L79.2572 89.3286L57.7119 67.7861L47.0688 78.4711C45.8697 78.8162 40.74 76.6621 34.0125 69.9405L21.355 82.598C33.2299 94.4731 56.7597 111.829 68.4861 100.103Z" fill="#DCB63B"/>
</g>
</g>
</g>
<g id="Group_7">
<path id="Vector_3" d="M104 54.8438H97.9062V51.7969C97.9062 26.5947 77.4053 6.09375 52.2031 6.09375H49.1562V0H52.2031C80.7645 0 104 23.2355 104 51.7969V54.8438Z" fill="#F6F7F9"/>
</g>
<path id="Vector_4" d="M97.9061 51.7968V54.8436H104V51.7968C104 37.5161 98.1911 24.5668 88.8116 15.1877L84.5054 19.4944C92.7809 27.7699 97.9061 39.1957 97.9061 51.7968Z" fill="#90A3BF"/>
<g id="Group_8">
<path id="Vector_5" d="M85.7188 54.8438H79.625V51.7969C79.625 36.6756 67.3244 24.375 52.2031 24.375H49.1562V18.2812H52.2031C70.6836 18.2812 85.7188 33.3164 85.7188 51.7969V54.8438Z" fill="#F6F7F9"/>
</g>
<path id="Vector_6" d="M79.625 51.7969V54.8438H85.7187V51.7969C85.7187 42.5566 81.9599 34.1777 75.8907 28.1089L71.5845 32.4155C76.5499 37.3807 79.625 44.2362 79.625 51.7969Z" fill="#90A3BF"/>
<g id="Group_9">
<path id="Vector_7" d="M67.4375 54.8438H61.3438V51.7969C61.3438 46.7565 57.2435 42.6562 52.2031 42.6562H49.1562V36.5625H52.2031C60.603 36.5625 67.4375 43.397 67.4375 51.7969V54.8438Z" fill="#F6F7F9"/>
</g>
<path id="Vector_8" d="M61.3438 51.7968V54.8437H67.4376V51.7968C67.4376 47.597 65.7289 43.7884 62.9698 41.0298L58.6636 45.3364C60.3188 46.9915 61.3438 49.2767 61.3438 51.7968Z" fill="#90A3BF"/>
</g>
</svg>
