<svg width="102" height="102" viewBox="0 0 102 102" fill="none" xmlns="http://www.w3.org/2000/svg">
<g id="Group">
<g id="Group_2">
<path id="Vector" fill-rule="evenodd" clip-rule="evenodd" d="M86.351 21.4778H92.9601V15.0615C92.9601 7.11992 86.4654 0.625 78.5236 0.625C70.5818 0.625 64.0869 7.11992 64.0869 15.0617V21.478H70.696V15.0615C70.696 10.7678 74.2298 7.23387 78.5234 7.23387C82.8171 7.23387 86.3508 10.7676 86.3508 15.0615V21.4778H86.351Z" fill="#DBE3EE"/>
<path id="Vector_2" fill-rule="evenodd" clip-rule="evenodd" d="M60.8489 18.9707H96.198C97.6509 18.9707 98.8359 20.1557 98.8359 21.6087V49.7033C98.8359 51.1563 97.6509 52.3413 96.198 52.3413H60.8489C59.396 52.3413 58.2109 51.1563 58.2109 49.7033V21.6087C58.2109 20.1557 59.396 18.9707 60.8489 18.9707Z" fill="#DBE3EE"/>
<path id="Vector_3" fill-rule="evenodd" clip-rule="evenodd" d="M92.1353 48.2786H58.2109V49.7033C58.2109 51.1563 59.396 52.3413 60.8489 52.3413H96.198C97.6509 52.3413 98.8359 51.1563 98.8359 49.7033V21.6087C98.8359 20.1557 97.6509 18.9707 96.198 18.9707H94.7732V45.6406C94.7732 47.0936 93.5882 48.2786 92.1353 48.2786Z" fill="#DBE3EE"/>
<path id="Vector_4" fill-rule="evenodd" clip-rule="evenodd" d="M78.5234 25.6313C81.3615 25.6313 83.6621 27.9319 83.6621 30.77C83.6621 32.6193 82.685 34.2402 81.2191 35.1453V42.9849C81.2191 44.4675 80.006 45.6806 78.5234 45.6806C77.0408 45.6806 75.8278 44.4675 75.8278 42.9849V35.1453C74.3618 34.2402 73.3848 32.6193 73.3848 30.77C73.3848 27.9319 75.6854 25.6313 78.5234 25.6313Z" fill="white"/>
</g>
<g id="Group_3">
<path id="Vector_5" fill-rule="evenodd" clip-rule="evenodd" d="M42.0279 59.9721C37.5541 55.5064 33.5887 50.5632 30.2183 45.2336C28.9875 43.287 29.0005 40.9484 30.252 39.0159L35.062 31.5897C36.0882 30.0045 36.284 28.1958 35.6206 26.4282L27.3469 4.3774C26.0511 0.924074 21.9507 -0.442348 18.8422 1.54361C14.995 4.00162 11.147 6.46004 7.29965 8.91826C2.03201 12.284 -0.413613 18.3343 1.03751 24.4149C5.50362 43.13 15.2447 59.9723 28.708 73.2922C42.0279 86.7558 58.87 96.4968 77.5854 100.963C83.6657 102.414 89.7162 99.9682 93.082 94.7006C95.5402 90.8534 97.9984 87.0052 100.457 83.158C102.443 80.0496 101.076 75.9489 97.6228 74.6534L75.572 66.3797C73.8042 65.7163 71.9958 65.9121 70.4106 66.9383L62.9843 71.7481C61.0518 72.9995 58.7132 73.0125 56.7667 71.7818C51.4369 68.4113 46.4936 64.4461 42.0279 59.9721Z" fill="#F6F7F9"/>
<path id="Vector_6" fill-rule="evenodd" clip-rule="evenodd" d="M84.3718 94.1761C65.6567 89.71 48.8143 79.9689 35.4944 66.5056C22.0309 53.1854 12.2898 36.3433 7.82392 17.6282C7.01284 14.2297 7.41909 10.8406 8.85518 7.92432C8.33661 8.25561 7.81823 8.58691 7.29965 8.91821C2.03201 12.284 -0.413613 18.3343 1.03751 24.4148C5.50362 43.1299 15.2447 59.9723 28.708 73.2922C42.0279 86.7557 58.87 96.4968 77.5854 100.963C83.6657 102.414 89.7162 99.9682 93.082 94.7005C93.4133 94.182 93.7446 93.6636 94.0759 93.145C91.1594 94.5809 87.7703 94.9869 84.3718 94.1761Z" fill="#D7DCE6"/>
</g>
</g>
</svg>
