<svg width="24" height="24" viewBox="0 0 24 24" fill="none" xmlns="http://www.w3.org/2000/svg">
<g id="Group">
<path id="Vector" d="M8.09359 4.38879C6.59522 3.31432 4.46074 3.80162 3.5988 5.42952C3.11731 6.33894 3.14856 7.45156 3.68041 8.33325C4.40501 9.53546 5.85727 10.0838 7.21214 9.66682C8.48872 9.27426 9.34642 8.12592 9.34642 6.80934C9.34642 5.85622 8.87806 4.95138 8.09359 4.38879Z" fill="#90A3BF"/>
<path id="Vector_2" d="M12.0908 8.48417L11.949 8.38293C12.231 7.37965 12.231 6.30615 11.949 5.30286L12.0913 5.20162C12.6067 4.83327 12.7547 4.14593 12.4359 3.60359L12.2222 3.23931C11.9035 2.69646 11.2241 2.47972 10.6419 2.73411L10.4799 2.80482C9.73583 2.06203 8.79094 1.52477 7.76896 1.26428L7.75084 1.09283C7.68357 0.470099 7.15266 0 6.51566 0H6.08772C5.45098 0 4.91981 0.470049 4.85254 1.09283L4.83443 1.26428C3.81244 1.52477 2.86755 2.06203 2.12344 2.80482L1.96147 2.73411C1.37933 2.47972 0.6999 2.69646 0.381143 3.23931L0.167431 3.60359C-0.151326 4.14593 -0.00333165 4.83327 0.512578 5.20162L0.654363 5.30286C0.372346 6.30615 0.372346 7.37965 0.654363 8.38293L0.512578 8.48417C-0.00333165 8.85252 -0.151326 9.53986 0.167431 10.0822L0.381143 10.4465C0.6999 10.9893 1.37933 11.2061 1.96147 10.9517L2.12344 10.881C2.86755 11.6238 3.81244 12.161 4.83443 12.4215L4.85305 12.5925C4.91981 13.2157 5.45072 13.6858 6.08772 13.6858H6.51566C7.15266 13.6858 7.68357 13.2157 7.75084 12.593L7.76896 12.4215C8.79094 12.161 9.73635 11.6238 10.4805 10.881L10.6419 10.9517C11.2241 11.2061 11.9035 10.9893 12.2222 10.4465L12.4359 10.0822C12.7547 9.53986 12.6067 8.85252 12.0908 8.48417ZM7.45941 10.4436C5.73543 10.9743 3.88892 10.2758 2.96825 8.74833C1.6452 6.55499 2.85865 3.69313 5.41735 3.10316C7.8457 2.54352 10.1744 4.35452 10.1744 6.80932C10.1744 8.48377 9.08331 9.94428 7.45941 10.4436Z" fill="#90A3BF"/>
<path id="Vector_3" d="M23.4878 18.4336L23.2576 18.2692C23.5722 17.1667 23.5722 15.9844 23.2576 14.8819L23.4878 14.717C24.0032 14.3487 24.1512 13.6613 23.8325 13.119L23.5318 12.6072C23.2131 12.0648 22.5341 11.8476 21.952 12.1025L21.6902 12.2164C20.8746 11.3958 19.834 10.8041 18.708 10.5222L18.6785 10.244C18.6113 9.62122 18.0803 9.15112 17.4434 9.15112H16.8421C16.2105 9.15112 15.674 9.61685 15.6074 10.244L15.5774 10.5222C14.4519 10.8041 13.4108 11.3958 12.5952 12.2164L12.3334 12.1025C11.7513 11.8476 11.0724 12.0648 10.7536 12.6072L10.4529 13.119C10.1342 13.6613 10.2827 14.3487 10.7981 14.717L11.0279 14.8819C10.7132 15.9844 10.7132 17.1667 11.0279 18.2692L10.7981 18.4336C10.2827 18.8024 10.1342 19.4892 10.4529 20.0321L10.7536 20.5439C11.0724 21.0863 11.7518 21.303 12.3339 21.0486L12.5952 20.9341C13.4108 21.7553 14.4519 22.3465 15.5774 22.6283L15.6074 22.9066C15.6741 23.5299 16.2051 24 16.8421 24H17.4434C18.0803 24 18.6113 23.5299 18.6785 22.9066L18.708 22.6283C19.834 22.3465 20.8746 21.7553 21.6902 20.9341L21.952 21.0486C22.5341 21.3035 23.2136 21.0863 23.5318 20.5439L23.8325 20.0321C24.1512 19.4892 24.0032 18.8024 23.4878 18.4336ZM18.3927 20.4991C16.5356 21.0708 14.5402 20.3217 13.5439 18.6689C12.1157 16.3009 13.4253 13.2112 16.1879 12.5743C18.85 11.9607 21.3238 13.9663 21.3238 16.5755C21.3238 18.3832 20.1459 19.96 18.3927 20.4991Z" fill="#90A3BF"/>
<path id="Vector_4" d="M16.3771 13.3668C14.1593 13.8782 13.112 16.3567 14.2562 18.2538C15.0542 19.5776 16.6535 20.1816 18.1456 19.7223C19.5514 19.2899 20.496 18.0253 20.496 16.5755C20.4959 14.4573 18.4874 12.8802 16.3771 13.3668Z" fill="#90A3BF"/>
<path id="Vector_5" d="M22.9212 8.46989C20.4928 6.82342 17.4753 6.34727 14.6732 7.12848L14.7799 6.91714C14.8816 6.71582 14.7979 6.47156 14.5932 6.37159C14.3884 6.27172 14.1399 6.35393 14.0383 6.5552C13.4459 7.72852 13.4772 7.66319 13.4641 7.70201C13.398 7.89315 13.4852 8.10531 13.6718 8.19638L14.7862 8.7402C14.9914 8.84032 15.2396 8.75749 15.3411 8.55658C15.4428 8.35526 15.3591 8.11101 15.1544 8.01103L14.932 7.90251C17.4885 7.20031 20.2372 7.63882 22.4513 9.14003C22.523 9.18867 22.6048 9.21202 22.6859 9.21202C23.0888 9.21202 23.2563 8.69715 22.9212 8.46989Z" fill="#90A3BF"/>
<path id="Vector_6" d="M9.18871 15.6303C9.16667 15.6111 9.26271 15.6831 7.90365 14.6797C7.72077 14.5447 7.46132 14.5811 7.32404 14.7609C7.18675 14.9406 7.22375 15.1957 7.40657 15.3307L7.95203 15.7333C5.98748 16.0808 3.96451 15.795 2.17197 14.9034C1.96804 14.8019 1.71893 14.8823 1.6157 15.0828C1.51252 15.2834 1.59422 15.5283 1.79821 15.6298C3.70242 16.5769 5.85956 16.9049 7.98416 16.5537L7.686 16.9845C7.4978 17.2565 7.69971 17.6206 8.02784 17.6206C8.16026 17.6206 8.29035 17.5582 8.37045 17.4425C9.32429 16.0644 9.29407 16.1282 9.31787 16.0219C9.3483 15.8866 9.30649 15.7332 9.18871 15.6303Z" fill="#90A3BF"/>
</g>
</svg>
