<svg width="17" height="24" viewBox="0 0 17 24" fill="none" xmlns="http://www.w3.org/2000/svg">
<g id="Layer 22">
<path id="Vector" d="M15.5 0.9375H7.92503C7.83041 0.937711 7.73732 0.961474 7.65418 1.00665C7.57104 1.05182 7.50045 1.11698 7.44878 1.19625L0.762528 11.625C0.705626 11.7114 0.673483 11.8117 0.66959 11.9151C0.665698 12.0185 0.690204 12.121 0.740448 12.2114C0.790692 12.3019 0.864753 12.3768 0.954589 12.4281C1.04443 12.4794 1.1466 12.5052 1.25003 12.5025H6.24503L1.69628 22.2525C1.64137 22.3723 1.63023 22.5075 1.66482 22.6346C1.6994 22.7617 1.77751 22.8727 1.88553 22.9481C1.99354 23.0236 2.12461 23.0587 2.25587 23.0474C2.38713 23.0361 2.51026 22.979 2.60378 22.8863L15.6688 9.8325C15.7456 9.75317 15.7975 9.65311 15.8182 9.54465C15.8388 9.43619 15.8273 9.32406 15.7851 9.22205C15.7428 9.12003 15.6717 9.0326 15.5804 8.97049C15.4891 8.90839 15.3817 8.87433 15.2713 8.8725H11.5925L15.9763 1.79625C16.029 1.71119 16.058 1.61362 16.0605 1.51359C16.0629 1.41356 16.0386 1.31469 15.99 1.22719C15.9415 1.13968 15.8705 1.06671 15.7844 1.01579C15.6982 0.964865 15.6001 0.93784 15.5 0.9375Z" fill="#90A3BF"/>
</g>
</svg>
