<svg width="28" height="22" viewBox="0 0 28 22" fill="none" xmlns="http://www.w3.org/2000/svg">
<g id="Group">
<path id="Vector" d="M6.78699 21.1783C7.69308 21.1783 8.42761 20.4438 8.42761 19.5377C8.42761 18.6316 7.69308 17.8971 6.78699 17.8971C5.8809 17.8971 5.14636 18.6316 5.14636 19.5377C5.14636 20.4438 5.8809 21.1783 6.78699 21.1783Z" fill="#90A3BF"/>
<path id="Vector_2" d="M2.40857 6.93925L4.66744 6.9842C4.67302 6.98431 4.67854 6.98437 4.68407 6.98437C5.1295 6.98431 5.49497 6.62775 5.50389 6.18041C5.51291 5.72743 5.15301 5.35293 4.70004 5.3439L4.44629 5.33887C6.57286 3.72308 9.28438 3.15903 11.8789 3.79286L11.6482 3.89868C11.2364 4.08752 11.0557 4.57445 11.2446 4.9863C11.3827 5.2873 11.6799 5.46482 11.9908 5.46482C12.1052 5.46476 12.2215 5.44076 12.3323 5.3899L14.3858 4.44791C14.7956 4.25994 14.9769 3.77667 14.7919 3.36559L13.8645 1.30534C13.6786 0.892233 13.1929 0.708046 12.7798 0.894038C12.3667 1.07998 12.1825 1.5656 12.3685 1.97876L12.4938 2.25712C10.9177 1.83691 9.25288 1.78884 7.6542 2.12139C6.05552 2.45389 4.54795 3.16187 3.27012 4.17567L3.274 3.87041C3.2798 3.41737 2.91728 3.04544 2.46425 3.03965C2.46069 3.03959 2.45714 3.03959 2.45353 3.03959C2.00542 3.03959 1.63923 3.39998 1.63349 3.84941L1.60456 6.1086C1.59887 6.55933 1.95789 6.93028 2.40857 6.93925Z" fill="#90A3BF"/>
<path id="Vector_3" d="M25.5105 14.1484H27.5717C27.5717 13.6726 25.5878 12.1343 25.0911 12.1343V13.729C25.091 13.9603 25.2792 14.1484 25.5105 14.1484Z" fill="#90A3BF"/>
<path id="Vector_4" d="M27.997 15.7891H25.5105C24.3746 15.7891 23.4504 14.865 23.4504 13.729V11.8169L21.1845 11.3994L18.9112 8.93558C18.6039 8.60259 18.085 8.58175 17.752 8.88893C17.419 9.19617 17.3982 9.7151 17.7054 10.0481L18.8939 11.3363H5.67219C7.08088 10.0982 8.9157 9.38916 10.8172 9.38916C11.2703 9.38916 11.6376 9.02188 11.6376 8.56885C11.6376 8.11582 11.2703 7.74854 10.8172 7.74854C7.91815 7.74854 5.1479 9.11004 3.37356 11.3972L2.0638 11.6022C0.867945 11.7895 0 12.8039 0 14.0143V14.0259H0.985523C1.43855 14.0259 1.80584 14.3932 1.80584 14.8462C1.80584 15.2992 1.43855 15.6665 0.985523 15.6665H0V17.9319C0 18.9874 0.858648 19.846 1.91406 19.846H3.52067C3.51116 19.7445 3.50574 19.6418 3.50574 19.5377C3.50574 17.7285 4.97771 16.2565 6.78699 16.2565C8.59627 16.2565 10.0682 17.7285 10.0682 19.5377C10.0682 19.6418 10.0628 19.7445 10.0533 19.846H17.9466C17.9371 19.7445 17.9317 19.6418 17.9317 19.5377C17.9317 17.7285 19.4037 16.2565 21.213 16.2565C23.0222 16.2565 24.4942 17.7285 24.4942 19.5377C24.4942 19.6418 24.4888 19.7445 24.4793 19.846H26.0859C27.1414 19.846 28 18.9874 28 17.9319V15.9344C28 15.8857 27.9988 15.8373 27.997 15.7891ZM16.6052 16.0156H15.7116C15.2585 16.0156 14.8912 15.6483 14.8912 15.1953C14.8912 14.7422 15.2585 14.375 15.7116 14.375H16.6052C17.0582 14.375 17.4255 14.7422 17.4255 15.1953C17.4255 15.6483 17.0582 16.0156 16.6052 16.0156Z" fill="#90A3BF"/>
<path id="Vector_5" d="M21.213 21.1783C22.1191 21.1783 22.8536 20.4438 22.8536 19.5377C22.8536 18.6316 22.1191 17.8971 21.213 17.8971C20.3069 17.8971 19.5724 18.6316 19.5724 19.5377C19.5724 20.4438 20.3069 21.1783 21.213 21.1783Z" fill="#90A3BF"/>
</g>
</svg>
