<svg width="24" height="24" viewBox="0 0 24 24" fill="none" xmlns="http://www.w3.org/2000/svg">
<g id="flag_8622602 1" clip-path="url(#clip0_102_20731)">
<path id="Vector" d="M1.59998 4.66003V22.8C1.59998 22.9061 1.64212 23.0079 1.71713 23.0829C1.79215 23.1579 1.89389 23.2 1.99998 23.2H2.79998C2.90606 23.2 3.0078 23.1579 3.08282 23.0829C3.15783 23.0079 3.19998 22.9061 3.19998 22.8V4.66003C2.68298 4.84671 2.11697 4.84671 1.59998 4.66003Z" fill="#90A3BF"/>
<path id="Vector_2" d="M12.3084 20.3436C14.1647 20.8549 16.0755 21.1424 18 21.2C19.726 21.2388 21.4407 20.9117 23.0312 20.24C23.0818 20.2176 23.1248 20.1808 23.1548 20.1342C23.1847 20.0877 23.2005 20.0334 23.2 19.978V5.46082C23.2009 5.41528 23.1903 5.37025 23.1694 5.3298C23.1484 5.28936 23.1177 5.25479 23.08 5.22922C23.0409 5.20167 22.9956 5.18427 22.9481 5.17862C22.9006 5.17296 22.8525 5.17922 22.808 5.19682C21.2661 5.74932 19.6378 6.02134 18 6.00002C16.0135 5.94399 14.041 5.64948 12.1248 5.12282C10.6491 4.70972 9.13094 4.4672 7.6 4.40002C6.33004 4.40382 5.08525 4.75444 4 5.41402V20.4904C5.1104 19.907 6.34567 19.6015 7.6 19.6C9.19291 19.6653 10.7729 19.9148 12.3084 20.3436ZM9.3172 14.9172C9.39221 14.8422 9.49393 14.8001 9.6 14.8001C9.70607 14.8001 9.80779 14.8422 9.8828 14.9172L11.1628 16.1972L16.4844 9.35442C16.5162 9.31168 16.5562 9.27571 16.6021 9.24863C16.6479 9.22155 16.6987 9.20391 16.7515 9.19673C16.8043 9.18956 16.858 9.193 16.9094 9.20685C16.9609 9.22071 17.009 9.2447 17.0511 9.27741C17.0931 9.31013 17.1282 9.35091 17.1542 9.39736C17.1803 9.44382 17.1968 9.49501 17.2028 9.54794C17.2089 9.60087 17.2042 9.65447 17.1893 9.70559C17.1743 9.7567 17.1492 9.80432 17.1156 9.84562L11.5156 17.0456C11.4808 17.0904 11.4369 17.1272 11.3867 17.1537C11.3366 17.1802 11.2814 17.1957 11.2248 17.1992L11.2 17.2C11.0939 17.2 10.9922 17.1578 10.9172 17.0828L9.3172 15.4828C9.24221 15.4078 9.20009 15.3061 9.20009 15.2C9.20009 15.094 9.24221 14.9922 9.3172 14.9172Z" fill="#90A3BF"/>
<path id="Vector_3" d="M2.40005 4.00005C3.2837 4.00005 4.00005 3.2837 4.00005 2.40005C4.00005 1.51639 3.2837 0.800049 2.40005 0.800049C1.51639 0.800049 0.800049 1.51639 0.800049 2.40005C0.800049 3.2837 1.51639 4.00005 2.40005 4.00005Z" fill="#90A3BF"/>
</g>
<defs>
<clipPath id="clip0_102_20731">
<rect width="24" height="24" fill="white"/>
</clipPath>
</defs>
</svg>
