<svg width="24" height="24" viewBox="0 0 24 24" fill="none" xmlns="http://www.w3.org/2000/svg">
<g clip-path="url(#clip0_3017_28416)">
<path d="M7.78125 14.7656C8.16958 14.7656 8.48438 14.4508 8.48438 14.0625C8.48438 13.6742 8.16958 13.3594 7.78125 13.3594C7.39292 13.3594 7.07812 13.6742 7.07812 14.0625C7.07812 14.4508 7.39292 14.7656 7.78125 14.7656Z" fill="#DCB63B"/>
<path d="M11.5312 12.9844C11.5312 11.8213 12.4775 10.875 13.6406 10.875C13.9984 10.875 14.3075 10.684 14.4675 10.364L14.5665 10.166C14.6261 10.0467 14.6966 9.93563 14.775 9.83208C14.4801 9.54933 14.0805 9.375 13.6406 9.375H1.92188C1.01723 9.375 0.28125 10.111 0.28125 11.0156V18.5156C0.28125 19.4203 1.01723 20.1562 1.92188 20.1562H12.1232C11.733 19.1588 11.5312 18.093 11.5312 16.9967V12.9844ZM8.48438 16.0509V16.875C8.48438 17.2633 8.16956 17.5781 7.78125 17.5781C7.39294 17.5781 7.07812 17.2633 7.07812 16.875V16.0509C6.25973 15.7607 5.67188 14.9791 5.67188 14.0625C5.67188 12.8994 6.61814 11.9531 7.78125 11.9531C8.94436 11.9531 9.89062 12.8994 9.89062 14.0625C9.89062 14.9791 9.30277 15.7607 8.48438 16.0509Z" fill="#DCB63B"/>
<path d="M23.0156 12.2812C22.1271 12.2812 21.3283 11.7876 20.931 10.9929L20.832 10.795C20.7129 10.5567 20.4695 10.4062 20.2031 10.4062H16.4531C16.1868 10.4062 15.9433 10.5567 15.8242 10.7949L15.7252 10.9928C15.3279 11.7876 14.5291 12.2812 13.6406 12.2812C13.2523 12.2812 12.9375 12.5961 12.9375 12.9844V16.9967C12.9375 18.5743 13.4353 20.0771 14.3769 21.3428C15.3186 22.6084 16.6151 23.517 18.1261 23.9703C18.192 23.9901 18.2601 24 18.3281 24C18.3962 24 18.4643 23.9901 18.5302 23.9703C20.0412 23.517 21.3376 22.6084 22.2793 21.3428C23.221 20.0771 23.7188 18.5743 23.7188 16.9967V12.9844C23.7188 12.5961 23.4039 12.2812 23.0156 12.2812ZM20.814 16.3745L18.1624 19.0261C18.0251 19.1634 17.8452 19.2321 17.6653 19.2321C17.4854 19.2321 17.3054 19.1634 17.1681 19.0261L15.8423 17.7003C15.5677 17.4257 15.5677 16.9805 15.8423 16.7059C16.1168 16.4313 16.5621 16.4313 16.8367 16.7059L17.6653 17.5345L19.8198 15.3801C20.0943 15.1055 20.5395 15.1055 20.8141 15.3801C21.0886 15.6547 21.0886 16.0999 20.814 16.3745Z" fill="#DCB63B"/>
<path d="M4.96875 5.625C4.96875 4.0717 6.22795 2.8125 7.78125 2.8125C9.33455 2.8125 10.5938 4.0717 10.5938 5.625V7.96875H13.4062V5.625C13.4062 2.51841 10.8878 0 7.78125 0C4.67466 0 2.15625 2.51841 2.15625 5.625V7.96875H4.96875V5.625Z" fill="#DCB63B"/>
</g>
<defs>
<clipPath id="clip0_3017_28416">
<rect width="24" height="24" fill="white"/>
</clipPath>
</defs>
</svg>
