<svg width="49" height="41" viewBox="0 0 49 41" fill="none" xmlns="http://www.w3.org/2000/svg">
<g id="Group">
<g id="Group_2">
<path id="Vector" d="M22.8761 0.842529L23.6275 10.4483L25.8722 1.07831L25.1116 10.6833L28.7945 1.77988L26.5407 11.1477L31.5711 2.93001L27.8797 11.8299L34.1337 4.50035L29.0954 12.7131L36.4189 6.45216L30.1579 13.7757L38.3708 8.73741L31.0412 14.9914L39.9411 11.2999L31.7234 16.3303L41.0912 14.0766L32.1878 17.7594L41.7928 16.9989L32.4228 19.2437L42.0285 19.995L32.4228 20.7464L41.7928 22.9911L32.1878 22.2305L41.0912 25.9134L31.7234 23.6596L39.9411 28.69L31.0412 24.9985L38.3708 31.2525L30.1579 26.2143L36.4189 33.5378L29.0954 27.2768L34.1337 35.4896L27.8797 28.1601L31.5711 37.06L26.5407 28.8423L28.7945 38.2101L25.1116 29.3066L25.8722 38.9116L23.6275 29.5417L22.8761 39.1474L22.1247 29.5417L19.88 38.9116L20.6406 29.3066L16.9577 38.2101L19.2114 28.8423L14.1811 37.06L17.8725 28.1601L11.6186 35.4896L16.6569 27.2768L9.33327 33.5378L15.5943 26.2143L7.38146 31.2525L14.711 24.9985L5.81116 28.69L14.0288 23.6596L4.66107 25.9134L13.5645 22.2305L3.95942 22.9911L13.3294 20.7464L3.72363 19.995L13.3294 19.2437L3.95942 16.9989L13.5645 17.7594L4.66107 14.0766L14.0288 16.3303L5.81116 11.2999L14.711 14.9914L7.38146 8.73741L15.5943 13.7757L9.33327 6.45216L16.6569 12.7131L11.6186 4.50035L17.8725 11.8299L14.1811 2.93001L19.2114 11.1477L16.9577 1.77988L20.6406 10.6833L19.88 1.07831L22.1247 10.4483L22.8761 0.842529Z" fill="#FBDB14"/>
</g>
<g id="Group_3">
<path id="Vector_2" d="M42.0992 21.3516L24.1494 39.3013C23.3739 40.0768 22.1048 40.0768 21.3293 39.3013L3.37947 21.3516C2.60398 20.576 2.60398 19.3069 3.37947 18.5314L21.3293 0.581686C22.1048 -0.193895 23.3739 -0.193895 24.1494 0.581686L42.0992 18.5314C42.8746 19.3069 42.8746 20.576 42.0992 21.3516Z" fill="#2D3A4A"/>
</g>
<g id="Group_4">
<g id="Group_5">
<path id="Vector_3" d="M22.7756 5.5625L23.0742 6.4815H24.0405L23.2588 7.04951L23.5574 7.96849L22.7756 7.40052L21.9939 7.96849L22.2925 7.04951L21.5107 6.4815H22.477L22.7756 5.5625Z" fill="#FBDB14"/>
</g>
<g id="Group_6">
<path id="Vector_4" d="M26.407 6.2832L26.6075 6.90032H27.2564L26.7314 7.2817L26.9319 7.89877L26.407 7.5174L25.8821 7.89877L26.0826 7.2817L25.5576 6.90032H26.2064L26.407 6.2832Z" fill="#FBDB14"/>
</g>
<g id="Group_7">
<path id="Vector_5" d="M19.1433 6.2832L19.3438 6.90032H19.9926L19.4677 7.2817L19.6682 7.89877L19.1433 7.5174L18.6183 7.89877L18.8188 7.2817L18.2939 6.90032H18.9428L19.1433 6.2832Z" fill="#FBDB14"/>
</g>
</g>
<g id="Group_8">
<g id="Group_9">
<path id="Vector_6" d="M22.7405 34.6005L22.4418 33.6815H21.4756L22.2573 33.1136L21.9587 32.1946L22.7405 32.7625L23.5222 32.1946L23.2236 33.1136L24.0053 33.6815H23.0391L22.7405 34.6005Z" fill="#F62B7D"/>
</g>
<g id="Group_10">
<path id="Vector_7" d="M19.1101 33.88L18.9096 33.2629H18.2607L18.7857 32.8815L18.5852 32.2644L19.1101 32.6458L19.635 32.2644L19.4345 32.8815L19.9594 33.2629H19.3106L19.1101 33.88Z" fill="#F62B7D"/>
</g>
<g id="Group_11">
<path id="Vector_8" d="M26.3738 33.88L26.1733 33.2629H25.5244L26.0494 32.8815L25.8489 32.2644L26.3738 32.6458L26.8987 32.2644L26.6982 32.8815L27.2232 33.2629H26.5743L26.3738 33.88Z" fill="#F62B7D"/>
</g>
</g>
<g id="Group_12">
<g id="Group_13">
<g id="Group_14">
<path id="Vector_9" d="M38.6187 31.0251C41.832 31.9491 44.9782 33.1841 48.0125 34.7301C45.9628 35.0023 43.9863 35.4036 42.0932 35.9187C43.1266 37.5864 44.0346 39.2858 44.8173 41.0011C42.1869 39.6609 39.4594 38.5902 36.6738 37.7892C37.3222 35.5346 37.9705 33.2798 38.6187 31.0251Z" fill="#2D3A4A"/>
</g>
<g id="Group_15">
<path id="Vector_10" d="M0 34.7299C3.03425 33.1839 6.18056 31.9489 9.39379 31.0249C10.042 33.2796 10.6904 35.5343 11.3387 37.789C8.55315 38.59 5.82567 39.6606 3.19521 41.0009C3.97784 39.2856 4.88592 37.5862 5.91929 35.9184C4.02631 35.4033 2.04968 35.0021 0 34.7299Z" fill="#2D3A4A"/>
</g>
</g>
<g id="Group_16">
<path id="Vector_11" d="M5.94629 31.4103C17.5997 27.1178 30.4153 27.1178 42.0688 31.4103C41.2581 33.6118 40.4473 35.8133 39.6367 38.0148C29.5524 34.3004 18.4626 34.3004 8.37839 38.0148C7.56768 35.8133 6.75696 33.6118 5.94629 31.4103Z" fill="#DCB63B"/>
</g>
</g>
<g id="Group_17">
<g id="Group_18">
<path id="Vector_12" d="M18.0554 11.5747C18.1894 11.6786 18.3468 11.7306 18.5272 11.7306C18.7077 11.7306 18.865 11.6786 18.9989 11.5747C19.133 11.4707 19.1999 11.3176 19.1999 11.1152C19.1999 10.9347 19.1356 10.7884 19.0071 10.6762C18.8785 10.5641 18.7186 10.5081 18.5271 10.5081C18.3358 10.5081 18.1759 10.5641 18.0472 10.6762C17.9187 10.7884 17.8545 10.9347 17.8545 11.1152C17.8546 11.3177 17.9214 11.4707 18.0554 11.5747Z" fill="#340F51"/>
</g>
<g id="Group_19">
<path id="Vector_13" d="M12.832 17.0304C12.9577 17.1507 13.0906 17.2532 13.2298 17.338C13.3693 17.4228 13.5241 17.4926 13.6935 17.5472C13.863 17.6019 14.0477 17.6416 14.2475 17.6662C14.4469 17.6908 14.6699 17.7031 14.9161 17.7031H16.8033V16.6775H21.5209V14.733C21.5209 14.3938 21.4855 14.0808 21.4143 13.7936C21.3431 13.5064 21.2201 13.2698 21.0451 13.0839C20.8373 12.865 20.5937 12.7078 20.3148 12.6121C20.0358 12.5163 19.7104 12.4685 19.3384 12.4685H16.8033V11.9023H15.6545V16.5545H14.998C14.752 16.5545 14.5221 16.5326 14.3089 16.4888C14.0956 16.4451 13.9178 16.3631 13.7758 16.2427C13.6499 16.1333 13.5611 15.9925 13.5088 15.8201C13.457 15.6478 13.431 15.4386 13.431 15.1925V12.6489H12.2822V15.3319C12.2822 15.6656 12.3235 15.9842 12.4053 16.2878C12.4874 16.5914 12.6297 16.839 12.832 17.0304ZM16.8032 13.609H19.4532C19.6008 13.609 19.7363 13.6391 19.8594 13.6992C19.9824 13.7593 20.0796 13.836 20.1507 13.929C20.2273 14.0219 20.2833 14.13 20.3187 14.253C20.3545 14.3761 20.3723 14.5196 20.3723 14.6837V15.5289H16.8032L16.8032 13.609Z" fill="#340F51"/>
</g>
<g id="Group_20">
<path id="Vector_14" d="M22.5293 18.462C22.6333 18.4757 22.74 18.4825 22.8493 18.4825C23.3907 18.4825 23.7901 18.3404 24.0472 18.0559C24.3043 17.7715 24.4493 17.312 24.4821 16.6775H33.182V15.5289H30.5812C30.4443 15.3593 30.3377 15.1692 30.261 14.9586C30.1847 14.7479 30.1463 14.5114 30.1463 14.2489C30.1463 14.0684 30.1763 13.9002 30.2365 13.7443C30.2968 13.5884 30.4006 13.4476 30.5483 13.3218C30.7671 13.1358 31.0651 13.0428 31.4426 13.0428C31.6341 13.0428 31.8352 13.077 32.0456 13.1454C32.2563 13.2137 32.449 13.2972 32.624 13.3956L33.0097 12.3536C32.7307 12.2114 32.4531 12.1006 32.177 12.0213C31.9006 11.942 31.6095 11.9023 31.3032 11.9023C31.0077 11.9023 30.7329 11.9434 30.4787 12.0254C30.2241 12.1075 30.0014 12.2278 29.81 12.3864C29.5691 12.5833 29.3723 12.8295 29.2192 13.1248C29.0659 13.4202 28.9895 13.7648 28.9895 14.1586C28.9895 14.4212 29.0235 14.6674 29.0921 14.8971C29.1605 15.1268 29.2411 15.3374 29.334 15.5289H24.4902V12.0582H23.3415V16.5298C23.3415 16.8143 23.2965 17.0194 23.2062 17.1452C23.116 17.271 22.9558 17.3339 22.7261 17.3339C22.6388 17.3339 22.5537 17.3284 22.4719 17.3174C22.3897 17.3065 22.2941 17.2874 22.1846 17.26L22.2667 18.4087C22.3379 18.4305 22.4253 18.4483 22.5293 18.462Z" fill="#340F51"/>
</g>
<g id="Group_21">
<path id="Vector_15" d="M13.6542 18.4495C13.4628 18.4495 13.3028 18.5055 13.1744 18.6176C13.0458 18.7297 12.9814 18.8761 12.9814 19.0566C12.9814 19.2589 13.0484 19.4121 13.1824 19.5161C13.3164 19.62 13.4737 19.672 13.6542 19.672C13.8349 19.672 13.9919 19.62 14.126 19.5161C14.26 19.4121 14.327 19.259 14.327 19.0566C14.327 18.8761 14.2628 18.7297 14.1343 18.6176C14.0058 18.5055 13.8459 18.4495 13.6542 18.4495Z" fill="#340F51"/>
</g>
<g id="Group_22">
<path id="Vector_16" d="M18.5735 24.9165C18.393 24.9165 18.2411 24.9712 18.1181 25.0806C17.995 25.19 17.9336 25.3322 17.9336 25.5073C17.9336 25.6987 17.9964 25.8437 18.1221 25.9422C18.2481 26.0406 18.3984 26.0898 18.5735 26.0898C18.7484 26.0898 18.8989 26.0406 19.0247 25.9422C19.1504 25.8437 19.2135 25.6987 19.2135 25.5073C19.2135 25.3322 19.1519 25.19 19.0288 25.0806C18.9057 24.9712 18.7538 24.9165 18.5735 24.9165Z" fill="#340F51"/>
</g>
<g id="Group_23">
<path id="Vector_17" d="M20.354 24.9165C20.1736 24.9165 20.0217 24.9712 19.8986 25.0806C19.7755 25.19 19.7139 25.3322 19.7139 25.5073C19.7139 25.6987 19.7769 25.8437 19.9026 25.9422C20.0286 26.0406 20.1791 26.0898 20.354 26.0898C20.529 26.0898 20.6794 26.0406 20.8053 25.9422C20.931 25.8437 20.9939 25.6987 20.9939 25.5073C20.9939 25.3322 20.9339 25.19 20.8135 25.0806C20.6931 24.9712 20.5399 24.9165 20.354 24.9165Z" fill="#340F51"/>
</g>
<g id="Group_24">
<path id="Vector_18" d="M33.3208 21.6731C33.1922 21.3668 33.0143 21.1015 32.7873 20.8772C32.5603 20.653 32.2951 20.4766 31.9916 20.348C31.688 20.2195 31.364 20.1553 31.0193 20.1553C30.6801 20.1553 30.3616 20.2209 30.0633 20.3522C29.7653 20.4835 29.5056 20.6626 29.284 20.8896C29.0624 21.1166 28.8874 21.3819 28.7588 21.6854C28.6304 21.989 28.5661 22.3159 28.5661 22.6659C28.5661 22.7589 28.5701 22.8492 28.5784 22.9366C28.5865 23.0242 28.6015 23.109 28.6234 23.1911H27.0731C27.0895 23.109 27.1031 23.0242 27.114 22.9366C27.125 22.8492 27.1305 22.7589 27.1305 22.6659C27.1305 22.3104 27.0662 21.9794 26.9377 21.6731C26.8091 21.3668 26.6313 21.1015 26.4045 20.8773C26.1774 20.653 25.912 20.4766 25.6085 20.3481C25.305 20.2195 24.9809 20.1553 24.6364 20.1553C24.2972 20.1553 23.9785 20.2209 23.6804 20.3522C23.3824 20.4835 23.1225 20.6626 22.9009 20.8897C22.6795 21.1166 22.5044 21.3819 22.3758 21.6855C22.2472 21.9891 22.183 22.3159 22.183 22.666C22.183 22.7589 22.1874 22.8492 22.1954 22.9367C22.2038 23.0242 22.2187 23.109 22.2406 23.1911H20.0993V20.3659H18.9507V23.1911H14.2548V20.3659H13.1061V24.1921C13.1061 24.4765 13.0609 24.6816 12.9707 24.8074C12.8804 24.9333 12.7204 24.9961 12.4908 24.9961C12.4032 24.9961 12.3184 24.9907 12.2363 24.9797C12.1544 24.9688 12.0585 24.9497 11.9492 24.9223L12.0311 26.071C12.1024 26.0928 12.1899 26.1106 12.2937 26.1244C12.3977 26.138 12.5044 26.1448 12.6139 26.1448C13.1554 26.1448 13.5545 26.0027 13.8117 25.7182C14.0687 25.4338 14.2137 24.9743 14.2465 24.3398H22.8477C23.0776 24.5805 23.3457 24.7706 23.6518 24.91C23.9582 25.0495 24.2864 25.1193 24.6365 25.1193C24.992 25.1193 25.3271 25.0509 25.6416 24.9141C25.956 24.7774 26.2283 24.586 26.458 24.3398H29.2309C29.4606 24.5805 29.7286 24.7706 30.035 24.91C30.3414 25.0495 30.6693 25.1193 31.0195 25.1193C31.3532 25.1193 31.6705 25.0564 31.9712 24.9306C32.2721 24.8048 32.5375 24.6325 32.7672 24.4137C32.9969 24.1949 33.1787 23.9364 33.3127 23.6383C33.4468 23.3402 33.5139 23.0161 33.5139 22.666C33.5136 22.3104 33.4494 21.9794 33.3208 21.6731ZM25.8793 23.1787C25.8107 23.34 25.7151 23.4795 25.592 23.5971C25.4689 23.7148 25.3255 23.8063 25.1614 23.872C24.9972 23.9377 24.8222 23.9705 24.6363 23.9705C24.4502 23.9705 24.2778 23.9363 24.1193 23.8679C23.9608 23.7995 23.8225 23.7066 23.7049 23.5889C23.5873 23.4714 23.4957 23.3319 23.4302 23.1706C23.3645 23.0092 23.3317 22.8355 23.3317 22.6495C23.3317 22.4636 23.3645 22.2885 23.4302 22.1245C23.4957 21.9604 23.5861 21.8181 23.7008 21.6978C23.8158 21.5775 23.9524 21.4817 24.1112 21.4107C24.2697 21.3395 24.4447 21.304 24.6363 21.304C24.8332 21.304 25.0136 21.3382 25.1778 21.4066C25.3418 21.475 25.4839 21.5693 25.6044 21.6896C25.7245 21.81 25.8176 21.9521 25.8833 22.1162C25.9491 22.2803 25.9817 22.4581 25.9817 22.6495C25.9817 22.8409 25.9477 23.0173 25.8793 23.1787ZM32.2623 23.1787C32.194 23.34 32.0983 23.4795 31.9752 23.5971C31.8521 23.7148 31.7084 23.8063 31.5443 23.872C31.3803 23.9377 31.2052 23.9705 31.0193 23.9705C30.8334 23.9705 30.661 23.9363 30.5025 23.8679C30.3437 23.7995 30.2056 23.7066 30.0881 23.5889C29.9705 23.4714 29.8788 23.3319 29.8131 23.1706C29.7474 23.0092 29.7148 22.8355 29.7148 22.6495C29.7148 22.4636 29.7474 22.2885 29.8131 22.1245C29.8788 21.9604 29.969 21.8181 30.084 21.6978C30.1987 21.5775 30.3356 21.4817 30.4942 21.4107C30.6527 21.3396 30.8279 21.304 31.0193 21.304C31.2161 21.304 31.3968 21.3382 31.5608 21.4066C31.7247 21.475 31.8671 21.5693 31.9873 21.6896C32.1078 21.81 32.2009 21.9521 32.2663 22.1162C32.3319 22.2803 32.3648 22.4581 32.3648 22.6495C32.3649 22.8409 32.3306 23.0173 32.2623 23.1787Z" fill="#340F51"/>
</g>
</g>
<g id="Group_25">
<g id="Group_26">
<path id="Vector_19" d="M18.2126 11.2598C18.3466 11.3637 18.504 11.4156 18.6844 11.4156C18.8648 11.4156 19.0222 11.3637 19.1561 11.2598C19.2902 11.1558 19.3571 11.0027 19.3571 10.8003C19.3571 10.6198 19.2928 10.4734 19.1643 10.3613C19.0357 10.2492 18.8758 10.1931 18.6844 10.1931C18.493 10.1931 18.3331 10.2492 18.2045 10.3613C18.0759 10.4735 18.0117 10.6198 18.0117 10.8003C18.0117 11.0027 18.0785 11.1558 18.2126 11.2598Z" fill="white"/>
</g>
<g id="Group_27">
<path id="Vector_20" d="M12.9894 16.7154C13.1151 16.8357 13.2479 16.9383 13.3871 17.0231C13.5266 17.1079 13.6814 17.1776 13.8509 17.2323C14.0202 17.287 14.2051 17.3266 14.4048 17.3512C14.6042 17.3758 14.8273 17.3881 15.0734 17.3881H16.9605V16.3625H21.6782V14.418C21.6782 14.0789 21.6427 13.7657 21.5715 13.4786C21.5003 13.1914 21.3773 12.9548 21.2024 12.7689C20.9945 12.55 20.751 12.3928 20.472 12.2971C20.1931 12.2013 19.8677 12.1535 19.4956 12.1535H16.9605V11.5874H15.8117V16.2395H15.1553C14.9092 16.2395 14.6794 16.2176 14.4661 16.1738C14.2528 16.1301 14.0751 16.048 13.933 15.9278C13.8071 15.8183 13.7183 15.6774 13.666 15.5051C13.6143 15.3329 13.5883 15.1237 13.5883 14.8776V12.334H12.4395V15.017C12.4395 15.3507 12.4807 15.6693 12.5625 15.9729C12.6447 16.2764 12.7871 16.524 12.9894 16.7154ZM16.9606 13.294H19.6106C19.7582 13.294 19.8937 13.324 20.0168 13.3842C20.1398 13.4443 20.237 13.521 20.3081 13.614C20.3847 13.707 20.4406 13.8151 20.4761 13.9381C20.5119 14.0612 20.5297 14.2047 20.5297 14.3688V15.214H16.9605L16.9606 13.294Z" fill="white"/>
</g>
<g id="Group_28">
<path id="Vector_21" d="M22.6874 18.1471C22.7914 18.1608 22.8981 18.1676 23.0074 18.1676C23.5489 18.1676 23.9483 18.0254 24.2054 17.741C24.4625 17.4565 24.6074 16.9971 24.6402 16.3626H33.3402V15.214H30.7394C30.6025 15.0444 30.4958 14.8543 30.4192 14.6437C30.3429 14.4331 30.3045 14.1965 30.3045 13.934C30.3045 13.7535 30.3345 13.5853 30.3947 13.4294C30.455 13.2735 30.5587 13.1326 30.7065 13.0068C30.9253 12.8209 31.2233 12.7279 31.6008 12.7279C31.7922 12.7279 31.9934 12.762 32.2038 12.8304C32.4144 12.8988 32.6072 12.9823 32.7822 13.0807L33.1678 12.0387C32.8889 11.8965 32.6113 11.7857 32.3352 11.7063C32.0588 11.627 31.7678 11.5874 31.4614 11.5874C31.1659 11.5874 30.8911 11.6284 30.6369 11.7105C30.3823 11.7925 30.1596 11.9128 29.9682 12.0714C29.7273 12.2683 29.5304 12.5145 29.3774 12.8099C29.2241 13.1053 29.1477 13.4499 29.1477 13.8437C29.1477 14.1062 29.1818 14.3525 29.2504 14.5821C29.3187 14.8119 29.3993 15.0224 29.4922 15.214H24.6485V11.7432H23.4997V16.2149C23.4997 16.4993 23.4547 16.7044 23.3645 16.8303C23.2742 16.956 23.1141 17.019 22.8844 17.019C22.7971 17.019 22.712 17.0135 22.6301 17.0025C22.548 16.9916 22.4524 16.9725 22.3428 16.9451L22.4249 18.0938C22.4961 18.1156 22.5835 18.1334 22.6874 18.1471Z" fill="white"/>
</g>
<g id="Group_29">
<path id="Vector_22" d="M13.8143 18.1345C13.623 18.1345 13.4629 18.1906 13.3345 18.3027C13.2059 18.4148 13.1416 18.5611 13.1416 18.7417C13.1416 18.944 13.2086 19.0973 13.3426 19.2011C13.4766 19.3051 13.6339 19.3571 13.8144 19.3571C13.9951 19.3571 14.1521 19.3051 14.2862 19.2011C14.4202 19.0972 14.4872 18.944 14.4872 18.7417C14.4872 18.5611 14.423 18.4148 14.2945 18.3027C14.1659 18.1906 14.006 18.1345 13.8143 18.1345Z" fill="white"/>
</g>
<g id="Group_30">
<path id="Vector_23" d="M18.7317 24.6016C18.5511 24.6016 18.3993 24.6563 18.2763 24.7657C18.1532 24.8751 18.0918 25.0173 18.0918 25.1923C18.0918 25.3838 18.1546 25.5287 18.2803 25.6272C18.4063 25.7256 18.5567 25.7749 18.7318 25.7749C18.9067 25.7749 19.0571 25.7256 19.1829 25.6272C19.3086 25.5287 19.3717 25.3838 19.3717 25.1923C19.3717 25.0173 19.3101 24.8751 19.187 24.7657C19.0639 24.6563 18.9121 24.6016 18.7317 24.6016Z" fill="white"/>
</g>
<g id="Group_31">
<path id="Vector_24" d="M20.5122 24.6016C20.3317 24.6016 20.1799 24.6563 20.0568 24.7657C19.9337 24.8751 19.8721 25.0173 19.8721 25.1923C19.8721 25.3838 19.9351 25.5287 20.0608 25.6272C20.1868 25.7256 20.3372 25.7749 20.5122 25.7749C20.6872 25.7749 20.8376 25.7256 20.9635 25.6272C21.0892 25.5287 21.152 25.3838 21.152 25.1923C21.152 25.0173 21.092 24.8751 20.9716 24.7657C20.8513 24.6563 20.6981 24.6016 20.5122 24.6016Z" fill="white"/>
</g>
<g id="Group_32">
<path id="Vector_25" d="M33.479 21.3619C33.3505 21.0555 33.1726 20.7902 32.9456 20.566C32.7185 20.3417 32.4534 20.1653 32.1499 20.0368C31.8462 19.9082 31.5222 19.844 31.1775 19.844C30.8383 19.844 30.5198 19.9096 30.2216 20.0409C29.9236 20.1722 29.6639 20.3513 29.4423 20.5783C29.2206 20.8053 29.0456 21.0706 28.9171 21.3741C28.7886 21.6777 28.7244 22.0046 28.7244 22.3547C28.7244 22.4476 28.7284 22.5379 28.7367 22.6254C28.7448 22.7129 28.7598 22.7977 28.7817 22.8798H27.2314C27.2478 22.7977 27.2614 22.713 27.2723 22.6254C27.2833 22.5379 27.2887 22.4476 27.2887 22.3547C27.2887 21.9991 27.2245 21.6682 27.0959 21.3619C26.9673 21.0555 26.7895 20.7902 26.5627 20.566C26.3356 20.3417 26.0702 20.1653 25.7667 20.0368C25.4632 19.9082 25.1391 19.844 24.7946 19.844C24.4554 19.844 24.1367 19.9096 23.8386 20.0409C23.5407 20.1722 23.2807 20.3513 23.0591 20.5783C22.8377 20.8053 22.6626 21.0706 22.534 21.3741C22.4055 21.6777 22.3412 22.0046 22.3412 22.3547C22.3412 22.4476 22.3455 22.5379 22.3536 22.6254C22.362 22.7129 22.3769 22.7977 22.3988 22.8798H20.2575V20.0546H19.1089V22.8798H14.413V20.0546H13.2643V23.8807C13.2643 24.1651 13.219 24.3703 13.1289 24.4961C13.0386 24.6219 12.8786 24.6848 12.649 24.6848C12.5614 24.6848 12.4766 24.6793 12.3945 24.6684C12.3126 24.6574 12.2167 24.6383 12.1074 24.6109L12.1893 25.7596C12.2606 25.7815 12.3481 25.7992 12.4518 25.813C12.5558 25.8266 12.6626 25.8334 12.7721 25.8334C13.3136 25.8334 13.7127 25.6913 13.9699 25.4068C14.227 25.1223 14.3719 24.6629 14.4047 24.0284H23.006C23.2359 24.269 23.5039 24.4591 23.81 24.5986C24.1164 24.7381 24.4446 24.8078 24.7948 24.8078C25.1502 24.8078 25.4853 24.7395 25.7998 24.6027C26.1142 24.4659 26.3864 24.2745 26.6162 24.0284H29.3891C29.6188 24.269 29.8868 24.4591 30.1932 24.5986C30.4995 24.7381 30.8275 24.8078 31.1778 24.8078C31.5114 24.8078 31.8287 24.7449 32.1294 24.6191C32.4303 24.4933 32.6957 24.3211 32.9254 24.1022C33.1551 23.8834 33.3369 23.6249 33.4709 23.3268C33.6049 23.0288 33.6721 22.7046 33.6721 22.3546C33.6719 21.9991 33.6076 21.6682 33.479 21.3619ZM26.0376 22.8674C25.969 23.0288 25.8734 23.1683 25.7503 23.2859C25.6272 23.4035 25.4837 23.4951 25.3197 23.5607C25.1554 23.6264 24.9804 23.6592 24.7945 23.6592C24.6085 23.6592 24.436 23.625 24.2776 23.5566C24.119 23.4882 23.9808 23.3953 23.8632 23.2776C23.7455 23.16 23.6539 23.0205 23.5885 22.8592C23.5227 22.6978 23.4899 22.5242 23.4899 22.3382C23.4899 22.1522 23.5227 21.9771 23.5885 21.813C23.6539 21.649 23.7443 21.5067 23.8591 21.3864C23.974 21.2661 24.1107 21.1704 24.2694 21.0992C24.428 21.0281 24.6029 20.9925 24.7945 20.9925C24.9914 20.9925 25.1719 21.0268 25.3361 21.0951C25.5 21.1635 25.6421 21.2578 25.7626 21.3781C25.8828 21.4985 25.9759 21.6407 26.0415 21.8048C26.1073 21.9689 26.1399 22.1467 26.1399 22.3382C26.1399 22.5297 26.1059 22.706 26.0376 22.8674ZM32.4205 22.8674C32.3522 23.0288 32.2565 23.1683 32.1334 23.2859C32.0103 23.4035 31.8666 23.4951 31.7025 23.5607C31.5386 23.6264 31.3634 23.6592 31.1775 23.6592C30.9916 23.6592 30.8192 23.625 30.6607 23.5566C30.502 23.4882 30.3639 23.3953 30.2463 23.2776C30.1287 23.16 30.037 23.0205 29.9714 22.8592C29.9056 22.6978 29.8731 22.5242 29.8731 22.3382C29.8731 22.1522 29.9056 21.9771 29.9714 21.813C30.037 21.649 30.1273 21.5067 30.2422 21.3864C30.3569 21.2661 30.4938 21.1704 30.6524 21.0992C30.8109 21.0281 30.9861 20.9925 31.1775 20.9925C31.3743 20.9925 31.5551 21.0268 31.719 21.0951C31.883 21.1635 32.0254 21.2578 32.1455 21.3781C32.266 21.4985 32.3591 21.6407 32.4246 21.8048C32.4902 21.9689 32.5231 22.1467 32.5231 22.3382C32.5231 22.5297 32.4888 22.706 32.4205 22.8674Z" fill="white"/>
</g>
</g>
<g id="Group_33">
<g id="Group_34">
<g id="Group_35">
<path id="Vector_26" d="M10.387 33.1645C10.2495 33.1768 10.1808 33.1832 10.0432 33.1964C9.93013 33.2082 9.83616 33.196 9.76422 33.1583C9.69723 33.1231 9.65354 33.0655 9.63406 32.9881C9.60959 32.891 9.62662 32.8012 9.6857 32.7189C9.74466 32.6366 9.84403 32.5782 9.98366 32.5442C10.2392 32.4819 10.4464 32.4979 10.604 32.5903C10.7125 32.4275 10.7671 32.3462 10.8774 32.1838C10.6024 32.0278 10.2717 31.9948 9.88945 32.0878C9.58667 32.1614 9.36513 32.2964 9.22636 32.4896C9.08747 32.6829 9.05078 32.9003 9.11374 33.1411C9.17218 33.3646 9.28441 33.5224 9.44794 33.6112C9.59699 33.6921 9.79493 33.7196 10.0385 33.6962C10.1751 33.683 10.2433 33.6767 10.3797 33.6644C10.5001 33.6538 10.5899 33.6641 10.649 33.695C10.7187 33.7365 10.7644 33.8036 10.7861 33.896C10.8114 34.0034 10.789 34.0957 10.7195 34.1728C10.65 34.25 10.5362 34.3075 10.3781 34.3461C10.0949 34.4154 9.85849 34.3961 9.66683 34.2863C9.56332 34.456 9.51197 34.5409 9.41032 34.7111C9.57308 34.8036 9.73932 34.8564 9.90978 34.8699C10.0802 34.8834 10.2726 34.8634 10.4877 34.8108C10.7812 34.739 11.0046 34.6109 11.1599 34.4236C11.3151 34.2364 11.3654 34.0168 11.3084 33.7639C11.2533 33.5188 11.1393 33.3472 10.9671 33.2499C10.8256 33.1698 10.6319 33.1402 10.387 33.1645Z" fill="white"/>
<path id="Vector_27" d="M12.5118 31.5399C12.069 31.6267 11.8478 31.6722 11.4062 31.7676C11.6377 32.8393 11.7532 33.3752 11.9846 34.4469C12.1967 34.4011 12.3028 34.3787 12.5153 34.335C12.4321 33.9308 12.3904 33.7287 12.3073 33.3245C12.5205 33.2805 12.6272 33.2591 12.8406 33.2173C13.1212 33.1623 13.3286 33.0401 13.4648 32.8479C13.601 32.656 13.6491 32.4415 13.6065 32.204C13.5639 31.9666 13.4439 31.7818 13.2448 31.6515C13.0457 31.5211 12.8006 31.4833 12.5118 31.5399ZM12.9965 32.595C12.936 32.6771 12.8443 32.73 12.7213 32.7542C12.5171 32.7944 12.415 32.8149 12.211 32.8569C12.1501 32.5613 12.1197 32.4135 12.0589 32.1178C12.2655 32.0753 12.3689 32.0545 12.5758 32.0138C12.7003 31.9894 12.8065 32.0042 12.8939 32.0581C12.9809 32.112 13.035 32.1945 13.056 32.3054C13.077 32.4164 13.0569 32.5129 12.9965 32.595Z" fill="white"/>
<path id="Vector_28" d="M14.3888 33.9782C15.1091 33.855 15.47 33.7992 16.193 33.6995C16.1669 33.5103 16.1538 33.4158 16.1277 33.2266C15.6147 33.2974 15.3585 33.3357 14.8469 33.4182C14.8045 33.1551 14.7833 33.0237 14.7409 32.7606C15.1832 32.6893 15.4047 32.6558 15.848 32.5931C15.8212 32.4041 15.8079 32.3096 15.7811 32.1205C15.3342 32.1837 15.1109 32.2175 14.6649 32.2894C14.6239 32.0354 14.6035 31.9085 14.5626 31.6546C15.0903 31.5696 15.3544 31.5301 15.8834 31.4571C15.8573 31.2679 15.8443 31.1733 15.8181 30.9841C15.0602 31.0888 14.6818 31.1472 13.9268 31.2763C14.1117 32.3571 14.204 32.8975 14.3888 33.9782Z" fill="white"/>
<path id="Vector_29" d="M17.0453 31.4291C17.1197 31.3251 17.2334 31.2637 17.3862 31.2466C17.6434 31.2178 17.8181 31.3302 17.9087 31.5814C18.1341 31.5581 18.2468 31.5469 18.4723 31.5258C18.3981 31.2518 18.2599 31.0495 18.0566 30.9201C17.8532 30.7909 17.6113 30.741 17.3331 30.7722C17.0252 30.8066 16.7758 30.9337 16.5956 31.1503C16.4795 31.29 16.4164 31.4389 16.4051 31.5917C16.3937 31.7446 16.4083 31.9751 16.4485 32.2829C16.4885 32.5909 16.5333 32.8174 16.5825 32.9624C16.6316 33.1074 16.7281 33.2357 16.8702 33.343C17.0906 33.5095 17.3497 33.575 17.6431 33.5422C17.9082 33.5125 18.123 33.4154 18.2893 33.2493C18.4556 33.083 18.5498 32.8591 18.5708 32.5761C18.3494 32.5968 18.2387 32.6077 18.0174 32.6306C17.9814 32.895 17.8393 33.0399 17.59 33.0678C17.4421 33.0843 17.3212 33.0502 17.2269 32.9661C17.1681 32.9137 17.1226 32.8384 17.0909 32.74C17.0593 32.6417 17.0282 32.4664 16.9978 32.2141C16.9674 31.9619 16.956 31.7843 16.9638 31.6812C16.9716 31.5782 16.9989 31.4941 17.0453 31.4291Z" fill="white"/>
<path id="Vector_30" d="M19.1134 33.3713C19.3286 33.353 19.4363 33.3442 19.6516 33.3279C19.5687 32.2345 19.5271 31.688 19.4441 30.5947C19.2184 30.6118 19.1055 30.6209 18.8799 30.6402C18.9733 31.7327 19.0201 32.2788 19.1134 33.3713Z" fill="white"/>
<path id="Vector_31" d="M20.8481 30.5118C20.487 31.6285 20.3164 32.1882 19.9941 33.3098C20.2202 33.2941 20.3332 33.2867 20.5594 33.2732C20.6147 33.0755 20.6427 32.9767 20.6991 32.7792C21.0998 32.7564 21.3002 32.7468 21.7011 32.7311C21.7816 32.9221 21.8215 33.0177 21.9007 33.209C22.1138 33.2014 22.2203 33.198 22.4335 33.1924C21.9993 32.107 21.7721 31.5665 21.299 30.49C21.1186 30.498 21.0283 30.5023 20.8481 30.5118ZM20.7987 32.3225C20.9255 31.9177 20.9903 31.7155 21.1223 31.3113C21.281 31.7014 21.3592 31.8968 21.5132 32.2879C21.2274 32.2999 21.0844 32.3069 20.7987 32.3225Z" fill="white"/>
<path id="Vector_32" d="M23.3029 32.6955C23.2927 31.79 23.2874 31.3374 23.2775 30.4319C23.0513 30.4344 22.9381 30.4362 22.7119 30.4409C22.7344 31.5371 22.7462 32.0851 22.7688 33.1814C23.486 33.1666 23.8449 33.1649 24.5623 33.1728C24.5644 32.9818 24.5654 32.8864 24.5675 32.6954C24.0616 32.6898 23.8087 32.6898 23.3029 32.6955Z" fill="white"/>
</g>
<g id="Group_36">
<path id="Vector_33" d="M28.0978 30.8417C27.9043 30.635 27.6508 30.5218 27.3416 30.504C27.0325 30.4863 26.7656 30.5697 26.5518 30.7531C26.414 30.8712 26.327 31.0075 26.2902 31.1562C26.2533 31.305 26.2291 31.5347 26.217 31.8449C26.2049 32.1553 26.211 32.386 26.2352 32.5372C26.2592 32.6884 26.3326 32.831 26.4545 32.9606C26.6436 33.1617 26.8877 33.2698 27.1822 33.2867C27.4768 33.3035 27.7298 33.2239 27.9427 33.0459C28.0785 32.9324 28.1675 32.801 28.2088 32.6522C28.25 32.5035 28.2826 32.2743 28.3059 31.9646C28.3292 31.655 28.3312 31.4235 28.3118 31.2702C28.2923 31.1169 28.2213 30.9735 28.0978 30.8417ZM27.692 32.4521C27.6672 32.5495 27.6241 32.6258 27.5669 32.6813C27.4717 32.7733 27.3528 32.8184 27.2095 32.8101C27.0661 32.8019 26.9532 32.7436 26.8693 32.6413C26.8187 32.5796 26.7846 32.4989 26.7711 32.3993C26.7576 32.2997 26.7569 32.123 26.7693 31.8692C26.7817 31.6129 26.7997 31.4358 26.8232 31.338C26.8467 31.2403 26.8896 31.1633 26.9476 31.1072C27.0411 31.0167 27.1636 30.9719 27.3142 30.9806C27.4649 30.9892 27.5814 31.0477 27.6639 31.1482C27.7151 31.2106 27.7489 31.292 27.7612 31.3918C27.7734 31.4916 27.771 31.6696 27.7542 31.9256C27.7375 32.1793 27.7167 32.3548 27.692 32.4521Z" fill="white"/>
<path id="Vector_34" d="M28.7529 33.3735C28.9682 33.3918 29.0759 33.4016 29.291 33.4219C29.3331 32.9789 29.3541 32.7573 29.396 32.3143C29.8411 32.3565 30.0634 32.3798 30.5078 32.4307C30.5295 32.241 30.5403 32.1461 30.562 31.9564C30.1139 31.9051 29.8896 31.8817 29.441 31.8391C29.4663 31.5708 29.4791 31.4367 29.5045 31.1684C30.0357 31.2188 30.301 31.247 30.8313 31.3095C30.8537 31.1198 30.8649 31.025 30.8873 30.8353C30.1276 30.7458 29.7472 30.7073 28.9857 30.6423C28.892 31.7348 28.8463 32.281 28.7529 33.3735Z" fill="white"/>
<path id="Vector_35" d="M31.0352 33.613C31.2498 33.6401 31.3571 33.6541 31.5714 33.6833C31.6314 33.2423 31.6614 33.0218 31.7211 32.5809C32.1646 32.6411 32.3862 32.6734 32.8288 32.7424C32.8581 32.5537 32.8728 32.4594 32.9021 32.2707C32.4559 32.2012 32.2324 32.1686 31.7853 32.1078C31.8215 31.8408 31.8396 31.7073 31.8759 31.4403C32.4053 31.5122 32.6696 31.5512 33.1977 31.6353C33.2277 31.4467 33.2427 31.3524 33.2728 31.1638C32.5162 31.0434 32.1372 30.9894 31.378 30.8936C31.2404 31.9813 31.1726 32.5252 31.0352 33.613Z" fill="white"/>
<path id="Vector_36" d="M33.3076 33.9531C34.0285 34.0739 34.3883 34.1403 35.1059 34.2845C35.1436 34.0973 35.1624 34.0037 35.2 33.8164C34.6907 33.7141 34.4357 33.6659 33.9248 33.5752C33.9713 33.3129 33.9946 33.1817 34.0411 32.9194C34.4827 32.9978 34.7033 33.0391 35.1438 33.1262C35.1808 32.9389 35.1993 32.8452 35.2363 32.6579C34.7921 32.5702 34.5697 32.5285 34.1244 32.4494C34.1693 32.1962 34.1917 32.0696 34.2366 31.8164C34.7636 31.9099 35.0266 31.9597 35.5518 32.0652C35.5894 31.878 35.6083 31.7844 35.6459 31.5972C34.8934 31.446 34.5162 31.3765 33.7605 31.2498C33.5789 32.3312 33.489 32.8718 33.3076 33.9531Z" fill="white"/>
<path id="Vector_37" d="M37.3476 33.5629C37.5044 33.5475 37.6453 33.4919 37.7707 33.3959C37.8961 33.2997 37.9812 33.1636 38.025 32.9867C38.0824 32.755 38.0485 32.5409 37.921 32.3448C37.7936 32.1487 37.588 32.0168 37.3059 31.9517C36.8604 31.8488 36.6371 31.7995 36.1902 31.7053C35.9638 32.7781 35.8513 33.3146 35.625 34.3874C35.8373 34.4322 35.9436 34.4551 36.1556 34.5019C36.2499 34.0748 36.2971 33.8613 36.3913 33.4343C36.5483 33.469 36.6268 33.4866 36.7836 33.5223C36.9008 33.9976 36.9574 34.2353 37.0659 34.7108C37.3109 34.7691 37.4332 34.799 37.6777 34.8601C37.551 34.341 37.485 34.0816 37.3476 33.5629ZM37.3117 33.0796C37.2246 33.1277 37.1226 33.138 37.0052 33.111C36.7987 33.0634 36.6953 33.0401 36.4883 32.9944C36.5504 32.7132 36.5814 32.5726 36.6435 32.2914C36.8529 32.3377 36.9576 32.3613 37.1667 32.4094C37.2855 32.4367 37.3738 32.4911 37.4312 32.5719C37.4886 32.6526 37.5047 32.7455 37.4798 32.8504C37.455 32.9553 37.3987 33.0316 37.3117 33.0796Z" fill="white"/>
</g>
</g>
</g>
</g>
</svg>
