<svg width="56" height="56" viewBox="0 0 56 56" fill="none" xmlns="http://www.w3.org/2000/svg">
<g id="starfish_515990 1" clip-path="url(#clip0_345_22123)">
<path id="Vector" d="M28 56C43.464 56 56 43.464 56 28C56 12.536 43.464 0 28 0C12.536 0 0 12.536 0 28C0 43.464 12.536 56 28 56Z" fill="#38A3A5"/>
<path id="Vector_2" d="M55.9665 29.3539L48.234 21.6214L44.9948 23.9153L27.9996 6.92017L15.4941 45.4082L26.0149 55.929C26.6706 55.975 27.3322 55.9999 27.9996 55.9999C43.0096 55.9999 55.26 44.1889 55.9665 29.3539Z" fill="#2C8D8E"/>
<path id="Vector_3" d="M28 6.92017L34.2528 19.5897L48.2344 21.6214L38.1172 31.4832L40.5056 45.4082L28 38.8337L15.4945 45.4082L17.8828 31.4832L7.76562 21.6214L21.7472 19.5897L28 6.92017Z" fill="#FFD071"/>
<path id="Vector_4" d="M48.2344 21.6214L34.2527 19.5897L28 6.92017V6.92028V38.8337L40.5056 45.4082L38.1172 31.4832L48.2344 21.6214Z" fill="#DCB63B"/>
<path id="Vector_5" d="M27.9995 37.6714L25.224 32.0476L19.0176 31.1456L23.5085 26.7681L22.4483 20.5869L27.9995 23.5053L33.5506 20.5869L32.4904 26.7681L36.9813 31.1458L30.775 32.0476L27.9995 37.6714Z" fill="#FF6E5E"/>
<path id="Vector_6" d="M36.9819 31.1458L32.4909 26.7681L33.5511 20.5869L28 23.5053V37.6714L30.7755 32.0476L36.9819 31.1458Z" fill="#ED3F3F"/>
</g>
<defs>
<clipPath id="clip0_345_22123">
<rect width="56" height="56" fill="white"/>
</clipPath>
</defs>
</svg>
