<svg width="56" height="56" viewBox="0 0 56 56" fill="none" xmlns="http://www.w3.org/2000/svg">
<g id="target_802036 1" clip-path="url(#clip0_345_22118)">
<path id="Vector" d="M28 56C43.464 56 56 43.464 56 28C56 12.536 43.464 0 28 0C12.536 0 0 12.536 0 28C0 43.464 12.536 56 28 56Z" fill="#F6F7F9"/>
<path id="Vector_2" d="M55.999 27.9997C55.999 43.4631 43.4628 55.9993 27.9993 55.9993C26.9964 55.9993 26.007 55.9472 25.0312 55.8439C39.1004 54.361 50.0617 42.4601 50.0617 27.9997C50.0617 13.5392 39.1003 1.63832 25.0312 0.155421C26.007 0.0521715 26.9964 0 27.9993 0C43.4629 0 55.999 12.5361 55.999 27.9997Z" fill="#CDD3D9"/>
<path id="Vector_3" d="M28.0005 47.9751C39.0324 47.9751 47.9756 39.032 47.9756 28C47.9756 16.9681 39.0324 8.0249 28.0005 8.0249C16.9686 8.0249 8.02539 16.9681 8.02539 28C8.02539 39.032 16.9686 47.9751 28.0005 47.9751Z" fill="#38A3A5"/>
<path id="Vector_4" d="M47.9749 27.9998C47.9749 39.0313 39.0316 47.9745 28.0002 47.9745C27.2847 47.9745 26.5789 47.9373 25.8828 47.8636C35.9195 46.8057 43.7392 38.3157 43.7392 27.9998C43.7392 17.684 35.9195 9.19392 25.8828 8.13605C26.5789 8.06244 27.2847 8.02515 28.0002 8.02515C39.0317 8.02515 47.9749 16.9682 47.9749 27.9998Z" fill="#2C8D8E"/>
<path id="Vector_5" d="M28.0008 40.0751C34.6696 40.0751 40.0758 34.6689 40.0758 28.0001C40.0758 21.3312 34.6696 15.925 28.0008 15.925C21.332 15.925 15.9258 21.3312 15.9258 28.0001C15.9258 34.6689 21.332 40.0751 28.0008 40.0751Z" fill="#FFD071"/>
<path id="Vector_6" d="M40.0757 27.9998C40.0757 34.6684 34.6695 40.0748 28.0007 40.0748C27.5681 40.0748 27.1415 40.0523 26.7207 40.0078C32.788 39.3682 37.5153 34.236 37.5153 27.9997C37.5153 21.7634 32.7881 16.6311 26.7207 15.9916C27.1415 15.9471 27.5681 15.9246 28.0007 15.9246C34.6694 15.9247 40.0757 21.3311 40.0757 27.9998Z" fill="#DCB63B"/>
<path id="Vector_7" d="M27.9992 33.5889C31.0859 33.5889 33.5882 31.0866 33.5882 27.9999C33.5882 24.9132 31.0859 22.4109 27.9992 22.4109C24.9124 22.4109 22.4102 24.9132 22.4102 27.9999C22.4102 31.0866 24.9124 33.5889 27.9992 33.5889Z" fill="#FF6E5E"/>
<path id="Vector_8" d="M33.5887 27.9997C33.5887 31.0858 31.0858 33.5887 27.9997 33.5887C27.4858 33.5887 26.9877 33.5194 26.5156 33.389C28.8824 32.7388 30.6205 30.5718 30.6205 27.9997C30.6205 25.4275 28.8824 23.2605 26.5156 22.6104C26.9877 22.4799 27.4857 22.4106 27.9997 22.4106C31.0858 22.4106 33.5887 24.9136 33.5887 27.9997Z" fill="#ED3F3F"/>
<path id="Vector_9" d="M28.0208 28.8298C27.805 28.8298 27.5891 28.7483 27.4234 28.5848C27.0888 28.2549 27.0849 27.7161 27.4149 27.3814L40.1945 14.4188C40.5246 14.084 41.0634 14.0804 41.3979 14.4103C41.7325 14.7403 41.7364 15.279 41.4065 15.6137L28.6268 28.5764C28.4603 28.7452 28.2406 28.8298 28.0208 28.8298Z" fill="#F6F7F9"/>
<path id="Vector_10" d="M47.6909 7.68838L48.256 1.88739C48.3077 1.35747 47.6667 1.05473 47.2903 1.43119L38.9552 9.76627C38.8352 9.88625 38.7752 10.0538 38.7918 10.2227L39.3695 16.1201C39.3959 16.3897 39.6092 16.603 39.8787 16.6294L45.7762 17.2071C45.9452 17.2236 46.1126 17.1637 46.2326 17.0437L54.5677 8.70862C54.9442 8.33215 54.6414 7.69122 54.1115 7.74285L48.3105 8.30798C47.9549 8.34254 47.6562 8.04395 47.6909 7.68838Z" fill="#FF6E5E"/>
<path id="Vector_11" d="M54.5679 8.70803L46.2331 17.044C46.1128 17.1631 45.9449 17.2232 45.7758 17.2074L39.8782 16.6287C39.6094 16.6025 39.396 16.3893 39.37 16.1204L39.252 14.9121L43.9413 15.3715C44.1104 15.3886 44.2771 15.3284 44.3974 15.2081L51.6203 7.98518L54.1119 7.74237C54.6417 7.6914 54.9446 8.33244 54.5679 8.70803Z" fill="#ED3F3F"/>
</g>
<defs>
<clipPath id="clip0_345_22118">
<rect width="56" height="56" fill="white"/>
</clipPath>
</defs>
</svg>
