<svg width="22" height="22" viewBox="0 0 22 22" fill="none" xmlns="http://www.w3.org/2000/svg">
<g id="_x30_5">
<path id="Vector" d="M5 21.5C5.82843 21.5 6.5 20.8284 6.5 20C6.5 19.1716 5.82843 18.5 5 18.5C4.17157 18.5 3.5 19.1716 3.5 20C3.5 20.8284 4.17157 21.5 5 21.5Z" fill="#2D3A4A"/>
<path id="Vector_2" d="M17 21.5C17.8284 21.5 18.5 20.8284 18.5 20C18.5 19.1716 17.8284 18.5 17 18.5C16.1716 18.5 15.5 19.1716 15.5 20C15.5 20.8284 16.1716 21.5 17 21.5Z" fill="#2D3A4A"/>
<path id="Vector_3" d="M6.19984 14C6.18419 14.0148 4.15039 14.3281 4.15039 14.3281C2.06958 14.6251 0.5 16.4346 0.5 18.537V19.25C0.5 19.6642 0.835449 20 1.25 20H2.75C2.75 18.7593 3.75928 17.75 5 17.75C6.24072 17.75 7.25 18.7593 7.25 20H14.75C14.75 18.7593 15.7593 17.75 17 17.75C18.1714 17.75 19.1254 18.6528 19.2295 19.7975L20.9873 19.2115C21.2935 19.1094 21.5 18.823 21.5 18.5V14.75C21.5 14.6335 21.4729 14.1044 21.4209 14H6.19984Z" fill="#2D3A4A"/>
<path id="Vector_4" d="M7.08716 13.25H14V11H13.7429C11.3051 11 8.99182 11.7942 7.08716 13.25Z" fill="#2D3A4A"/>
<path id="Vector_5" d="M15.8962 11H14.75V13.25H20.9636C19.8195 11.6807 17.9489 11 15.8962 11Z" fill="#2D3A4A"/>
<path id="Vector_6" d="M2.75 6.5C3.25647 6.5 3.72412 6.33191 4.10022 6.04846C4.64807 6.77759 5.52002 7.25 6.5 7.25C7.39502 7.25 8.19995 6.85596 8.75 6.2323C9.30005 6.85596 10.105 7.25 11 7.25C11.895 7.25 12.7 6.85596 13.25 6.2323C13.8 6.85596 14.605 7.25 15.5 7.25C16.48 7.25 17.3519 6.77759 17.8998 6.04846C18.2759 6.33191 18.7435 6.5 19.25 6.5C20.4907 6.5 21.5 5.49072 21.5 4.25C21.5 4.08777 21.4473 3.92993 21.3499 3.79993L19.0999 0.799927C18.9585 0.610962 18.7362 0.5 18.5 0.5H16.8544L18.1107 4.89709C18.1675 5.09595 18.0521 5.30359 17.8529 5.36072C17.8185 5.37024 17.7841 5.375 17.7496 5.375C17.5867 5.375 17.4365 5.2677 17.3893 5.10291L16.0742 0.5H12.9861L13.6213 4.9469C13.6506 5.15198 13.5082 5.34204 13.3031 5.37134C13.2852 5.3739 13.2672 5.375 13.2496 5.375C13.0658 5.375 12.9054 5.24023 12.8787 5.0531L12.2282 0.5H9.77177L9.12134 5.0531C9.0946 5.24023 8.9342 5.375 8.75037 5.375C8.73279 5.375 8.71484 5.3739 8.6969 5.37134C8.49182 5.34204 8.34937 5.15198 8.37866 4.9469L9.01395 0.5H6.58643L4.5946 5.14758C4.53381 5.29004 4.39539 5.375 4.25 5.375C4.20056 5.375 4.15039 5.36548 4.10242 5.3446C3.91199 5.26294 3.82373 5.04248 3.9054 4.85242L5.77074 0.5H3.5C3.26379 0.5 3.0415 0.610962 2.90015 0.799927L0.650146 3.79993C0.552734 3.92993 0.5 4.08777 0.5 4.25C0.5 5.49072 1.50928 6.5 2.75 6.5Z" fill="#2D3A4A"/>
<path id="Vector_7" d="M19.25 10.9352V7.24988C18.8296 7.24988 18.4231 7.16418 18.0466 6.99902C17.3589 7.6344 16.4456 7.99988 15.5 7.99988C14.6826 7.99988 13.8945 7.73181 13.25 7.24805C12.6055 7.73181 11.8174 7.99988 11 7.99988C10.1826 7.99988 9.39453 7.73181 8.75 7.24805C8.10547 7.73181 7.31738 7.99988 6.5 7.99988C5.55444 7.99988 4.64111 7.6344 3.95337 6.99902C3.5769 7.16418 3.17041 7.24988 2.75 7.24988V13.9561C3.1554 13.7775 3.58926 13.6506 4.04419 13.5857C4.04419 13.5857 4.12439 13.5733 4.25 13.5539V9.49988C4.25 9.08569 4.58582 8.74988 5 8.74988H8C8.41418 8.74988 8.75 9.08569 8.75 9.49988V11.3719C10.2987 10.639 11.9882 10.2499 13.7429 10.2499H15.8962C17.1451 10.2499 18.278 10.4873 19.25 10.9352Z" fill="#2D3A4A"/>
</g>
</svg>
