<svg width="104" height="104" viewBox="0 0 104 104" fill="none" xmlns="http://www.w3.org/2000/svg">
<path d="M23.5534 63.1388C23.4854 85.1264 41.7084 103.442 63.6961 103.478C71.3998 103.491 78.5903 101.353 84.7061 97.6035L98.4785 103.92C99.1211 104.215 99.8242 103.649 99.674 102.958L96.2111 87.033C101.671 79.6128 104.64 70.2551 103.883 60.1639C102.442 40.9376 87.0899 25.1558 67.9051 23.2392C43.8809 20.8391 23.6263 39.6007 23.5534 63.1388Z" fill="#90A3BF"/>
<path d="M72.5492 93.9504C72.2826 93.9504 72.0383 93.775 71.9621 93.5061C71.8716 93.1823 72.0605 92.8459 72.3842 92.7547C82.6849 89.849 90.8781 81.6391 93.7647 71.3297C93.8567 71.006 94.1852 70.8187 94.5169 70.9068C94.8406 70.9981 95.0295 71.3345 94.939 71.6582C91.9382 82.3739 83.4228 90.9075 72.7143 93.9274C72.6587 93.9432 72.6032 93.9504 72.5492 93.9504Z" fill="white"/>
<path d="M95.3722 66.4777C95.3548 66.4777 95.3373 66.4769 95.3199 66.4754C94.985 66.4468 94.7359 66.1516 94.7644 65.816C94.8422 64.9321 94.8787 64.0315 94.8755 63.1413C94.8739 62.8048 95.1469 62.5303 95.4833 62.5295C95.8181 62.5295 96.0927 62.8009 96.0943 63.1365C96.0974 64.0641 96.0594 65.0003 95.98 65.9208C95.9515 66.2381 95.6864 66.4777 95.3722 66.4777Z" fill="white"/>
<path d="M86.8407 43.2947C86.9141 67.0301 67.2427 86.801 43.5073 86.8407C35.1913 86.8546 27.4292 84.5467 20.8273 80.4988L5.96019 87.3176C5.26657 87.6357 4.50759 87.0251 4.66973 86.2794L8.40781 69.0882C2.51407 61.0781 -0.690789 50.9768 0.12579 40.0834C1.68158 19.3289 18.254 2.29267 38.9637 0.223717C64.8975 -2.36712 86.762 17.8858 86.8407 43.2947Z" fill="#D7DCE6"/>
<path d="M35.9487 6.31624C35.6599 6.31624 35.4028 6.11074 35.3489 5.81716C35.2885 5.48629 35.5075 5.16811 35.8392 5.10781C36.8532 4.92056 37.8847 4.77456 38.9035 4.67299C39.2558 4.63173 39.5367 4.88484 39.5701 5.21889C39.6034 5.55373 39.359 5.85208 39.0241 5.88541C38.0387 5.9838 37.0405 6.12582 36.0582 6.30594C36.0217 6.31306 35.9852 6.31624 35.9487 6.31624Z" fill="white"/>
<path d="M6.41341 33.1406C6.35787 33.1406 6.30073 33.1327 6.24362 33.1168C5.92148 33.0232 5.73421 32.6852 5.82784 32.3623C9.05087 21.2189 17.3806 11.8895 28.1097 7.40567C28.4144 7.2795 28.7778 7.42155 28.9063 7.73337C29.0364 8.04361 28.8904 8.40066 28.5794 8.53079C18.1883 12.8734 10.1204 21.9085 6.99898 32.7003C6.92122 32.9677 6.67842 33.1406 6.41341 33.1406Z" fill="white"/>
<path d="M43.4198 74.9564C60.6816 74.9564 74.675 60.9629 74.675 43.7011C74.675 26.4393 60.6816 12.4459 43.4198 12.4459C26.158 12.4459 12.1646 26.4393 12.1646 43.7011C12.1646 60.9629 26.158 74.9564 43.4198 74.9564Z" fill="#F6F7F9"/>
<path d="M47.4456 45.6349L49.5097 56.3789C49.6732 57.2297 49.0212 58.0188 48.1549 58.0188H38.6858C37.8195 58.0188 37.1676 57.2297 37.331 56.379L39.395 45.6349C36.0683 43.9071 34.0252 40.0186 35.0525 35.8326C35.8082 32.7533 38.3479 30.2799 41.4449 29.6007C47.0828 28.3642 52.0551 32.6129 52.0551 38.0091C52.0551 41.3228 50.1858 44.1905 47.4456 45.6349Z" fill="#90A3BF"/>
</svg>
