<svg width="84" height="84" viewBox="0 0 84 84" fill="none" xmlns="http://www.w3.org/2000/svg">
<g id="Group">
<path id="Vector" d="M29.6262 63.5474C29.0032 63.5474 28.3886 63.3387 27.8873 62.9327C27.0993 62.299 26.72 61.2888 26.8934 60.295L28.8136 49.3722C23.8926 42.9235 21.7828 34.9502 22.8606 26.7737C24.6265 13.3757 35.6384 2.3933 49.0447 0.659967C58.4536 -0.55614 67.7456 2.53405 74.4758 9.14775C81.2005 15.7559 84.456 24.9589 83.4052 34.3948C81.8858 48.0666 70.8466 59.317 57.156 61.1422C51.7584 61.8598 46.2956 61.1231 41.2769 59.0054L30.6766 63.3415C30.3358 63.4798 29.9811 63.5474 29.6262 63.5474ZM49.7547 6.1633C38.8021 7.57701 29.8023 16.5498 28.3587 27.4996C27.4269 34.5629 29.3932 41.4339 33.8947 46.8505C34.4147 47.4763 34.6341 48.2996 34.4934 49.1011L33.2259 56.3052L40.273 53.4237C40.9934 53.1283 41.7976 53.1529 42.5048 53.4805C46.8596 55.5307 51.6752 56.2781 56.4256 55.6444C67.6219 54.1496 76.6515 44.9574 77.8919 33.7826C78.753 26.0478 76.0909 18.5102 70.5876 13.1018C65.0811 7.69071 57.4843 5.17461 49.7547 6.1633Z" fill="#DCB63B"/>
<path id="Vector_2" d="M58.6411 40.1509C52.4531 37.6723 47.4316 32.9444 44.5852 26.9166L43.8499 25.3601L47.5648 21.6452C48.066 21.1439 48.066 20.3317 47.5648 19.8304L42.0462 14.3118C41.4967 13.7623 40.5871 13.8234 40.1087 14.4356C35.1583 20.7723 37.0687 31.5207 44.7741 39.2264C52.4795 46.9321 63.2282 48.8422 69.5649 43.8918C70.1771 43.4134 70.2382 42.5038 69.6887 41.9543L64.1701 36.4357C63.6688 35.9344 62.8566 35.9344 62.3553 36.4357L58.6411 40.1509Z" fill="#DCB63B"/>
<path id="Vector_3" d="M12.8807 83.6C15.1782 83.6 17.0407 81.7375 17.0407 79.44C17.0407 77.1425 15.1782 75.28 12.8807 75.28C10.5832 75.28 8.7207 77.1425 8.7207 79.44C8.7207 81.7375 10.5832 83.6 12.8807 83.6Z" fill="#DCB63B"/>
<path id="Vector_4" d="M3.17421 72.5066C4.70588 72.5066 5.94755 71.265 5.94755 69.7333C5.94755 68.2016 4.70588 66.96 3.17421 66.96C1.64254 66.96 0.400879 68.2016 0.400879 69.7333C0.400879 71.265 1.64254 72.5066 3.17421 72.5066Z" fill="#DCB63B"/>
<path id="Vector_5" d="M26.7478 80.8266C30.577 80.8266 33.6811 77.7225 33.6811 73.8933C33.6811 70.0641 30.577 66.96 26.7478 66.96C22.9186 66.96 19.8145 70.0641 19.8145 73.8933C19.8145 77.7225 22.9186 80.8266 26.7478 80.8266Z" fill="#DCB63B"/>
</g>
</svg>
