<svg width="20" height="20" viewBox="0 0 20 20" fill="none" xmlns="http://www.w3.org/2000/svg">
<path d="M18.3167 9.50854C18.0334 4.6752 13.6417 0.950212 8.58341 1.78355C5.10008 2.35855 2.30841 5.18353 1.76675 8.66686C1.45008 10.6835 1.86677 12.5919 2.7751 14.1669L2.03342 16.9252C1.86675 17.5502 2.44174 18.1169 3.0584 17.9419L5.77508 17.1919C7.00841 17.9169 8.45008 18.3335 9.99174 18.3335C14.6917 18.3335 18.5917 14.1919 18.3167 9.50854ZM14.0668 13.1002C13.9918 13.2502 13.9001 13.3919 13.7834 13.5252C13.5751 13.7502 13.3501 13.9169 13.1001 14.0169C12.8501 14.1252 12.5751 14.1752 12.2834 14.1752C11.8584 14.1752 11.4001 14.0752 10.9251 13.8669C10.4417 13.6585 9.96676 13.3835 9.49176 13.0419C9.00843 12.6919 8.55842 12.3002 8.12508 11.8752C7.69175 11.4419 7.3084 10.9835 6.9584 10.5085C6.61673 10.0335 6.34175 9.55853 6.14175 9.08353C5.94175 8.60853 5.84176 8.15021 5.84176 7.71687C5.84176 7.43354 5.89175 7.15854 5.99175 6.90854C6.09175 6.65021 6.2501 6.41688 6.4751 6.20854C6.74177 5.94188 7.03342 5.81688 7.34175 5.81688C7.45842 5.81688 7.57506 5.84187 7.68339 5.89187C7.79173 5.94187 7.89175 6.01687 7.96675 6.12521L8.93339 7.49186C9.00839 7.60019 9.06674 7.69186 9.10007 7.78353C9.14174 7.8752 9.15841 7.95853 9.15841 8.04186C9.15841 8.14186 9.12509 8.24188 9.06676 8.34188C9.00842 8.44187 8.9334 8.54186 8.8334 8.64186L8.51673 8.97519C8.46673 9.02519 8.4501 9.0752 8.4501 9.14187C8.4501 9.1752 8.4584 9.20853 8.46673 9.24186C8.4834 9.2752 8.49176 9.3002 8.5001 9.3252C8.5751 9.46687 8.7084 9.64186 8.89174 9.85852C9.0834 10.0752 9.28344 10.3002 9.50011 10.5169C9.72511 10.7419 9.94176 10.9419 10.1668 11.1335C10.3834 11.3169 10.5667 11.4419 10.7084 11.5169C10.7334 11.5252 10.7584 11.5419 10.7834 11.5502C10.8168 11.5669 10.8501 11.5669 10.8918 11.5669C10.9668 11.5669 11.0168 11.5419 11.0668 11.4919L11.3834 11.1752C11.4917 11.0669 11.5918 10.9919 11.6834 10.9419C11.7834 10.8835 11.8751 10.8502 11.9834 10.8502C12.0668 10.8502 12.1501 10.8669 12.2418 10.9085C12.3334 10.9502 12.4334 11.0002 12.5334 11.0752L13.9168 12.0585C14.0251 12.1335 14.1001 12.2252 14.1501 12.3252C14.1917 12.4335 14.2167 12.5335 14.2167 12.6502C14.1667 12.7919 14.1334 12.9502 14.0668 13.1002Z" fill="white"/>
</svg>
